<?xml version="1.0" encoding="utf-8" standalone="no"?>
<!DOCTYPE svg PUBLIC "-//W3C//DTD SVG 1.1//EN"
  "http://www.w3.org/Graphics/SVG/1.1/DTD/svg11.dtd">
<!-- Created with matplotlib (https://matplotlib.org/) -->
<svg height="288pt" version="1.1" viewBox="0 0 432 288" width="432pt" xmlns="http://www.w3.org/2000/svg" xmlns:xlink="http://www.w3.org/1999/xlink">
 <defs>
  <style type="text/css">
*{stroke-linecap:butt;stroke-linejoin:round;}
  </style>
 </defs>
 <g id="figure_1">
  <g id="patch_1">
   <path d="M 0 288 
L 432 288 
L 432 0 
L 0 0 
z
" style="fill:#ffffff;"/>
  </g>
  <g id="axes_1">
   <g id="patch_2">
    <path d="M 54 252 
L 388.8 252 
L 388.8 34.56 
L 54 34.56 
z
" style="fill:#eaeaf2;"/>
   </g>
   <g id="matplotlib.axis_1">
    <g id="xtick_1">
     <g id="line2d_1">
      <path clip-path="url(#p58ec711af8)" d="M 68.411954 252 
L 68.411954 34.56 
" style="fill:none;stroke:#ffffff;stroke-linecap:round;"/>
     </g>
     <g id="text_1">
      <!-- 0 -->
      <defs>
       <path d="M 4.15625 35.296875 
Q 4.15625 48 6.765625 55.734375 
Q 9.375 63.484375 14.515625 67.671875 
Q 19.671875 71.875 27.484375 71.875 
Q 33.25 71.875 37.59375 69.546875 
Q 41.9375 67.234375 44.765625 62.859375 
Q 47.609375 58.5 49.21875 52.21875 
Q 50.828125 45.953125 50.828125 35.296875 
Q 50.828125 22.703125 48.234375 14.96875 
Q 45.65625 7.234375 40.5 3 
Q 35.359375 -1.21875 27.484375 -1.21875 
Q 17.140625 -1.21875 11.234375 6.203125 
Q 4.15625 15.140625 4.15625 35.296875 
z
M 13.1875 35.296875 
Q 13.1875 17.671875 17.3125 11.828125 
Q 21.4375 6 27.484375 6 
Q 33.546875 6 37.671875 11.859375 
Q 41.796875 17.71875 41.796875 35.296875 
Q 41.796875 52.984375 37.671875 58.78125 
Q 33.546875 64.59375 27.390625 64.59375 
Q 21.34375 64.59375 17.71875 59.46875 
Q 13.1875 52.9375 13.1875 35.296875 
z
" id="ArialMT-48"/>
      </defs>
      <g style="fill:#262626;" transform="translate(65.353438 269.373594)scale(0.11 -0.11)">
       <use xlink:href="#ArialMT-48"/>
      </g>
     </g>
    </g>
    <g id="xtick_2">
     <g id="line2d_2">
      <path clip-path="url(#p58ec711af8)" d="M 131.39851 252 
L 131.39851 34.56 
" style="fill:none;stroke:#ffffff;stroke-linecap:round;"/>
     </g>
     <g id="text_2">
      <!-- 10000 -->
      <defs>
       <path d="M 37.25 0 
L 28.46875 0 
L 28.46875 56 
Q 25.296875 52.984375 20.140625 49.953125 
Q 14.984375 46.921875 10.890625 45.40625 
L 10.890625 53.90625 
Q 18.265625 57.375 23.78125 62.296875 
Q 29.296875 67.234375 31.59375 71.875 
L 37.25 71.875 
z
" id="ArialMT-49"/>
      </defs>
      <g style="fill:#262626;" transform="translate(116.105932 269.373594)scale(0.11 -0.11)">
       <use xlink:href="#ArialMT-49"/>
       <use x="55.615234" xlink:href="#ArialMT-48"/>
       <use x="111.230469" xlink:href="#ArialMT-48"/>
       <use x="166.845703" xlink:href="#ArialMT-48"/>
       <use x="222.460938" xlink:href="#ArialMT-48"/>
      </g>
     </g>
    </g>
    <g id="xtick_3">
     <g id="line2d_3">
      <path clip-path="url(#p58ec711af8)" d="M 194.385066 252 
L 194.385066 34.56 
" style="fill:none;stroke:#ffffff;stroke-linecap:round;"/>
     </g>
     <g id="text_3">
      <!-- 20000 -->
      <defs>
       <path d="M 50.34375 8.453125 
L 50.34375 0 
L 3.03125 0 
Q 2.9375 3.171875 4.046875 6.109375 
Q 5.859375 10.9375 9.828125 15.625 
Q 13.8125 20.3125 21.34375 26.46875 
Q 33.015625 36.03125 37.109375 41.625 
Q 41.21875 47.21875 41.21875 52.203125 
Q 41.21875 57.421875 37.46875 61 
Q 33.734375 64.59375 27.734375 64.59375 
Q 21.390625 64.59375 17.578125 60.78125 
Q 13.765625 56.984375 13.71875 50.25 
L 4.6875 51.171875 
Q 5.609375 61.28125 11.65625 66.578125 
Q 17.71875 71.875 27.9375 71.875 
Q 38.234375 71.875 44.234375 66.15625 
Q 50.25 60.453125 50.25 52 
Q 50.25 47.703125 48.484375 43.546875 
Q 46.734375 39.40625 42.65625 34.8125 
Q 38.578125 30.21875 29.109375 22.21875 
Q 21.1875 15.578125 18.9375 13.203125 
Q 16.703125 10.84375 15.234375 8.453125 
z
" id="ArialMT-50"/>
      </defs>
      <g style="fill:#262626;" transform="translate(179.092488 269.373594)scale(0.11 -0.11)">
       <use xlink:href="#ArialMT-50"/>
       <use x="55.615234" xlink:href="#ArialMT-48"/>
       <use x="111.230469" xlink:href="#ArialMT-48"/>
       <use x="166.845703" xlink:href="#ArialMT-48"/>
       <use x="222.460938" xlink:href="#ArialMT-48"/>
      </g>
     </g>
    </g>
    <g id="xtick_4">
     <g id="line2d_4">
      <path clip-path="url(#p58ec711af8)" d="M 257.371622 252 
L 257.371622 34.56 
" style="fill:none;stroke:#ffffff;stroke-linecap:round;"/>
     </g>
     <g id="text_4">
      <!-- 30000 -->
      <defs>
       <path d="M 4.203125 18.890625 
L 12.984375 20.0625 
Q 14.5 12.59375 18.140625 9.296875 
Q 21.78125 6 27 6 
Q 33.203125 6 37.46875 10.296875 
Q 41.75 14.59375 41.75 20.953125 
Q 41.75 27 37.796875 30.921875 
Q 33.84375 34.859375 27.734375 34.859375 
Q 25.25 34.859375 21.53125 33.890625 
L 22.515625 41.609375 
Q 23.390625 41.5 23.921875 41.5 
Q 29.546875 41.5 34.03125 44.421875 
Q 38.53125 47.359375 38.53125 53.46875 
Q 38.53125 58.296875 35.25 61.46875 
Q 31.984375 64.65625 26.8125 64.65625 
Q 21.6875 64.65625 18.265625 61.421875 
Q 14.84375 58.203125 13.875 51.765625 
L 5.078125 53.328125 
Q 6.6875 62.15625 12.390625 67.015625 
Q 18.109375 71.875 26.609375 71.875 
Q 32.46875 71.875 37.390625 69.359375 
Q 42.328125 66.84375 44.9375 62.5 
Q 47.5625 58.15625 47.5625 53.265625 
Q 47.5625 48.640625 45.0625 44.828125 
Q 42.578125 41.015625 37.703125 38.765625 
Q 44.046875 37.3125 47.5625 32.6875 
Q 51.078125 28.078125 51.078125 21.140625 
Q 51.078125 11.765625 44.234375 5.25 
Q 37.40625 -1.265625 26.953125 -1.265625 
Q 17.53125 -1.265625 11.296875 4.34375 
Q 5.078125 9.96875 4.203125 18.890625 
z
" id="ArialMT-51"/>
      </defs>
      <g style="fill:#262626;" transform="translate(242.079044 269.373594)scale(0.11 -0.11)">
       <use xlink:href="#ArialMT-51"/>
       <use x="55.615234" xlink:href="#ArialMT-48"/>
       <use x="111.230469" xlink:href="#ArialMT-48"/>
       <use x="166.845703" xlink:href="#ArialMT-48"/>
       <use x="222.460938" xlink:href="#ArialMT-48"/>
      </g>
     </g>
    </g>
    <g id="xtick_5">
     <g id="line2d_5">
      <path clip-path="url(#p58ec711af8)" d="M 320.358178 252 
L 320.358178 34.56 
" style="fill:none;stroke:#ffffff;stroke-linecap:round;"/>
     </g>
     <g id="text_5">
      <!-- 40000 -->
      <defs>
       <path d="M 32.328125 0 
L 32.328125 17.140625 
L 1.265625 17.140625 
L 1.265625 25.203125 
L 33.9375 71.578125 
L 41.109375 71.578125 
L 41.109375 25.203125 
L 50.78125 25.203125 
L 50.78125 17.140625 
L 41.109375 17.140625 
L 41.109375 0 
z
M 32.328125 25.203125 
L 32.328125 57.46875 
L 9.90625 25.203125 
z
" id="ArialMT-52"/>
      </defs>
      <g style="fill:#262626;" transform="translate(305.0656 269.373594)scale(0.11 -0.11)">
       <use xlink:href="#ArialMT-52"/>
       <use x="55.615234" xlink:href="#ArialMT-48"/>
       <use x="111.230469" xlink:href="#ArialMT-48"/>
       <use x="166.845703" xlink:href="#ArialMT-48"/>
       <use x="222.460938" xlink:href="#ArialMT-48"/>
      </g>
     </g>
    </g>
    <g id="xtick_6">
     <g id="line2d_6">
      <path clip-path="url(#p58ec711af8)" d="M 383.344734 252 
L 383.344734 34.56 
" style="fill:none;stroke:#ffffff;stroke-linecap:round;"/>
     </g>
     <g id="text_6">
      <!-- 50000 -->
      <defs>
       <path d="M 4.15625 18.75 
L 13.375 19.53125 
Q 14.40625 12.796875 18.140625 9.390625 
Q 21.875 6 27.15625 6 
Q 33.5 6 37.890625 10.78125 
Q 42.28125 15.578125 42.28125 23.484375 
Q 42.28125 31 38.0625 35.34375 
Q 33.84375 39.703125 27 39.703125 
Q 22.75 39.703125 19.328125 37.765625 
Q 15.921875 35.84375 13.96875 32.765625 
L 5.71875 33.84375 
L 12.640625 70.609375 
L 48.25 70.609375 
L 48.25 62.203125 
L 19.671875 62.203125 
L 15.828125 42.96875 
Q 22.265625 47.46875 29.34375 47.46875 
Q 38.71875 47.46875 45.15625 40.96875 
Q 51.609375 34.46875 51.609375 24.265625 
Q 51.609375 14.546875 45.953125 7.46875 
Q 39.0625 -1.21875 27.15625 -1.21875 
Q 17.390625 -1.21875 11.203125 4.25 
Q 5.03125 9.71875 4.15625 18.75 
z
" id="ArialMT-53"/>
      </defs>
      <g style="fill:#262626;" transform="translate(368.052156 269.373594)scale(0.11 -0.11)">
       <use xlink:href="#ArialMT-53"/>
       <use x="55.615234" xlink:href="#ArialMT-48"/>
       <use x="111.230469" xlink:href="#ArialMT-48"/>
       <use x="166.845703" xlink:href="#ArialMT-48"/>
       <use x="222.460938" xlink:href="#ArialMT-48"/>
      </g>
     </g>
    </g>
   </g>
   <g id="matplotlib.axis_2">
    <g id="ytick_1">
     <g id="line2d_7">
      <path clip-path="url(#p58ec711af8)" d="M 54 229.426263 
L 388.8 229.426263 
" style="fill:none;stroke:#ffffff;stroke-linecap:round;"/>
     </g>
     <g id="text_7">
      <!-- 0.4 -->
      <defs>
       <path d="M 9.078125 0 
L 9.078125 10.015625 
L 19.09375 10.015625 
L 19.09375 0 
z
" id="ArialMT-46"/>
      </defs>
      <g style="fill:#262626;" transform="translate(29.21 233.36306)scale(0.11 -0.11)">
       <use xlink:href="#ArialMT-48"/>
       <use x="55.615234" xlink:href="#ArialMT-46"/>
       <use x="83.398438" xlink:href="#ArialMT-52"/>
      </g>
     </g>
    </g>
    <g id="ytick_2">
     <g id="line2d_8">
      <path clip-path="url(#p58ec711af8)" d="M 54 198.189091 
L 388.8 198.189091 
" style="fill:none;stroke:#ffffff;stroke-linecap:round;"/>
     </g>
     <g id="text_8">
      <!-- 0.5 -->
      <g style="fill:#262626;" transform="translate(29.21 202.125888)scale(0.11 -0.11)">
       <use xlink:href="#ArialMT-48"/>
       <use x="55.615234" xlink:href="#ArialMT-46"/>
       <use x="83.398438" xlink:href="#ArialMT-53"/>
      </g>
     </g>
    </g>
    <g id="ytick_3">
     <g id="line2d_9">
      <path clip-path="url(#p58ec711af8)" d="M 54 166.951919 
L 388.8 166.951919 
" style="fill:none;stroke:#ffffff;stroke-linecap:round;"/>
     </g>
     <g id="text_9">
      <!-- 0.6 -->
      <defs>
       <path d="M 49.75 54.046875 
L 41.015625 53.375 
Q 39.84375 58.546875 37.703125 60.890625 
Q 34.125 64.65625 28.90625 64.65625 
Q 24.703125 64.65625 21.53125 62.3125 
Q 17.390625 59.28125 14.984375 53.46875 
Q 12.59375 47.65625 12.5 36.921875 
Q 15.671875 41.75 20.265625 44.09375 
Q 24.859375 46.4375 29.890625 46.4375 
Q 38.671875 46.4375 44.84375 39.96875 
Q 51.03125 33.5 51.03125 23.25 
Q 51.03125 16.5 48.125 10.71875 
Q 45.21875 4.9375 40.140625 1.859375 
Q 35.0625 -1.21875 28.609375 -1.21875 
Q 17.625 -1.21875 10.6875 6.859375 
Q 3.765625 14.9375 3.765625 33.5 
Q 3.765625 54.25 11.421875 63.671875 
Q 18.109375 71.875 29.4375 71.875 
Q 37.890625 71.875 43.28125 67.140625 
Q 48.6875 62.40625 49.75 54.046875 
z
M 13.875 23.1875 
Q 13.875 18.65625 15.796875 14.5 
Q 17.71875 10.359375 21.1875 8.171875 
Q 24.65625 6 28.46875 6 
Q 34.03125 6 38.03125 10.484375 
Q 42.046875 14.984375 42.046875 22.703125 
Q 42.046875 30.125 38.078125 34.390625 
Q 34.125 38.671875 28.125 38.671875 
Q 22.171875 38.671875 18.015625 34.390625 
Q 13.875 30.125 13.875 23.1875 
z
" id="ArialMT-54"/>
      </defs>
      <g style="fill:#262626;" transform="translate(29.21 170.888716)scale(0.11 -0.11)">
       <use xlink:href="#ArialMT-48"/>
       <use x="55.615234" xlink:href="#ArialMT-46"/>
       <use x="83.398438" xlink:href="#ArialMT-54"/>
      </g>
     </g>
    </g>
    <g id="ytick_4">
     <g id="line2d_10">
      <path clip-path="url(#p58ec711af8)" d="M 54 135.714747 
L 388.8 135.714747 
" style="fill:none;stroke:#ffffff;stroke-linecap:round;"/>
     </g>
     <g id="text_10">
      <!-- 0.7 -->
      <defs>
       <path d="M 4.734375 62.203125 
L 4.734375 70.65625 
L 51.078125 70.65625 
L 51.078125 63.8125 
Q 44.234375 56.546875 37.515625 44.484375 
Q 30.8125 32.421875 27.15625 19.671875 
Q 24.515625 10.6875 23.78125 0 
L 14.75 0 
Q 14.890625 8.453125 18.0625 20.40625 
Q 21.234375 32.375 27.171875 43.484375 
Q 33.109375 54.59375 39.796875 62.203125 
z
" id="ArialMT-55"/>
      </defs>
      <g style="fill:#262626;" transform="translate(29.21 139.651544)scale(0.11 -0.11)">
       <use xlink:href="#ArialMT-48"/>
       <use x="55.615234" xlink:href="#ArialMT-46"/>
       <use x="83.398438" xlink:href="#ArialMT-55"/>
      </g>
     </g>
    </g>
    <g id="ytick_5">
     <g id="line2d_11">
      <path clip-path="url(#p58ec711af8)" d="M 54 104.477576 
L 388.8 104.477576 
" style="fill:none;stroke:#ffffff;stroke-linecap:round;"/>
     </g>
     <g id="text_11">
      <!-- 0.8 -->
      <defs>
       <path d="M 17.671875 38.8125 
Q 12.203125 40.828125 9.5625 44.53125 
Q 6.9375 48.25 6.9375 53.421875 
Q 6.9375 61.234375 12.546875 66.546875 
Q 18.171875 71.875 27.484375 71.875 
Q 36.859375 71.875 42.578125 66.421875 
Q 48.296875 60.984375 48.296875 53.171875 
Q 48.296875 48.1875 45.671875 44.5 
Q 43.0625 40.828125 37.75 38.8125 
Q 44.34375 36.671875 47.78125 31.875 
Q 51.21875 27.09375 51.21875 20.453125 
Q 51.21875 11.28125 44.71875 5.03125 
Q 38.234375 -1.21875 27.640625 -1.21875 
Q 17.046875 -1.21875 10.546875 5.046875 
Q 4.046875 11.328125 4.046875 20.703125 
Q 4.046875 27.6875 7.59375 32.390625 
Q 11.140625 37.109375 17.671875 38.8125 
z
M 15.921875 53.71875 
Q 15.921875 48.640625 19.1875 45.40625 
Q 22.46875 42.1875 27.6875 42.1875 
Q 32.765625 42.1875 36.015625 45.375 
Q 39.265625 48.578125 39.265625 53.21875 
Q 39.265625 58.0625 35.90625 61.359375 
Q 32.5625 64.65625 27.59375 64.65625 
Q 22.5625 64.65625 19.234375 61.421875 
Q 15.921875 58.203125 15.921875 53.71875 
z
M 13.09375 20.65625 
Q 13.09375 16.890625 14.875 13.375 
Q 16.65625 9.859375 20.171875 7.921875 
Q 23.6875 6 27.734375 6 
Q 34.03125 6 38.125 10.046875 
Q 42.234375 14.109375 42.234375 20.359375 
Q 42.234375 26.703125 38.015625 30.859375 
Q 33.796875 35.015625 27.4375 35.015625 
Q 21.234375 35.015625 17.15625 30.90625 
Q 13.09375 26.8125 13.09375 20.65625 
z
" id="ArialMT-56"/>
      </defs>
      <g style="fill:#262626;" transform="translate(29.21 108.414373)scale(0.11 -0.11)">
       <use xlink:href="#ArialMT-48"/>
       <use x="55.615234" xlink:href="#ArialMT-46"/>
       <use x="83.398438" xlink:href="#ArialMT-56"/>
      </g>
     </g>
    </g>
    <g id="ytick_6">
     <g id="line2d_12">
      <path clip-path="url(#p58ec711af8)" d="M 54 73.240404 
L 388.8 73.240404 
" style="fill:none;stroke:#ffffff;stroke-linecap:round;"/>
     </g>
     <g id="text_12">
      <!-- 0.9 -->
      <defs>
       <path d="M 5.46875 16.546875 
L 13.921875 17.328125 
Q 14.984375 11.375 18.015625 8.6875 
Q 21.046875 6 25.78125 6 
Q 29.828125 6 32.875 7.859375 
Q 35.9375 9.71875 37.890625 12.8125 
Q 39.84375 15.921875 41.15625 21.1875 
Q 42.484375 26.46875 42.484375 31.9375 
Q 42.484375 32.515625 42.4375 33.6875 
Q 39.796875 29.5 35.234375 26.875 
Q 30.671875 24.265625 25.34375 24.265625 
Q 16.453125 24.265625 10.296875 30.703125 
Q 4.15625 37.15625 4.15625 47.703125 
Q 4.15625 58.59375 10.578125 65.234375 
Q 17 71.875 26.65625 71.875 
Q 33.640625 71.875 39.421875 68.109375 
Q 45.21875 64.359375 48.21875 57.390625 
Q 51.21875 50.4375 51.21875 37.25 
Q 51.21875 23.53125 48.234375 15.40625 
Q 45.265625 7.28125 39.375 3.03125 
Q 33.5 -1.21875 25.59375 -1.21875 
Q 17.1875 -1.21875 11.859375 3.4375 
Q 6.546875 8.109375 5.46875 16.546875 
z
M 41.453125 48.140625 
Q 41.453125 55.71875 37.421875 60.15625 
Q 33.40625 64.59375 27.734375 64.59375 
Q 21.875 64.59375 17.53125 59.8125 
Q 13.1875 55.03125 13.1875 47.40625 
Q 13.1875 40.578125 17.3125 36.296875 
Q 21.4375 32.03125 27.484375 32.03125 
Q 33.59375 32.03125 37.515625 36.296875 
Q 41.453125 40.578125 41.453125 48.140625 
z
" id="ArialMT-57"/>
      </defs>
      <g style="fill:#262626;" transform="translate(29.21 77.177201)scale(0.11 -0.11)">
       <use xlink:href="#ArialMT-48"/>
       <use x="55.615234" xlink:href="#ArialMT-46"/>
       <use x="83.398438" xlink:href="#ArialMT-57"/>
      </g>
     </g>
    </g>
    <g id="ytick_7">
     <g id="line2d_13">
      <path clip-path="url(#p58ec711af8)" d="M 54 42.003232 
L 388.8 42.003232 
" style="fill:none;stroke:#ffffff;stroke-linecap:round;"/>
     </g>
     <g id="text_13">
      <!-- 1.0 -->
      <g style="fill:#262626;" transform="translate(29.21 45.940029)scale(0.11 -0.11)">
       <use xlink:href="#ArialMT-49"/>
       <use x="55.615234" xlink:href="#ArialMT-46"/>
       <use x="83.398438" xlink:href="#ArialMT-48"/>
      </g>
     </g>
    </g>
   </g>
   <g id="line2d_14">
    <path clip-path="url(#p58ec711af8)" d="M 69.218182 176.225455 
L 70.02441 171.344646 
L 70.830638 161.58303 
L 72.443093 195.748687 
L 73.249321 146.940606 
L 74.055549 159.142626 
L 74.861777 134.738586 
L 75.668005 134.738586 
L 76.474233 139.619394 
L 77.280461 127.417374 
L 78.086689 127.417374 
L 78.892917 154.261818 
L 79.699145 144.500202 
L 80.505373 129.857778 
L 81.311601 117.655758 
L 82.117829 103.013333 
L 82.924056 124.97697 
L 83.730284 120.096162 
L 84.536512 122.536566 
L 85.34274 103.013333 
L 86.148968 95.692121 
L 86.955196 100.572929 
L 87.761424 88.370909 
L 88.567652 100.572929 
L 89.37388 107.894141 
L 90.180108 100.572929 
L 90.986336 112.774949 
L 91.792564 115.215354 
L 92.598791 95.692121 
L 93.405019 110.334545 
L 94.211247 103.013333 
L 95.823703 103.013333 
L 96.629931 85.930505 
L 97.436159 93.251717 
L 98.242387 85.930505 
L 98.92894 96.453351 
L 98.92894 123.045809 
L 99.735168 73.728485 
L 100.541396 76.168889 
L 101.347624 90.811313 
L 102.153852 100.572929 
L 102.96008 90.811313 
L 103.766308 83.490101 
L 104.572536 85.930505 
L 105.378764 90.811313 
L 106.184992 88.370909 
L 106.99122 76.168889 
L 107.797447 98.132525 
L 108.603675 95.692121 
L 109.409903 98.132525 
L 110.216131 105.453737 
L 111.022359 68.847677 
L 112.634815 88.370909 
L 113.441043 83.490101 
L 115.053499 83.490101 
L 115.859727 81.049697 
L 116.665955 76.168889 
L 117.472182 76.168889 
L 118.27841 71.288081 
L 119.084638 73.728485 
L 119.890866 68.847677 
L 120.697094 81.049697 
L 121.503322 66.407273 
L 122.30955 76.168889 
L 123.115778 81.049697 
L 123.922006 76.168889 
L 124.728234 76.168889 
L 125.534462 88.370909 
L 126.34069 93.251717 
L 127.146917 100.572929 
L 127.953145 78.609293 
L 128.759373 78.609293 
L 129.445927 90.721757 
L 129.445927 83.523857 
L 130.252155 76.168889 
L 131.864611 76.168889 
L 132.670838 63.966869 
L 133.477066 81.049697 
L 134.283294 83.490101 
L 135.089522 78.609293 
L 135.89575 56.645657 
L 136.701978 78.609293 
L 137.508206 81.049697 
L 138.314434 76.168889 
L 139.92689 81.049697 
L 140.733118 66.407273 
L 141.539346 88.370909 
L 142.345573 81.049697 
L 143.151801 78.609293 
L 143.958029 73.728485 
L 144.764257 71.288081 
L 145.570485 93.251717 
L 146.376713 68.847677 
L 147.182941 71.288081 
L 147.989169 88.370909 
L 148.795397 73.728485 
L 149.601625 76.168889 
L 150.407853 71.288081 
L 151.214081 98.132525 
L 152.020308 56.645657 
L 153.632764 81.049697 
L 154.438992 73.728485 
L 155.24522 78.609293 
L 156.051448 78.609293 
L 157.663904 88.370909 
L 158.470132 66.407273 
L 159.27636 63.966869 
L 159.962913 76.431824 
L 160.769141 71.288081 
L 161.575369 83.490101 
L 162.381597 63.966869 
L 163.187825 83.490101 
L 163.994053 83.490101 
L 164.800281 68.847677 
L 165.606509 83.490101 
L 166.412737 68.847677 
L 167.218964 81.049697 
L 168.025192 81.049697 
L 168.83142 68.847677 
L 169.637648 83.490101 
L 170.443876 76.168889 
L 171.250104 61.526465 
L 172.056332 68.847677 
L 172.86256 71.288081 
L 173.668788 63.966869 
L 174.475016 81.049697 
L 175.281244 78.609293 
L 176.087472 68.847677 
L 176.893699 76.168889 
L 177.699927 66.407273 
L 178.506155 68.847677 
L 179.312383 90.811313 
L 180.118611 71.288081 
L 180.924839 68.847677 
L 181.731067 71.288081 
L 182.537295 68.847677 
L 183.343523 76.168889 
L 184.149751 63.966869 
L 184.955979 68.847677 
L 185.762207 61.526465 
L 186.568434 71.288081 
L 187.374662 71.288081 
L 188.18089 68.847677 
L 188.987118 76.168889 
L 189.793346 71.288081 
L 190.4799 73.526992 
L 190.4799 73.079228 
L 191.286128 78.609293 
L 192.092355 73.728485 
L 192.898583 78.609293 
L 193.704811 71.288081 
L 194.511039 73.728485 
L 195.317267 78.609293 
L 196.123495 59.086061 
L 196.929723 66.407273 
L 197.735951 56.645657 
L 198.542179 90.811313 
L 199.348407 68.847677 
L 200.154635 81.049697 
L 200.960863 78.609293 
L 201.76709 63.966869 
L 202.573318 68.847677 
L 203.379546 76.168889 
L 204.185774 73.728485 
L 204.992002 93.251717 
L 205.79823 68.847677 
L 206.604458 76.168889 
L 207.410686 81.049697 
L 208.216914 61.526465 
L 209.023142 73.728485 
L 209.82937 76.168889 
L 210.635598 71.288081 
L 211.441825 61.526465 
L 212.248053 71.288081 
L 213.054281 76.168889 
L 213.860509 63.966869 
L 214.666737 68.847677 
L 215.472965 66.407273 
L 217.891649 66.407273 
L 218.697877 85.930505 
L 219.504105 71.288081 
L 220.310333 44.443636 
L 220.996886 76.39278 
L 220.996886 71.725288 
L 221.803114 68.847677 
L 222.609342 85.930505 
L 223.41557 71.288081 
L 224.221798 68.847677 
L 225.028026 71.288081 
L 225.834254 81.049697 
L 226.640481 68.847677 
L 227.446709 83.490101 
L 228.252937 68.847677 
L 229.059165 76.168889 
L 229.865393 63.966869 
L 230.671621 68.847677 
L 231.477849 85.930505 
L 232.284077 56.645657 
L 233.090305 66.407273 
L 233.896533 66.407273 
L 234.702761 56.645657 
L 235.508989 71.288081 
L 236.315216 71.288081 
L 237.121444 63.966869 
L 237.927672 71.288081 
L 238.7339 66.407273 
L 239.540128 76.168889 
L 240.346356 73.728485 
L 241.152584 81.049697 
L 241.958812 76.168889 
L 242.76504 68.847677 
L 244.377496 68.847677 
L 245.183724 51.764848 
L 245.989951 73.728485 
L 246.796179 81.049697 
L 247.602407 61.526465 
L 248.408635 61.526465 
L 249.214863 76.168889 
L 250.827319 66.407273 
L 251.513872 82.124374 
L 251.513872 70.822667 
L 252.3201 78.609293 
L 253.126328 66.407273 
L 253.932556 68.847677 
L 254.738784 78.609293 
L 255.545012 59.086061 
L 256.35124 68.847677 
L 257.157468 81.049697 
L 257.963696 81.049697 
L 258.769924 76.168889 
L 259.576152 59.086061 
L 260.38238 68.847677 
L 261.188607 76.168889 
L 261.994835 76.168889 
L 263.607291 61.526465 
L 264.413519 63.966869 
L 265.219747 73.728485 
L 266.025975 76.168889 
L 266.832203 73.728485 
L 267.638431 66.407273 
L 268.444659 61.526465 
L 269.250887 71.288081 
L 270.057115 59.086061 
L 270.863343 51.764848 
L 271.66957 71.288081 
L 272.475798 83.490101 
L 273.282026 66.407273 
L 274.088254 66.407273 
L 274.894482 68.847677 
L 275.70071 73.728485 
L 276.506938 83.490101 
L 277.313166 73.728485 
L 278.119394 85.930505 
L 278.925622 63.966869 
L 279.73185 68.847677 
L 280.538078 59.086061 
L 281.344305 63.966869 
L 282.030859 76.39278 
L 282.030859 70.306888 
L 282.837087 66.407273 
L 283.643315 76.168889 
L 284.449543 59.086061 
L 285.255771 73.728485 
L 286.061998 61.526465 
L 287.674454 71.288081 
L 288.480682 71.288081 
L 289.28691 76.168889 
L 290.093138 61.526465 
L 290.899366 66.407273 
L 291.705594 78.609293 
L 292.511822 81.049697 
L 293.31805 71.288081 
L 294.930506 66.407273 
L 295.736734 66.407273 
L 296.542961 76.168889 
L 297.349189 73.728485 
L 298.155417 61.526465 
L 298.961645 76.168889 
L 299.767873 63.966869 
L 300.574101 71.288081 
L 301.380329 59.086061 
L 302.186557 88.370909 
L 302.992785 71.288081 
L 303.799013 66.407273 
L 304.605241 81.049697 
L 305.411469 61.526465 
L 306.217696 68.847677 
L 307.023924 90.811313 
L 307.830152 59.086061 
L 308.63638 71.288081 
L 309.442608 76.168889 
L 310.248836 56.645657 
L 311.055064 71.288081 
L 311.861292 59.086061 
L 312.547845 59.197997 
L 312.547845 69.662156 
L 313.354073 54.205253 
L 314.160301 66.407273 
L 315.772757 85.930505 
L 316.578985 71.288081 
L 317.385213 71.288081 
L 318.191441 51.764848 
L 318.997669 68.847677 
L 319.803897 68.847677 
L 320.610125 59.086061 
L 321.416352 68.847677 
L 323.028808 68.847677 
L 323.835036 85.930505 
L 324.641264 71.288081 
L 325.447492 66.407273 
L 326.25372 71.288081 
L 327.059948 59.086061 
L 327.866176 73.728485 
L 328.672404 76.168889 
L 330.28486 71.288081 
L 331.091087 76.168889 
L 331.897315 61.526465 
L 332.703543 83.490101 
L 333.509771 56.645657 
L 334.315999 73.728485 
L 335.122227 68.847677 
L 335.928455 73.728485 
L 336.734683 56.645657 
L 337.540911 73.728485 
L 338.347139 61.526465 
L 339.153367 61.526465 
L 339.959595 68.847677 
L 340.765822 78.609293 
L 341.57205 78.609293 
L 342.378278 68.847677 
L 343.064832 70.661186 
L 343.064832 69.533203 
L 343.87106 71.288081 
L 344.677288 68.847677 
L 345.483516 59.086061 
L 346.289743 63.966869 
L 347.095971 51.764848 
L 347.902199 68.847677 
L 348.708427 76.168889 
L 349.514655 88.370909 
L 350.320883 66.407273 
L 351.127111 73.728485 
L 351.933339 51.764848 
L 352.739567 71.288081 
L 353.545795 49.324444 
L 354.352023 78.609293 
L 355.158251 63.966869 
L 355.964478 76.168889 
L 356.770706 76.168889 
L 357.576934 68.847677 
L 358.383162 68.847677 
L 359.18939 73.728485 
L 359.995618 73.728485 
L 360.801846 76.168889 
L 361.608074 71.288081 
L 362.414302 71.288081 
L 363.22053 76.168889 
L 364.026758 56.645657 
L 364.832986 71.288081 
L 365.639213 63.966869 
L 366.445441 59.086061 
L 367.251669 85.930505 
L 368.057897 59.086061 
L 368.864125 73.728485 
L 369.670353 73.728485 
L 370.476581 68.847677 
L 371.282809 54.205253 
L 372.089037 68.847677 
L 372.895265 73.728485 
L 373.581818 76.39278 
L 373.581818 68.952947 
L 373.581818 68.952947 
" style="fill:none;stroke:#b2331a;stroke-linecap:round;stroke-opacity:0.2;stroke-width:1.5;"/>
   </g>
   <g id="line2d_15">
    <path clip-path="url(#p58ec711af8)" d="M 69.218182 222.593131 
L 70.02441 173.785051 
L 70.830638 200.629495 
L 71.636866 242.116364 
L 72.443093 178.665859 
L 73.249321 210.391111 
L 74.055549 181.106263 
L 74.861777 164.023434 
L 75.668005 185.987071 
L 76.474233 200.629495 
L 77.280461 188.427475 
L 78.086689 185.987071 
L 78.892917 164.023434 
L 79.699145 178.665859 
L 80.505373 159.142626 
L 82.117829 159.142626 
L 82.924056 149.38101 
L 83.730284 183.546667 
L 84.536512 181.106263 
L 85.34274 154.261818 
L 86.148968 156.702222 
L 86.955196 164.023434 
L 87.761424 139.619394 
L 88.567652 156.702222 
L 89.37388 151.821414 
L 90.180108 190.867879 
L 90.986336 168.904242 
L 91.792564 159.142626 
L 92.598791 176.225455 
L 93.405019 164.023434 
L 95.017475 164.023434 
L 95.823703 137.17899 
L 96.629931 149.38101 
L 97.436159 139.619394 
L 98.242387 154.261818 
L 98.92894 133.708687 
L 98.92894 171.013716 
L 99.735168 139.619394 
L 100.541396 139.619394 
L 101.347624 142.059798 
L 102.153852 146.940606 
L 102.96008 134.738586 
L 103.766308 112.774949 
L 104.572536 115.215354 
L 105.378764 137.17899 
L 106.184992 127.417374 
L 106.99122 115.215354 
L 107.797447 134.738586 
L 108.603675 137.17899 
L 110.216131 132.298182 
L 111.022359 115.215354 
L 111.828587 129.857778 
L 112.634815 122.536566 
L 113.441043 129.857778 
L 114.247271 103.013333 
L 115.053499 112.774949 
L 115.859727 134.738586 
L 116.665955 105.453737 
L 117.472182 95.692121 
L 118.27841 83.490101 
L 119.084638 124.97697 
L 119.890866 127.417374 
L 120.697094 112.774949 
L 121.503322 95.692121 
L 122.30955 107.894141 
L 123.115778 110.334545 
L 123.922006 90.811313 
L 125.534462 95.692121 
L 126.34069 100.572929 
L 127.146917 90.811313 
L 127.953145 73.728485 
L 128.759373 103.013333 
L 129.445927 96.453351 
L 129.445927 116.018252 
L 130.252155 93.251717 
L 131.058383 88.370909 
L 131.864611 90.811313 
L 132.670838 83.490101 
L 133.477066 83.490101 
L 134.283294 85.930505 
L 135.089522 85.930505 
L 135.89575 78.609293 
L 136.701978 100.572929 
L 137.508206 112.774949 
L 138.314434 105.453737 
L 139.120662 105.453737 
L 139.92689 83.490101 
L 140.733118 88.370909 
L 141.539346 90.811313 
L 142.345573 73.728485 
L 143.151801 95.692121 
L 143.958029 100.572929 
L 145.570485 71.288081 
L 146.376713 83.490101 
L 147.182941 63.966869 
L 147.989169 85.930505 
L 148.795397 90.811313 
L 149.601625 83.490101 
L 150.407853 83.490101 
L 151.214081 81.049697 
L 152.020308 85.930505 
L 152.826536 81.049697 
L 153.632764 81.049697 
L 154.438992 83.490101 
L 155.24522 66.407273 
L 156.051448 95.692121 
L 156.857676 83.490101 
L 157.663904 88.370909 
L 158.470132 71.288081 
L 159.27636 81.049697 
L 159.962913 73.526992 
L 159.962913 86.038289 
L 160.769141 90.811313 
L 161.575369 78.609293 
L 162.381597 61.526465 
L 163.187825 76.168889 
L 163.994053 68.847677 
L 164.800281 71.288081 
L 165.606509 83.490101 
L 166.412737 76.168889 
L 167.218964 83.490101 
L 168.025192 93.251717 
L 168.83142 90.811313 
L 169.637648 73.728485 
L 170.443876 76.168889 
L 171.250104 71.288081 
L 172.056332 59.086061 
L 173.668788 83.490101 
L 174.475016 71.288081 
L 175.281244 95.692121 
L 176.087472 76.168889 
L 176.893699 81.049697 
L 177.699927 78.609293 
L 178.506155 73.728485 
L 179.312383 90.811313 
L 180.118611 88.370909 
L 180.924839 63.966869 
L 182.537295 83.490101 
L 183.343523 68.847677 
L 184.149751 71.288081 
L 184.955979 76.168889 
L 185.762207 61.526465 
L 186.568434 90.811313 
L 187.374662 88.370909 
L 188.18089 78.609293 
L 188.987118 76.168889 
L 189.793346 66.407273 
L 190.4799 67.795398 
L 190.4799 77.205491 
L 191.286128 78.609293 
L 192.092355 83.490101 
L 192.898583 71.288081 
L 193.704811 71.288081 
L 194.511039 68.847677 
L 195.317267 61.526465 
L 196.123495 71.288081 
L 196.929723 71.288081 
L 197.735951 76.168889 
L 198.542179 54.205253 
L 199.348407 76.168889 
L 200.154635 63.966869 
L 200.960863 61.526465 
L 201.76709 98.132525 
L 202.573318 66.407273 
L 203.379546 71.288081 
L 204.185774 61.526465 
L 204.992002 76.168889 
L 205.79823 85.930505 
L 206.604458 90.811313 
L 207.410686 78.609293 
L 208.216914 78.609293 
L 209.023142 59.086061 
L 209.82937 78.609293 
L 210.635598 59.086061 
L 211.441825 81.049697 
L 212.248053 76.168889 
L 213.054281 73.728485 
L 213.860509 66.407273 
L 214.666737 71.288081 
L 216.279193 61.526465 
L 217.085421 78.609293 
L 217.891649 71.288081 
L 218.697877 78.609293 
L 219.504105 81.049697 
L 220.310333 90.811313 
L 220.996886 73.272641 
L 221.803114 78.609293 
L 222.609342 56.645657 
L 223.41557 66.407273 
L 224.221798 61.526465 
L 225.028026 76.168889 
L 225.834254 78.609293 
L 227.446709 68.847677 
L 228.252937 66.407273 
L 229.059165 71.288081 
L 229.865393 66.407273 
L 230.671621 88.370909 
L 231.477849 66.407273 
L 232.284077 78.609293 
L 233.090305 78.609293 
L 233.896533 63.966869 
L 234.702761 59.086061 
L 235.508989 71.288081 
L 236.315216 81.049697 
L 237.121444 68.847677 
L 237.927672 78.609293 
L 238.7339 76.168889 
L 239.540128 81.049697 
L 240.346356 68.847677 
L 241.152584 71.288081 
L 241.958812 63.966869 
L 242.76504 66.407273 
L 243.571268 73.728485 
L 244.377496 68.847677 
L 245.183724 61.526465 
L 245.989951 61.526465 
L 246.796179 73.728485 
L 247.602407 66.407273 
L 248.408635 73.728485 
L 249.214863 76.168889 
L 250.021091 66.407273 
L 250.827319 76.168889 
L 251.513872 73.526992 
L 251.513872 71.016079 
L 252.3201 85.930505 
L 253.126328 88.370909 
L 253.932556 68.847677 
L 254.738784 73.728485 
L 255.545012 71.288081 
L 256.35124 63.966869 
L 257.157468 59.086061 
L 257.963696 76.168889 
L 258.769924 68.847677 
L 260.38238 68.847677 
L 261.188607 59.086061 
L 261.994835 63.966869 
L 262.801063 59.086061 
L 263.607291 76.168889 
L 264.413519 71.288081 
L 265.219747 68.847677 
L 266.025975 81.049697 
L 266.832203 66.407273 
L 267.638431 59.086061 
L 268.444659 83.490101 
L 269.250887 85.930505 
L 270.863343 61.526465 
L 271.66957 66.407273 
L 272.475798 73.728485 
L 273.282026 73.728485 
L 274.088254 59.086061 
L 274.894482 66.407273 
L 276.506938 66.407273 
L 277.313166 71.288081 
L 278.119394 90.811313 
L 278.925622 63.966869 
L 279.73185 63.966869 
L 281.344305 83.490101 
L 282.030859 70.661186 
L 282.030859 70.887143 
L 282.837087 73.728485 
L 283.643315 71.288081 
L 284.449543 61.526465 
L 285.255771 78.609293 
L 286.061998 63.966869 
L 286.868226 68.847677 
L 287.674454 54.205253 
L 288.480682 73.728485 
L 289.28691 59.086061 
L 290.093138 61.526465 
L 290.899366 76.168889 
L 291.705594 63.966869 
L 292.511822 59.086061 
L 293.31805 68.847677 
L 294.930506 73.728485 
L 295.736734 78.609293 
L 296.542961 61.526465 
L 297.349189 78.609293 
L 298.155417 76.168889 
L 298.961645 76.168889 
L 299.767873 81.049697 
L 300.574101 66.407273 
L 301.380329 61.526465 
L 302.186557 73.728485 
L 302.992785 66.407273 
L 303.799013 66.407273 
L 304.605241 78.609293 
L 305.411469 68.847677 
L 306.217696 66.407273 
L 307.023924 88.370909 
L 307.830152 63.966869 
L 308.63638 71.288081 
L 310.248836 46.88404 
L 311.055064 76.168889 
L 311.861292 81.049697 
L 312.547845 67.795398 
L 312.547845 69.33979 
L 313.354073 71.288081 
L 314.160301 81.049697 
L 314.966529 66.407273 
L 315.772757 83.490101 
L 316.578985 61.526465 
L 317.385213 66.407273 
L 318.191441 85.930505 
L 318.997669 93.251717 
L 319.803897 73.728485 
L 320.610125 76.168889 
L 321.416352 68.847677 
L 322.22258 81.049697 
L 323.028808 66.407273 
L 323.835036 71.288081 
L 324.641264 71.288081 
L 325.447492 81.049697 
L 326.25372 66.407273 
L 327.059948 71.288081 
L 327.866176 61.526465 
L 328.672404 68.847677 
L 329.478632 68.847677 
L 330.28486 76.168889 
L 331.091087 56.645657 
L 331.897315 68.847677 
L 332.703543 68.847677 
L 333.509771 71.288081 
L 334.315999 76.168889 
L 335.122227 61.526465 
L 335.928455 59.086061 
L 336.734683 76.168889 
L 337.540911 81.049697 
L 338.347139 61.526465 
L 339.153367 63.966869 
L 339.959595 59.086061 
L 340.765822 78.609293 
L 341.57205 76.168889 
L 342.378278 66.407273 
L 343.064832 76.39278 
L 343.064832 71.402922 
L 343.87106 61.526465 
L 344.677288 73.728485 
L 345.483516 63.966869 
L 346.289743 71.288081 
L 347.095971 66.407273 
L 347.902199 59.086061 
L 348.708427 68.847677 
L 349.514655 76.168889 
L 350.320883 54.205253 
L 351.127111 66.407273 
L 351.933339 66.407273 
L 352.739567 68.847677 
L 353.545795 66.407273 
L 354.352023 68.847677 
L 355.158251 73.728485 
L 355.964478 76.168889 
L 356.770706 66.407273 
L 357.576934 71.288081 
L 358.383162 71.288081 
L 359.18939 73.728485 
L 359.995618 81.049697 
L 360.801846 54.205253 
L 361.608074 71.288081 
L 363.22053 56.645657 
L 364.832986 76.168889 
L 365.639213 66.407273 
L 368.864125 66.407273 
L 369.670353 95.692121 
L 370.476581 66.407273 
L 372.895265 66.407273 
L 373.581818 90.721757 
L 373.581818 68.824012 
L 373.581818 68.824012 
" style="fill:none;stroke:#0000b2;stroke-linecap:round;stroke-opacity:0.2;stroke-width:1.5;"/>
   </g>
   <g id="line2d_16">
    <path clip-path="url(#p58ec711af8)" d="M 69.218182 215.271919 
L 70.02441 203.069899 
L 70.830638 198.189091 
L 71.636866 210.391111 
L 72.443093 188.427475 
L 73.249321 190.867879 
L 74.055549 198.189091 
L 74.861777 188.427475 
L 75.668005 203.069899 
L 76.474233 159.142626 
L 77.280461 151.821414 
L 78.086689 156.702222 
L 78.892917 149.38101 
L 79.699145 117.655758 
L 81.311601 146.940606 
L 82.117829 120.096162 
L 82.924056 117.655758 
L 83.730284 107.894141 
L 84.536512 120.096162 
L 85.34274 115.215354 
L 86.148968 122.536566 
L 87.761424 98.132525 
L 88.567652 100.572929 
L 89.37388 98.132525 
L 90.986336 103.013333 
L 91.792564 83.490101 
L 92.598791 85.930505 
L 93.405019 83.490101 
L 94.211247 66.407273 
L 95.017475 98.132525 
L 95.823703 93.251717 
L 96.629931 103.013333 
L 97.436159 73.728485 
L 98.242387 88.370909 
L 98.92894 64.929591 
L 98.92894 130.911509 
L 99.735168 83.490101 
L 100.541396 68.847677 
L 101.347624 83.490101 
L 102.153852 68.847677 
L 102.96008 73.728485 
L 103.766308 76.168889 
L 104.572536 81.049697 
L 105.378764 66.407273 
L 106.184992 81.049697 
L 106.99122 81.049697 
L 107.797447 78.609293 
L 108.603675 83.490101 
L 109.409903 83.490101 
L 110.216131 85.930505 
L 111.022359 78.609293 
L 111.828587 95.692121 
L 112.634815 85.930505 
L 113.441043 78.609293 
L 114.247271 76.168889 
L 115.053499 76.168889 
L 115.859727 83.490101 
L 116.665955 76.168889 
L 117.472182 93.251717 
L 118.27841 68.847677 
L 119.890866 88.370909 
L 120.697094 78.609293 
L 121.503322 78.609293 
L 122.30955 76.168889 
L 123.115778 88.370909 
L 123.922006 78.609293 
L 124.728234 83.490101 
L 125.534462 66.407273 
L 126.34069 56.645657 
L 127.146917 78.609293 
L 127.953145 66.407273 
L 128.759373 73.728485 
L 129.445927 70.661186 
L 129.445927 78.237066 
L 130.252155 81.049697 
L 131.058383 71.288081 
L 132.670838 56.645657 
L 133.477066 78.609293 
L 134.283294 83.490101 
L 135.089522 81.049697 
L 135.89575 61.526465 
L 137.508206 90.811313 
L 138.314434 73.728485 
L 139.120662 78.609293 
L 139.92689 71.288081 
L 141.539346 66.407273 
L 142.345573 76.168889 
L 143.151801 68.847677 
L 143.958029 66.407273 
L 144.764257 68.847677 
L 145.570485 88.370909 
L 146.376713 85.930505 
L 147.989169 71.288081 
L 148.795397 54.205253 
L 149.601625 83.490101 
L 150.407853 63.966869 
L 151.214081 73.728485 
L 152.020308 68.847677 
L 152.826536 71.288081 
L 153.632764 66.407273 
L 154.438992 66.407273 
L 155.24522 73.728485 
L 156.051448 66.407273 
L 156.857676 66.407273 
L 157.663904 81.049697 
L 158.470132 59.086061 
L 159.27636 73.728485 
L 159.962913 56.332209 
L 159.962913 71.983177 
L 160.769141 73.728485 
L 161.575369 63.966869 
L 162.381597 76.168889 
L 163.994053 61.526465 
L 164.800281 78.609293 
L 165.606509 63.966869 
L 166.412737 83.490101 
L 167.218964 71.288081 
L 168.025192 63.966869 
L 168.83142 66.407273 
L 169.637648 66.407273 
L 170.443876 78.609293 
L 171.250104 59.086061 
L 172.056332 73.728485 
L 172.86256 78.609293 
L 173.668788 88.370909 
L 175.281244 59.086061 
L 176.087472 71.288081 
L 176.893699 59.086061 
L 178.506155 68.847677 
L 179.312383 83.490101 
L 180.118611 76.168889 
L 180.924839 63.966869 
L 181.731067 90.811313 
L 182.537295 73.728485 
L 183.343523 73.728485 
L 184.149751 63.966869 
L 184.955979 61.526465 
L 185.762207 68.847677 
L 186.568434 81.049697 
L 187.374662 66.407273 
L 188.18089 71.288081 
L 188.987118 71.288081 
L 189.793346 66.407273 
L 190.4799 73.526992 
L 190.4799 71.016079 
L 191.286128 68.847677 
L 192.092355 63.966869 
L 192.898583 76.168889 
L 193.704811 76.168889 
L 194.511039 73.728485 
L 195.317267 63.966869 
L 196.123495 76.168889 
L 196.929723 76.168889 
L 197.735951 66.407273 
L 198.542179 76.168889 
L 199.348407 61.526465 
L 200.154635 54.205253 
L 200.960863 76.168889 
L 201.76709 61.526465 
L 203.379546 71.288081 
L 204.185774 81.049697 
L 204.992002 56.645657 
L 205.79823 66.407273 
L 206.604458 61.526465 
L 207.410686 61.526465 
L 208.216914 76.168889 
L 209.023142 56.645657 
L 209.82937 71.288081 
L 210.635598 76.168889 
L 211.441825 61.526465 
L 212.248053 59.086061 
L 213.054281 76.168889 
L 213.860509 78.609293 
L 214.666737 93.251717 
L 215.472965 68.847677 
L 216.279193 68.847677 
L 217.085421 73.728485 
L 217.891649 71.288081 
L 218.697877 78.609293 
L 219.504105 83.490101 
L 220.310333 63.966869 
L 220.996886 62.063803 
L 220.996886 69.920045 
L 221.803114 61.526465 
L 222.609342 61.526465 
L 223.41557 73.728485 
L 224.221798 68.847677 
L 225.028026 61.526465 
L 225.834254 71.288081 
L 226.640481 61.526465 
L 227.446709 68.847677 
L 228.252937 63.966869 
L 229.059165 68.847677 
L 229.865393 59.086061 
L 230.671621 81.049697 
L 231.477849 81.049697 
L 232.284077 71.288081 
L 233.090305 73.728485 
L 234.702761 73.728485 
L 235.508989 85.930505 
L 237.121444 66.407273 
L 237.927672 73.728485 
L 238.7339 61.526465 
L 239.540128 66.407273 
L 240.346356 59.086061 
L 241.152584 78.609293 
L 241.958812 66.407273 
L 242.76504 83.490101 
L 243.571268 59.086061 
L 244.377496 85.930505 
L 245.183724 66.407273 
L 245.989951 81.049697 
L 247.602407 51.764848 
L 248.408635 73.728485 
L 249.214863 63.966869 
L 250.021091 56.645657 
L 250.827319 71.288081 
L 251.513872 73.526992 
L 251.513872 69.533203 
L 252.3201 63.966869 
L 253.126328 88.370909 
L 253.932556 59.086061 
L 254.738784 68.847677 
L 255.545012 59.086061 
L 256.35124 66.407273 
L 257.157468 81.049697 
L 257.963696 78.609293 
L 259.576152 63.966869 
L 260.38238 61.526465 
L 261.188607 81.049697 
L 261.994835 78.609293 
L 263.607291 63.966869 
L 264.413519 63.966869 
L 265.219747 68.847677 
L 266.025975 76.168889 
L 266.832203 71.288081 
L 267.638431 63.966869 
L 268.444659 71.288081 
L 269.250887 61.526465 
L 270.057115 68.847677 
L 270.863343 81.049697 
L 271.66957 63.966869 
L 272.475798 73.728485 
L 273.282026 66.407273 
L 274.894482 71.288081 
L 275.70071 71.288081 
L 276.506938 63.966869 
L 277.313166 54.205253 
L 278.119394 63.966869 
L 278.925622 63.966869 
L 279.73185 68.847677 
L 280.538078 76.168889 
L 281.344305 71.288081 
L 282.030859 70.661186 
L 282.030859 69.275313 
L 282.837087 68.847677 
L 283.643315 61.526465 
L 284.449543 66.407273 
L 285.255771 54.205253 
L 286.061998 56.645657 
L 286.868226 63.966869 
L 287.674454 73.728485 
L 288.480682 63.966869 
L 289.28691 66.407273 
L 290.093138 66.407273 
L 290.899366 71.288081 
L 291.705594 63.966869 
L 292.511822 68.847677 
L 294.930506 54.205253 
L 295.736734 68.847677 
L 296.542961 56.645657 
L 297.349189 66.407273 
L 298.155417 81.049697 
L 298.961645 61.526465 
L 299.767873 68.847677 
L 300.574101 73.728485 
L 301.380329 76.168889 
L 302.186557 76.168889 
L 302.992785 71.288081 
L 303.799013 68.847677 
L 304.605241 63.966869 
L 305.411469 68.847677 
L 306.217696 78.609293 
L 307.023924 61.526465 
L 307.830152 66.407273 
L 308.63638 81.049697 
L 309.442608 71.288081 
L 310.248836 83.490101 
L 311.055064 73.728485 
L 311.861292 81.049697 
L 312.547845 67.795398 
L 312.547845 68.17928 
L 313.354073 66.407273 
L 314.160301 59.086061 
L 314.966529 68.847677 
L 315.772757 61.526465 
L 316.578985 61.526465 
L 317.385213 78.609293 
L 318.191441 61.526465 
L 318.997669 63.966869 
L 319.803897 78.609293 
L 320.610125 61.526465 
L 321.416352 73.728485 
L 322.22258 59.086061 
L 323.028808 61.526465 
L 324.641264 76.168889 
L 325.447492 66.407273 
L 326.25372 66.407273 
L 327.059948 76.168889 
L 327.866176 68.847677 
L 328.672404 78.609293 
L 329.478632 59.086061 
L 330.28486 63.966869 
L 331.091087 76.168889 
L 331.897315 71.288081 
L 332.703543 71.288081 
L 333.509771 81.049697 
L 334.315999 54.205253 
L 335.122227 68.847677 
L 335.928455 85.930505 
L 336.734683 56.645657 
L 337.540911 66.407273 
L 338.347139 63.966869 
L 339.153367 63.966869 
L 339.959595 61.526465 
L 340.765822 61.526465 
L 341.57205 56.645657 
L 342.378278 81.049697 
L 343.064832 64.929591 
L 343.064832 67.534548 
L 343.87106 76.168889 
L 344.677288 61.526465 
L 346.289743 66.407273 
L 347.095971 61.526465 
L 347.902199 66.407273 
L 348.708427 63.966869 
L 349.514655 68.847677 
L 350.320883 63.966869 
L 351.127111 66.407273 
L 351.933339 76.168889 
L 352.739567 63.966869 
L 353.545795 49.324444 
L 354.352023 56.645657 
L 355.158251 71.288081 
L 355.964478 66.407273 
L 356.770706 63.966869 
L 358.383162 68.847677 
L 359.18939 76.168889 
L 359.995618 61.526465 
L 360.801846 59.086061 
L 361.608074 68.847677 
L 362.414302 76.168889 
L 363.22053 81.049697 
L 364.832986 56.645657 
L 365.639213 73.728485 
L 366.445441 81.049697 
L 367.251669 71.288081 
L 368.057897 68.847677 
L 368.864125 61.526465 
L 370.476581 61.526465 
L 371.282809 63.966869 
L 372.089037 78.609293 
L 372.895265 56.645657 
L 373.581818 70.661186 
L 373.581818 66.825339 
L 373.581818 66.825339 
" style="fill:none;stroke:#00b200;stroke-linecap:round;stroke-opacity:0.2;stroke-width:1.5;"/>
   </g>
   <g id="line2d_17">
    <path clip-path="url(#p58ec711af8)" d="M 69.218182 176.225455 
L 70.02441 175.249293 
L 70.830638 172.51604 
L 71.636866 173.746004 
L 72.443093 178.146541 
L 73.249321 171.905354 
L 74.055549 169.352808 
L 74.861777 162.429964 
L 75.668005 156.891688 
L 76.474233 153.437229 
L 77.280461 148.233258 
L 78.086689 144.070081 
L 78.892917 146.108429 
L 79.699145 145.786783 
L 80.505373 142.600982 
L 81.311601 137.611937 
L 82.117829 130.692217 
L 82.924056 129.549167 
L 83.730284 127.658566 
L 84.536512 126.634166 
L 86.148968 116.666424 
L 86.955196 113.447725 
L 87.761424 108.432362 
L 88.567652 106.860475 
L 89.37388 107.067208 
L 90.180108 105.768353 
L 91.792564 108.778808 
L 92.598791 106.161471 
L 93.405019 106.996086 
L 94.211247 106.199535 
L 95.823703 105.052503 
L 96.629931 101.228103 
L 97.436159 99.632826 
L 98.242387 96.892362 
L 98.92894 96.80456 
L 98.92894 102.052809 
L 99.735168 96.387944 
L 100.541396 92.344133 
L 101.347624 92.037569 
L 102.153852 93.744641 
L 102.96008 93.157976 
L 103.766308 91.224401 
L 104.572536 90.165622 
L 105.378764 90.29476 
L 106.184992 89.90999 
L 106.99122 87.16177 
L 107.797447 89.355921 
L 108.603675 90.623161 
L 109.409903 92.125034 
L 110.216131 94.790774 
L 111.022359 89.602155 
L 111.828587 87.403583 
L 112.634815 87.597048 
L 113.441043 86.775658 
L 115.859727 84.684226 
L 116.665955 82.981158 
L 117.472182 81.618704 
L 118.27841 79.55258 
L 119.084638 78.387761 
L 119.890866 76.479744 
L 120.697094 77.393735 
L 121.503322 75.196442 
L 122.30955 75.390932 
L 123.115778 76.522685 
L 124.728234 76.395318 
L 125.534462 78.790436 
L 126.34069 81.682693 
L 127.146917 85.46074 
L 127.953145 84.09045 
L 128.759373 82.994219 
L 129.445927 84.539727 
L 129.445927 84.336553 
L 130.252155 82.70302 
L 131.058383 81.396194 
L 131.864611 80.350733 
L 132.670838 77.07396 
L 133.477066 77.869107 
L 134.283294 78.993306 
L 135.089522 78.916503 
L 135.89575 74.462334 
L 136.701978 75.291726 
L 137.508206 76.44332 
L 138.314434 76.388434 
L 139.120662 76.832606 
L 139.92689 77.676024 
L 140.733118 75.422274 
L 141.539346 78.012001 
L 142.345573 78.61954 
L 143.151801 78.617491 
L 143.958029 77.639689 
L 144.764257 76.369368 
L 145.570485 79.745838 
L 146.376713 77.566205 
L 147.182941 76.310581 
L 147.989169 78.722646 
L 148.795397 77.723814 
L 149.601625 77.412829 
L 150.407853 76.187879 
L 151.214081 80.576809 
L 152.020308 75.790578 
L 152.826536 74.401998 
L 153.632764 75.731538 
L 154.438992 75.330927 
L 156.051448 76.511139 
L 156.857676 77.906931 
L 157.663904 79.999727 
L 159.27636 74.618363 
L 159.962913 74.973246 
L 159.962913 75.264962 
L 160.769141 74.469585 
L 161.575369 76.273689 
L 162.381597 73.812325 
L 163.187825 75.74788 
L 163.994053 77.296324 
L 164.800281 75.606595 
L 165.606509 77.183296 
L 166.412737 75.516172 
L 167.218964 76.622877 
L 168.025192 77.508241 
L 168.83142 75.776128 
L 169.637648 77.318923 
L 170.443876 77.088916 
L 171.250104 73.976426 
L 172.056332 72.950676 
L 172.86256 72.618157 
L 173.668788 70.887899 
L 174.475016 72.920259 
L 175.281244 74.058066 
L 176.087472 73.015988 
L 176.893699 73.646568 
L 177.699927 72.198709 
L 178.506155 71.528503 
L 179.312383 75.385065 
L 180.118611 74.565668 
L 180.924839 73.42207 
L 181.731067 72.995272 
L 182.537295 72.165753 
L 183.343523 72.96638 
L 184.149751 71.166478 
L 184.955979 70.702718 
L 185.762207 68.867467 
L 187.374662 69.738888 
L 188.18089 69.560646 
L 188.987118 70.882294 
L 189.793346 70.963452 
L 190.4799 71.47616 
L 190.4799 71.796773 
L 191.286128 73.159277 
L 192.092355 73.273119 
L 192.898583 74.340354 
L 193.704811 73.729899 
L 194.511039 73.729616 
L 195.317267 74.705552 
L 196.123495 71.581653 
L 196.929723 70.546777 
L 197.735951 67.766553 
L 198.542179 72.375505 
L 199.348407 71.669939 
L 200.154635 73.545891 
L 200.960863 74.558571 
L 201.76709 72.440231 
L 202.573318 71.72172 
L 203.379546 72.611154 
L 204.185774 72.83462 
L 204.992002 76.918039 
L 205.79823 75.303967 
L 206.604458 75.476951 
L 207.410686 76.5915 
L 208.216914 73.578493 
L 209.023142 73.608492 
L 209.82937 74.120571 
L 210.635598 73.554073 
L 211.441825 71.148551 
L 212.248053 71.176457 
L 213.054281 72.174944 
L 213.860509 70.533329 
L 214.666737 70.196198 
L 216.279193 68.832185 
L 217.891649 67.959217 
L 218.697877 71.553474 
L 219.504105 71.500396 
L 220.310333 66.089044 
L 220.996886 68.149791 
L 220.996886 68.86489 
L 221.803114 68.861448 
L 222.609342 72.275259 
L 223.41557 72.077823 
L 224.221798 71.431794 
L 225.028026 71.403051 
L 225.834254 73.332381 
L 226.640481 72.43544 
L 227.446709 74.646372 
L 228.252937 73.486633 
L 229.059165 74.023084 
L 229.865393 72.011841 
L 230.671621 71.379008 
L 231.477849 74.289308 
L 232.284077 70.760577 
L 233.090305 69.889916 
L 233.896533 69.193388 
L 234.702761 66.683841 
L 235.508989 67.604689 
L 236.315216 68.341368 
L 237.121444 67.466468 
L 237.927672 68.23079 
L 238.7339 67.866087 
L 239.540128 69.526647 
L 240.346356 70.367015 
L 241.152584 72.503551 
L 241.958812 73.236619 
L 242.76504 72.35883 
L 244.377496 71.094815 
L 245.183724 67.228822 
L 245.989951 68.528754 
L 246.796179 71.032943 
L 247.602407 69.131647 
L 248.408635 67.610611 
L 249.214863 69.322266 
L 250.021091 69.715429 
L 250.827319 69.053798 
L 251.513872 71.667913 
L 251.513872 71.498864 
L 252.3201 72.92095 
L 253.126328 71.618214 
L 253.932556 71.064107 
L 254.738784 72.573144 
L 255.545012 69.875727 
L 256.35124 69.670117 
L 257.157468 71.946033 
L 257.963696 73.766766 
L 258.769924 74.247191 
L 259.576152 71.214965 
L 260.38238 70.741507 
L 261.188607 71.826983 
L 261.994835 72.695364 
L 262.801063 71.925827 
L 263.607291 69.845954 
L 264.413519 68.670137 
L 265.219747 69.681807 
L 266.025975 70.979223 
L 266.832203 71.529076 
L 267.638431 70.504715 
L 268.444659 68.709065 
L 269.250887 69.224868 
L 270.057115 67.197107 
L 270.863343 64.110655 
L 271.66957 65.54614 
L 272.475798 69.134932 
L 274.088254 68.152975 
L 274.894482 68.291915 
L 275.70071 69.379229 
L 276.506938 72.201404 
L 277.313166 72.50682 
L 278.119394 75.191557 
L 278.925622 72.946619 
L 279.73185 72.126831 
L 280.538078 69.518677 
L 281.344305 68.408315 
L 282.030859 70.065544 
L 282.837087 69.33389 
L 283.643315 70.70089 
L 284.449543 68.377924 
L 285.255771 69.448036 
L 286.061998 67.863722 
L 286.868226 67.572432 
L 288.480682 68.910066 
L 289.28691 70.36183 
L 290.093138 68.594757 
L 290.899366 68.15726 
L 292.511822 72.408073 
L 293.31805 72.184074 
L 294.124278 71.516795 
L 294.930506 70.49489 
L 295.736734 69.677367 
L 296.542961 70.975671 
L 297.349189 71.526234 
L 298.155417 69.52628 
L 298.961645 70.854802 
L 299.767873 69.477215 
L 300.574101 69.839388 
L 301.380329 67.688723 
L 302.186557 71.82516 
L 302.992785 71.717744 
L 303.799013 70.65565 
L 304.605241 72.734459 
L 305.411469 70.49286 
L 306.217696 70.163824 
L 307.023924 74.293322 
L 307.830152 71.251869 
L 308.63638 71.259112 
L 309.442608 72.241067 
L 310.248836 69.121985 
L 311.055064 69.555204 
L 312.547845 65.8087 
L 312.547845 66.579391 
L 313.354073 64.104563 
L 314.160301 64.565105 
L 314.966529 66.885862 
L 315.772757 70.694791 
L 317.385213 70.908375 
L 318.191441 67.07967 
L 319.803897 67.716152 
L 320.610125 65.990134 
L 322.22258 67.018849 
L 323.028808 67.384615 
L 323.835036 71.093793 
L 324.641264 71.13265 
L 325.447492 70.187575 
L 326.25372 70.407676 
L 327.059948 68.143353 
L 327.866176 69.260379 
L 328.672404 70.642081 
L 329.478632 71.259362 
L 330.28486 71.265106 
L 331.091087 72.245862 
L 331.897315 70.101983 
L 332.703543 72.779606 
L 333.509771 69.552816 
L 334.315999 70.38795 
L 335.122227 70.079895 
L 335.928455 70.809613 
L 336.734683 67.976822 
L 337.540911 69.127155 
L 338.347139 67.607017 
L 339.153367 66.390906 
L 339.959595 66.88226 
L 340.765822 69.227667 
L 341.57205 71.103992 
L 342.378278 70.652729 
L 343.064832 70.65442 
L 343.064832 70.430177 
L 343.87106 70.601758 
L 344.677288 70.250941 
L 345.483516 68.017965 
L 346.289743 67.207746 
L 347.095971 64.119166 
L 347.902199 65.064869 
L 348.708427 67.285673 
L 349.514655 71.50272 
L 350.320883 70.48363 
L 351.127111 71.132601 
L 351.933339 67.259051 
L 352.739567 68.064857 
L 353.545795 64.316774 
L 354.352023 67.175278 
L 355.158251 66.533596 
L 355.964478 68.460655 
L 356.770706 70.002302 
L 358.383162 69.586637 
L 359.18939 70.415006 
L 359.995618 71.077702 
L 360.801846 72.095939 
L 362.414302 71.80511 
L 363.22053 72.677866 
L 364.026758 69.471424 
L 364.832986 69.834755 
L 365.639213 68.661178 
L 366.445441 66.746155 
L 367.251669 70.583025 
L 368.057897 68.283632 
L 368.864125 69.372602 
L 369.670353 70.243779 
L 370.476581 69.964559 
L 371.282809 66.812697 
L 372.089037 67.219693 
L 372.895265 68.521452 
L 373.581818 70.095717 
L 373.581818 69.867163 
" style="fill:none;stroke:#b2331a;stroke-linecap:round;stroke-width:1.5;"/>
   </g>
   <g id="line2d_18">
    <path clip-path="url(#p58ec711af8)" d="M 69.218182 222.593131 
L 70.02441 212.831515 
L 70.830638 210.391111 
L 71.636866 216.736162 
L 72.443093 209.122101 
L 73.249321 209.375903 
L 74.055549 203.721975 
L 74.861777 195.782267 
L 75.668005 193.823228 
L 76.474233 195.184481 
L 77.280461 193.83308 
L 78.086689 192.263878 
L 78.892917 186.615789 
L 79.699145 185.025803 
L 80.505373 179.849168 
L 81.311601 175.707859 
L 82.117829 172.394813 
L 82.924056 167.792052 
L 83.730284 170.942975 
L 84.536512 172.975633 
L 85.34274 169.23287 
L 86.148968 166.72674 
L 86.955196 166.186079 
L 87.761424 160.872742 
L 88.567652 160.038638 
L 89.37388 158.395193 
L 90.180108 164.88973 
L 90.986336 165.692633 
L 91.792564 164.382631 
L 92.598791 166.751196 
L 94.211247 165.769202 
L 95.017475 165.420048 
L 95.823703 159.771837 
L 96.629931 157.693671 
L 97.436159 154.078816 
L 98.242387 154.115416 
L 98.92894 150.03407 
L 98.92894 154.229999 
L 99.735168 151.307878 
L 100.541396 148.970181 
L 101.347624 147.588105 
L 102.153852 147.458605 
L 102.96008 144.914601 
L 103.766308 138.486671 
L 104.572536 133.832407 
L 105.378764 134.501724 
L 106.184992 133.084854 
L 106.99122 129.510954 
L 107.797447 130.55648 
L 108.603675 131.880982 
L 109.409903 132.452503 
L 110.216131 132.421639 
L 111.022359 128.980382 
L 111.828587 129.155861 
L 112.634815 127.832002 
L 113.441043 128.237157 
L 114.247271 123.192392 
L 115.053499 121.108904 
L 115.859727 123.83484 
L 116.665955 120.15862 
L 117.472182 115.26532 
L 118.27841 108.910276 
L 119.890866 115.182367 
L 120.697094 114.700883 
L 121.503322 110.899131 
L 122.30955 110.298133 
L 123.115778 110.305415 
L 123.922006 106.406595 
L 124.728234 103.775619 
L 125.534462 102.15892 
L 126.34069 101.841722 
L 127.146917 99.63564 
L 127.953145 94.454209 
L 128.759373 96.166034 
L 129.445927 96.223497 
L 129.445927 100.182448 
L 130.252155 98.796302 
L 131.058383 96.711223 
L 131.864611 95.531241 
L 132.670838 93.123013 
L 133.477066 91.196431 
L 134.283294 90.143246 
L 135.089522 89.300698 
L 135.89575 87.162417 
L 136.701978 89.844519 
L 137.508206 94.430605 
L 138.314434 96.635232 
L 139.120662 98.398933 
L 139.92689 95.417166 
L 140.733118 94.007915 
L 141.539346 93.368595 
L 142.345573 89.440573 
L 143.151801 90.690882 
L 143.958029 92.667292 
L 144.764257 91.319934 
L 145.570485 87.313564 
L 146.376713 86.548871 
L 147.182941 82.032471 
L 147.989169 82.812078 
L 148.795397 84.411925 
L 150.407853 84.080068 
L 151.214081 83.473994 
L 152.020308 83.965296 
L 153.632764 82.91568 
L 154.438992 83.030565 
L 155.24522 79.705906 
L 156.051448 82.903149 
L 156.857676 83.02054 
L 157.663904 84.090613 
L 158.470132 81.530107 
L 159.27636 81.434025 
L 159.962913 79.852618 
L 159.962913 81.089753 
L 160.769141 83.034065 
L 161.575369 82.14911 
L 162.381597 78.024581 
L 163.187825 77.653443 
L 163.994053 75.89229 
L 164.800281 74.971448 
L 165.606509 76.675178 
L 166.412737 76.573921 
L 167.218964 77.957157 
L 168.025192 81.016069 
L 168.83142 82.975118 
L 169.637648 81.125791 
L 170.443876 80.134411 
L 171.250104 78.365145 
L 172.056332 74.509328 
L 172.86256 73.865078 
L 173.668788 75.790083 
L 174.475016 74.889683 
L 175.281244 79.05017 
L 176.087472 78.473914 
L 176.893699 78.989071 
L 177.699927 78.913115 
L 178.506155 77.876189 
L 179.312383 80.463214 
L 180.118611 82.044753 
L 180.924839 78.429176 
L 181.731067 77.489038 
L 182.537295 78.68925 
L 183.343523 76.720936 
L 184.149751 75.634365 
L 184.955979 75.74127 
L 185.762207 72.898309 
L 186.568434 76.480909 
L 187.374662 78.858909 
L 188.18089 78.808986 
L 188.987118 78.280967 
L 189.793346 75.906228 
L 190.4799 74.284062 
L 190.4799 74.868348 
L 191.286128 75.616537 
L 192.092355 77.19125 
L 192.898583 76.010616 
L 193.704811 75.066109 
L 194.511039 73.822422 
L 195.317267 71.363231 
L 196.929723 71.336177 
L 197.735951 72.302719 
L 198.542179 68.683226 
L 199.348407 70.180359 
L 200.154635 68.937661 
L 200.960863 67.455421 
L 201.76709 73.590842 
L 202.573318 72.154128 
L 203.379546 71.980919 
L 204.185774 69.890028 
L 204.992002 71.1458 
L 206.604458 77.444456 
L 208.216914 77.863797 
L 209.023142 74.10825 
L 209.82937 75.008458 
L 210.635598 71.823979 
L 211.441825 73.669122 
L 212.248053 74.169076 
L 213.054281 74.080958 
L 213.860509 72.546221 
L 214.666737 72.294593 
L 215.472965 71.117129 
L 216.279193 69.198996 
L 217.085421 71.081055 
L 217.891649 71.12246 
L 219.504105 74.305801 
L 220.310333 77.606903 
L 220.996886 76.790921 
L 220.996886 76.087265 
L 221.803114 76.591671 
L 222.609342 72.602468 
L 223.41557 71.363429 
L 224.221798 69.396036 
L 225.834254 72.322344 
L 226.640481 72.603572 
L 227.446709 71.852393 
L 228.252937 70.763369 
L 229.059165 70.868311 
L 229.865393 69.976104 
L 230.671621 73.655065 
L 231.477849 72.205506 
L 232.284077 73.486264 
L 233.090305 74.510869 
L 233.896533 72.402069 
L 234.702761 69.738868 
L 235.508989 70.04871 
L 236.315216 72.248908 
L 237.121444 71.568661 
L 237.927672 72.976788 
L 238.7339 73.615208 
L 239.540128 75.102106 
L 240.346356 73.85122 
L 241.152584 73.338592 
L 241.958812 71.464247 
L 242.76504 70.452852 
L 243.571268 71.107979 
L 244.377496 70.655919 
L 245.183724 68.830028 
L 245.989951 67.369315 
L 246.796179 68.641149 
L 247.602407 68.194374 
L 248.408635 69.301196 
L 249.214863 70.674735 
L 250.021091 69.821242 
L 250.827319 71.090772 
L 251.513872 71.578016 
L 251.513872 71.465628 
L 253.126328 77.161065 
L 253.932556 75.498387 
L 254.738784 75.144407 
L 255.545012 74.373142 
L 256.35124 72.291887 
L 257.157468 69.650722 
L 257.963696 70.954355 
L 259.576152 70.195951 
L 260.38238 69.926296 
L 261.188607 67.758249 
L 261.994835 66.999973 
L 262.801063 65.41719 
L 263.607291 67.56753 
L 264.413519 68.31164 
L 265.219747 68.418848 
L 266.025975 70.945017 
L 266.832203 70.037469 
L 267.638431 67.847187 
L 269.250887 73.966717 
L 270.057115 73.91907 
L 270.863343 71.440549 
L 271.66957 70.433894 
L 273.282026 71.619947 
L 274.088254 69.113169 
L 275.70071 68.139047 
L 276.506938 67.792692 
L 277.313166 68.49177 
L 278.119394 72.955678 
L 278.925622 71.157916 
L 279.73185 69.719707 
L 280.538078 70.521462 
L 281.344305 73.11519 
L 282.030859 72.624389 
L 282.030859 72.27694 
L 282.837087 72.567249 
L 283.643315 72.311415 
L 284.449543 70.154425 
L 285.255771 71.845399 
L 286.061998 70.269693 
L 286.868226 69.98529 
L 287.674454 66.829282 
L 288.480682 68.209123 
L 289.28691 66.38451 
L 290.093138 65.412901 
L 290.899366 67.564099 
L 291.705594 66.844653 
L 292.511822 65.292934 
L 293.31805 66.003883 
L 294.124278 67.060722 
L 294.930506 68.394275 
L 295.736734 70.437278 
L 296.542961 68.655116 
L 297.349189 70.645951 
L 298.155417 71.750539 
L 298.961645 72.634209 
L 299.767873 74.317306 
L 300.574101 72.7353 
L 301.380329 70.493533 
L 302.186557 71.140523 
L 302.992785 70.193873 
L 303.799013 69.436553 
L 304.605241 71.271101 
L 305.411469 70.786416 
L 306.217696 69.910587 
L 307.023924 73.602652 
L 307.830152 71.675495 
L 308.63638 71.598012 
L 309.442608 69.095622 
L 310.248836 64.653306 
L 311.055064 66.956422 
L 311.861292 69.775077 
L 312.547845 69.371271 
L 313.354073 69.754633 
L 314.160301 72.013646 
L 314.966529 70.892371 
L 315.772757 73.411917 
L 316.578985 71.034827 
L 317.385213 70.109316 
L 318.191441 73.273554 
L 318.997669 77.269186 
L 319.803897 76.561046 
L 320.610125 76.482615 
L 321.416352 74.955627 
L 322.22258 76.174441 
L 323.028808 74.221007 
L 324.641264 73.165154 
L 325.447492 74.742062 
L 326.25372 73.075105 
L 327.059948 72.7177 
L 327.866176 70.479453 
L 329.478632 69.892013 
L 330.28486 71.147388 
L 331.091087 68.247042 
L 332.703543 68.463271 
L 333.509771 69.028233 
L 334.315999 70.456364 
L 335.928455 66.753519 
L 336.734683 68.636593 
L 337.540911 71.119214 
L 338.347139 69.200664 
L 339.153367 68.153905 
L 339.959595 66.340336 
L 340.765822 68.794128 
L 341.57205 70.26908 
L 342.378278 69.496718 
L 343.064832 70.981329 
L 343.87106 69.090356 
L 344.677288 70.017982 
L 345.483516 68.807759 
L 346.289743 69.303824 
L 347.095971 68.724513 
L 347.902199 66.796823 
L 348.708427 67.206994 
L 349.514655 68.999373 
L 350.320883 66.040549 
L 351.933339 66.172569 
L 352.739567 66.707591 
L 353.545795 66.647527 
L 354.352023 67.087557 
L 355.158251 68.415743 
L 355.964478 69.966372 
L 356.770706 69.254552 
L 358.383162 69.986622 
L 359.18939 70.734995 
L 359.995618 72.797935 
L 360.801846 69.079399 
L 361.608074 69.521135 
L 362.414302 68.410282 
L 363.22053 66.057357 
L 364.026758 66.12734 
L 364.832986 68.13565 
L 366.445441 67.513434 
L 368.057897 67.115216 
L 368.864125 66.973627 
L 369.670353 72.717326 
L 370.476581 71.455315 
L 371.282809 70.445707 
L 372.089037 69.63802 
L 372.895265 68.991871 
L 373.581818 73.337848 
L 373.581818 72.435081 
L 373.581818 72.435081 
" style="fill:none;stroke:#0000b2;stroke-linecap:round;stroke-width:1.5;"/>
   </g>
   <g id="line2d_19">
    <path clip-path="url(#p58ec711af8)" d="M 69.218182 215.271919 
L 70.02441 212.831515 
L 70.830638 209.90303 
L 71.636866 210.000646 
L 72.443093 205.686012 
L 73.249321 202.722385 
L 74.055549 201.815727 
L 74.861777 199.138076 
L 75.668005 199.924441 
L 77.280461 183.778745 
L 78.892917 172.566954 
L 79.699145 161.584715 
L 80.505373 155.727408 
L 81.311601 153.970048 
L 82.924056 141.287368 
L 83.730284 134.608723 
L 85.34274 128.408039 
L 86.148968 127.233744 
L 86.955196 123.853905 
L 87.761424 118.709629 
L 89.37388 111.692336 
L 90.180108 109.468455 
L 90.986336 108.17743 
L 91.792564 103.239965 
L 93.405019 96.520478 
L 94.211247 90.497837 
L 95.017475 92.024775 
L 95.823703 92.270163 
L 96.629931 94.418797 
L 97.436159 90.280735 
L 98.242387 89.89877 
L 98.92894 84.904934 
L 98.92894 94.106249 
L 99.735168 91.983019 
L 100.541396 87.355951 
L 101.347624 86.582781 
L 102.153852 83.03576 
L 102.96008 81.174305 
L 103.766308 80.173222 
L 104.572536 80.348517 
L 105.378764 77.560268 
L 106.99122 78.816462 
L 107.797447 78.775029 
L 108.603675 79.718043 
L 109.409903 80.472455 
L 110.216131 81.564065 
L 111.022359 80.97311 
L 111.828587 83.916913 
L 112.634815 84.319631 
L 113.441043 83.177563 
L 114.247271 81.775829 
L 115.053499 80.654441 
L 115.859727 81.221573 
L 116.665955 80.211036 
L 117.472182 82.819172 
L 118.27841 80.024873 
L 119.084638 79.741757 
L 119.890866 81.467587 
L 121.503322 80.438601 
L 122.30955 79.584659 
L 123.115778 81.341909 
L 123.922006 80.795386 
L 124.728234 81.334329 
L 125.534462 78.348918 
L 126.34069 74.008265 
L 127.146917 74.928471 
L 127.953145 73.224231 
L 128.759373 73.325082 
L 129.445927 72.792303 
L 129.445927 73.881255 
L 130.252155 75.314944 
L 131.058383 74.509571 
L 131.864611 72.401031 
L 132.670838 69.249956 
L 133.477066 71.121823 
L 134.283294 73.595479 
L 135.089522 75.086322 
L 135.89575 72.374351 
L 136.701978 73.133258 
L 137.508206 76.668869 
L 138.314434 76.080792 
L 139.120662 76.586493 
L 139.92689 75.52681 
L 140.733118 74.190984 
L 141.539346 72.634241 
L 142.345573 73.341171 
L 143.151801 72.442472 
L 143.958029 71.235432 
L 144.764257 70.757881 
L 145.570485 74.280487 
L 146.376713 76.61049 
L 147.182941 77.010251 
L 147.989169 75.865817 
L 148.795397 71.533704 
L 149.601625 73.924983 
L 150.407853 71.93336 
L 151.214081 72.292385 
L 152.020308 71.603444 
L 152.826536 71.540371 
L 153.632764 70.513751 
L 154.438992 69.692456 
L 155.24522 70.499661 
L 156.051448 69.681184 
L 156.857676 69.026402 
L 157.663904 71.431061 
L 158.470132 68.962061 
L 159.27636 69.915345 
L 159.962913 67.198718 
L 159.962913 68.15561 
L 160.769141 69.270185 
L 161.575369 68.209522 
L 162.381597 69.801395 
L 163.187825 69.610651 
L 163.994053 67.993814 
L 164.800281 70.11691 
L 165.606509 68.886902 
L 166.412737 71.807541 
L 167.218964 71.703649 
L 168.025192 70.156293 
L 169.637648 68.806646 
L 170.443876 70.767175 
L 171.250104 68.430952 
L 172.056332 69.490459 
L 172.86256 71.314226 
L 173.668788 74.725562 
L 174.475016 74.526147 
L 175.281244 71.43813 
L 176.087472 71.40812 
L 176.893699 68.943708 
L 177.699927 67.94834 
L 178.506155 68.128207 
L 179.312383 71.200586 
L 180.118611 72.194247 
L 180.924839 70.548771 
L 181.731067 74.60128 
L 183.343523 74.287073 
L 184.955979 70.083719 
L 185.762207 69.83651 
L 186.568434 72.079148 
L 187.374662 70.944773 
L 188.987118 71.068364 
L 189.793346 70.136145 
L 190.4799 70.854668 
L 191.286128 70.453269 
L 192.092355 69.155989 
L 192.898583 70.558569 
L 193.704811 71.680633 
L 194.511039 72.090203 
L 195.317267 70.465537 
L 196.123495 71.606207 
L 196.929723 72.518743 
L 197.735951 71.296449 
L 198.542179 72.270937 
L 199.348407 70.122043 
L 200.154635 66.938685 
L 200.960863 68.784725 
L 201.76709 67.333073 
L 202.573318 67.147913 
L 203.379546 67.975947 
L 204.185774 70.590697 
L 204.992002 67.801689 
L 205.79823 67.522806 
L 206.604458 66.323537 
L 207.410686 65.364123 
L 208.216914 67.525076 
L 209.023142 65.349192 
L 209.82937 66.53697 
L 210.635598 68.463354 
L 212.248053 65.477993 
L 213.860509 69.814796 
L 214.666737 74.50218 
L 215.472965 73.37128 
L 216.279193 72.466559 
L 217.085421 72.718944 
L 217.891649 72.432772 
L 218.697877 73.668076 
L 219.504105 75.632481 
L 220.996886 71.052247 
L 220.996886 70.825807 
L 221.803114 68.965939 
L 222.609342 67.478044 
L 223.41557 68.728132 
L 224.221798 68.752041 
L 225.028026 67.306926 
L 225.834254 68.103157 
L 226.640481 66.787818 
L 227.446709 67.19979 
L 228.252937 66.553206 
L 229.059165 67.0121 
L 229.865393 65.426892 
L 230.671621 68.551453 
L 231.477849 71.051102 
L 232.284077 71.098498 
L 233.896533 72.045293 
L 234.702761 72.381931 
L 235.508989 75.091646 
L 236.315216 75.307095 
L 237.121444 73.52713 
L 237.927672 73.567401 
L 238.7339 71.159214 
L 239.540128 70.208826 
L 240.346356 67.984273 
L 241.152584 70.109277 
L 241.958812 69.368876 
L 242.76504 72.193121 
L 243.571268 69.571709 
L 244.377496 72.843468 
L 245.183724 71.556229 
L 245.989951 73.454923 
L 246.796179 72.045393 
L 247.602407 67.989284 
L 248.408635 69.137124 
L 249.214863 68.103073 
L 250.021091 65.81159 
L 250.827319 66.906888 
L 251.513872 68.230909 
L 251.513872 68.491368 
L 252.3201 67.586468 
L 253.126328 71.743356 
L 253.932556 69.211897 
L 254.738784 69.139053 
L 255.545012 67.128454 
L 256.35124 66.984218 
L 257.157468 69.797314 
L 257.963696 71.55971 
L 258.769924 71.505384 
L 260.38238 68.303438 
L 261.188607 70.852689 
L 261.994835 72.40401 
L 262.801063 72.180824 
L 263.607291 70.538033 
L 264.413519 69.2238 
L 265.219747 69.148576 
L 266.025975 70.552638 
L 266.832203 70.699727 
L 267.638431 69.353155 
L 268.444659 69.74014 
L 269.250887 68.097405 
L 270.057115 68.247459 
L 270.863343 70.807907 
L 271.66957 69.439699 
L 272.475798 70.297456 
L 273.282026 69.51942 
L 274.088254 69.385071 
L 275.70071 70.070155 
L 276.506938 68.849497 
L 277.313166 65.920648 
L 278.925622 65.217288 
L 279.73185 65.943366 
L 280.538078 67.98847 
L 281.344305 68.648392 
L 282.030859 69.095823 
L 282.837087 69.046194 
L 283.643315 67.542248 
L 284.449543 67.315253 
L 285.255771 64.693253 
L 286.061998 63.083734 
L 286.868226 63.260361 
L 287.674454 65.353986 
L 288.480682 65.076562 
L 290.093138 65.555618 
L 290.899366 66.702111 
L 291.705594 66.155062 
L 292.511822 66.693585 
L 293.31805 66.148242 
L 294.124278 64.735806 
L 294.930506 62.629695 
L 295.736734 63.873291 
L 296.542961 62.427764 
L 297.349189 63.223666 
L 298.155417 66.788872 
L 298.961645 65.736391 
L 299.767873 66.358648 
L 302.186557 70.833674 
L 302.992785 70.924555 
L 303.799013 70.50918 
L 304.605241 69.200717 
L 305.411469 69.130109 
L 306.217696 71.025946 
L 307.023924 69.12605 
L 307.830152 68.582294 
L 308.63638 71.075775 
L 309.442608 71.118236 
L 310.248836 73.592609 
L 311.055064 73.619784 
L 311.861292 75.105767 
L 312.547845 73.643693 
L 312.547845 72.55081 
L 313.354073 71.322103 
L 314.160301 68.874894 
L 314.966529 68.869451 
L 315.772757 67.400854 
L 316.578985 66.225976 
L 317.385213 68.702639 
L 318.191441 67.267404 
L 318.997669 66.607297 
L 319.803897 69.007696 
L 320.610125 67.51145 
L 321.416352 68.754857 
L 322.22258 66.821098 
L 323.028808 65.762171 
L 323.835036 66.379272 
L 324.641264 68.337196 
L 326.25372 67.642423 
L 327.059948 69.347716 
L 327.866176 69.247709 
L 328.672404 71.120025 
L 329.478632 68.713232 
L 330.28486 67.76396 
L 331.091087 69.444946 
L 332.703543 70.108474 
L 333.509771 72.296719 
L 334.315999 68.678426 
L 335.122227 68.712276 
L 335.928455 72.155922 
L 336.734683 69.053869 
L 337.540911 68.524549 
L 338.347139 67.613013 
L 339.153367 66.883784 
L 339.959595 65.81232 
L 340.765822 64.955149 
L 341.57205 63.293251 
L 342.378278 66.84454 
L 343.064832 66.46155 
L 343.064832 66.67615 
L 343.87106 68.574698 
L 344.677288 67.165051 
L 345.483516 66.525415 
L 346.289743 66.501786 
L 347.095971 65.506722 
L 347.902199 65.686832 
L 348.708427 65.342839 
L 349.514655 66.043807 
L 350.320883 65.628419 
L 351.127111 65.78419 
L 351.933339 67.86113 
L 352.739567 67.082278 
L 353.545795 63.530711 
L 354.352023 62.1537 
L 355.158251 63.980576 
L 355.964478 64.465915 
L 356.770706 64.366106 
L 357.576934 64.774339 
L 358.383162 65.589007 
L 359.18939 67.704983 
L 359.995618 66.46928 
L 360.801846 64.992636 
L 361.608074 65.763644 
L 362.414302 67.844693 
L 363.22053 70.485694 
L 364.026758 70.15809 
L 364.832986 67.455604 
L 365.639213 68.71018 
L 366.445441 71.178083 
L 367.251669 71.200083 
L 368.057897 70.729602 
L 368.864125 68.888974 
L 369.670353 67.416472 
L 370.476581 66.238471 
L 371.282809 65.78415 
L 372.089037 68.349179 
L 372.895265 66.008474 
L 373.581818 66.939017 
L 373.581818 66.916281 
" style="fill:none;stroke:#00b200;stroke-linecap:round;stroke-width:1.5;"/>
   </g>
   <g id="patch_3">
    <path d="M 54 252 
L 54 34.56 
" style="fill:none;stroke:#ffffff;stroke-linecap:square;stroke-linejoin:miter;stroke-width:1.25;"/>
   </g>
   <g id="patch_4">
    <path d="M 388.8 252 
L 388.8 34.56 
" style="fill:none;stroke:#ffffff;stroke-linecap:square;stroke-linejoin:miter;stroke-width:1.25;"/>
   </g>
   <g id="patch_5">
    <path d="M 54 252 
L 388.8 252 
" style="fill:none;stroke:#ffffff;stroke-linecap:square;stroke-linejoin:miter;stroke-width:1.25;"/>
   </g>
   <g id="patch_6">
    <path d="M 54 34.56 
L 388.8 34.56 
" style="fill:none;stroke:#ffffff;stroke-linecap:square;stroke-linejoin:miter;stroke-width:1.25;"/>
   </g>
   <g id="legend_1">
    <g id="patch_7">
     <path d="M 227.627656 246.5 
L 381.1 246.5 
Q 383.3 246.5 383.3 244.3 
L 383.3 198.4575 
Q 383.3 196.2575 381.1 196.2575 
L 227.627656 196.2575 
Q 225.427656 196.2575 225.427656 198.4575 
L 225.427656 244.3 
Q 225.427656 246.5 227.627656 246.5 
z
" style="fill:#eaeaf2;opacity:0.8;stroke:#cccccc;stroke-linejoin:miter;"/>
    </g>
    <g id="line2d_20">
     <path d="M 229.827656 204.681094 
L 251.827656 204.681094 
" style="fill:none;stroke:#b2331a;stroke-linecap:round;stroke-width:1.5;"/>
    </g>
    <g id="line2d_21"/>
    <g id="text_14">
     <!-- MLP + TAS Walks -->
     <defs>
      <path d="M 7.421875 0 
L 7.421875 71.578125 
L 21.6875 71.578125 
L 38.625 20.90625 
Q 40.96875 13.8125 42.046875 10.296875 
Q 43.265625 14.203125 45.84375 21.78125 
L 62.984375 71.578125 
L 75.734375 71.578125 
L 75.734375 0 
L 66.609375 0 
L 66.609375 59.90625 
L 45.796875 0 
L 37.25 0 
L 16.546875 60.9375 
L 16.546875 0 
z
" id="ArialMT-77"/>
      <path d="M 7.328125 0 
L 7.328125 71.578125 
L 16.796875 71.578125 
L 16.796875 8.453125 
L 52.046875 8.453125 
L 52.046875 0 
z
" id="ArialMT-76"/>
      <path d="M 7.71875 0 
L 7.71875 71.578125 
L 34.71875 71.578125 
Q 41.84375 71.578125 45.609375 70.90625 
Q 50.875 70.015625 54.4375 67.546875 
Q 58.015625 65.09375 60.1875 60.640625 
Q 62.359375 56.203125 62.359375 50.875 
Q 62.359375 41.75 56.546875 35.421875 
Q 50.734375 29.109375 35.546875 29.109375 
L 17.1875 29.109375 
L 17.1875 0 
z
M 17.1875 37.546875 
L 35.6875 37.546875 
Q 44.875 37.546875 48.734375 40.96875 
Q 52.59375 44.390625 52.59375 50.59375 
Q 52.59375 55.078125 50.3125 58.265625 
Q 48.046875 61.46875 44.34375 62.5 
Q 41.9375 63.140625 35.5 63.140625 
L 17.1875 63.140625 
z
" id="ArialMT-80"/>
      <path id="ArialMT-32"/>
      <path d="M 25.046875 11.578125 
L 25.046875 31.203125 
L 5.5625 31.203125 
L 5.5625 39.40625 
L 25.046875 39.40625 
L 25.046875 58.890625 
L 33.34375 58.890625 
L 33.34375 39.40625 
L 52.828125 39.40625 
L 52.828125 31.203125 
L 33.34375 31.203125 
L 33.34375 11.578125 
z
" id="ArialMT-43"/>
      <path d="M 25.921875 0 
L 25.921875 63.140625 
L 2.34375 63.140625 
L 2.34375 71.578125 
L 59.078125 71.578125 
L 59.078125 63.140625 
L 35.40625 63.140625 
L 35.40625 0 
z
" id="ArialMT-84"/>
      <path d="M -0.140625 0 
L 27.34375 71.578125 
L 37.546875 71.578125 
L 66.84375 0 
L 56.0625 0 
L 47.703125 21.6875 
L 17.78125 21.6875 
L 9.90625 0 
z
M 20.515625 29.390625 
L 44.78125 29.390625 
L 37.3125 49.21875 
Q 33.890625 58.25 32.234375 64.0625 
Q 30.859375 57.171875 28.375 50.390625 
z
" id="ArialMT-65"/>
      <path d="M 4.5 23 
L 13.421875 23.78125 
Q 14.0625 18.40625 16.375 14.96875 
Q 18.703125 11.53125 23.578125 9.40625 
Q 28.46875 7.28125 34.578125 7.28125 
Q 39.984375 7.28125 44.140625 8.890625 
Q 48.296875 10.5 50.3125 13.296875 
Q 52.34375 16.109375 52.34375 19.4375 
Q 52.34375 22.796875 50.390625 25.3125 
Q 48.4375 27.828125 43.953125 29.546875 
Q 41.0625 30.671875 31.203125 33.03125 
Q 21.34375 35.40625 17.390625 37.5 
Q 12.25 40.1875 9.734375 44.15625 
Q 7.234375 48.140625 7.234375 53.078125 
Q 7.234375 58.5 10.296875 63.203125 
Q 13.375 67.921875 19.28125 70.359375 
Q 25.203125 72.796875 32.421875 72.796875 
Q 40.375 72.796875 46.453125 70.234375 
Q 52.546875 67.671875 55.8125 62.6875 
Q 59.078125 57.71875 59.328125 51.421875 
L 50.25 50.734375 
Q 49.515625 57.515625 45.28125 60.984375 
Q 41.0625 64.453125 32.8125 64.453125 
Q 24.21875 64.453125 20.28125 61.296875 
Q 16.359375 58.15625 16.359375 53.71875 
Q 16.359375 49.859375 19.140625 47.359375 
Q 21.875 44.875 33.421875 42.265625 
Q 44.96875 39.65625 49.265625 37.703125 
Q 55.515625 34.8125 58.484375 30.390625 
Q 61.46875 25.984375 61.46875 20.21875 
Q 61.46875 14.5 58.203125 9.4375 
Q 54.9375 4.390625 48.796875 1.578125 
Q 42.671875 -1.21875 35.015625 -1.21875 
Q 25.296875 -1.21875 18.71875 1.609375 
Q 12.15625 4.4375 8.421875 10.125 
Q 4.6875 15.828125 4.5 23 
z
" id="ArialMT-83"/>
      <path d="M 20.21875 0 
L 1.21875 71.578125 
L 10.9375 71.578125 
L 21.828125 24.65625 
Q 23.578125 17.28125 24.859375 10.015625 
Q 27.59375 21.484375 28.078125 23.25 
L 41.703125 71.578125 
L 53.125 71.578125 
L 63.375 35.359375 
Q 67.234375 21.875 68.953125 10.015625 
Q 70.3125 16.796875 72.515625 25.59375 
L 83.734375 71.578125 
L 93.265625 71.578125 
L 73.640625 0 
L 64.5 0 
L 49.421875 54.546875 
Q 47.515625 61.375 47.171875 62.9375 
Q 46.046875 58.015625 45.0625 54.546875 
L 29.890625 0 
z
" id="ArialMT-87"/>
      <path d="M 40.4375 6.390625 
Q 35.546875 2.25 31.03125 0.53125 
Q 26.515625 -1.171875 21.34375 -1.171875 
Q 12.796875 -1.171875 8.203125 3 
Q 3.609375 7.171875 3.609375 13.671875 
Q 3.609375 17.484375 5.34375 20.625 
Q 7.078125 23.78125 9.890625 25.6875 
Q 12.703125 27.59375 16.21875 28.5625 
Q 18.796875 29.25 24.03125 29.890625 
Q 34.671875 31.15625 39.703125 32.90625 
Q 39.75 34.71875 39.75 35.203125 
Q 39.75 40.578125 37.25 42.78125 
Q 33.890625 45.75 27.25 45.75 
Q 21.046875 45.75 18.09375 43.578125 
Q 15.140625 41.40625 13.71875 35.890625 
L 5.125 37.0625 
Q 6.296875 42.578125 8.984375 45.96875 
Q 11.671875 49.359375 16.75 51.1875 
Q 21.828125 53.03125 28.515625 53.03125 
Q 35.15625 53.03125 39.296875 51.46875 
Q 43.453125 49.90625 45.40625 47.53125 
Q 47.359375 45.171875 48.140625 41.546875 
Q 48.578125 39.3125 48.578125 33.453125 
L 48.578125 21.734375 
Q 48.578125 9.46875 49.140625 6.21875 
Q 49.703125 2.984375 51.375 0 
L 42.1875 0 
Q 40.828125 2.734375 40.4375 6.390625 
z
M 39.703125 26.03125 
Q 34.90625 24.078125 25.34375 22.703125 
Q 19.921875 21.921875 17.671875 20.9375 
Q 15.4375 19.96875 14.203125 18.09375 
Q 12.984375 16.21875 12.984375 13.921875 
Q 12.984375 10.40625 15.640625 8.0625 
Q 18.3125 5.71875 23.4375 5.71875 
Q 28.515625 5.71875 32.46875 7.9375 
Q 36.421875 10.15625 38.28125 14.015625 
Q 39.703125 17 39.703125 22.796875 
z
" id="ArialMT-97"/>
      <path d="M 6.390625 0 
L 6.390625 71.578125 
L 15.1875 71.578125 
L 15.1875 0 
z
" id="ArialMT-108"/>
      <path d="M 6.640625 0 
L 6.640625 71.578125 
L 15.4375 71.578125 
L 15.4375 30.765625 
L 36.234375 51.859375 
L 47.609375 51.859375 
L 27.78125 32.625 
L 49.609375 0 
L 38.765625 0 
L 21.625 26.515625 
L 15.4375 20.5625 
L 15.4375 0 
z
" id="ArialMT-107"/>
      <path d="M 3.078125 15.484375 
L 11.765625 16.84375 
Q 12.5 11.625 15.84375 8.84375 
Q 19.1875 6.0625 25.203125 6.0625 
Q 31.25 6.0625 34.171875 8.515625 
Q 37.109375 10.984375 37.109375 14.3125 
Q 37.109375 17.28125 34.515625 19 
Q 32.71875 20.171875 25.53125 21.96875 
Q 15.875 24.421875 12.140625 26.203125 
Q 8.40625 27.984375 6.46875 31.125 
Q 4.546875 34.28125 4.546875 38.09375 
Q 4.546875 41.546875 6.125 44.5 
Q 7.71875 47.46875 10.453125 49.421875 
Q 12.5 50.921875 16.03125 51.96875 
Q 19.578125 53.03125 23.640625 53.03125 
Q 29.734375 53.03125 34.34375 51.265625 
Q 38.96875 49.515625 41.15625 46.5 
Q 43.359375 43.5 44.1875 38.484375 
L 35.59375 37.3125 
Q 35.015625 41.3125 32.203125 43.546875 
Q 29.390625 45.796875 24.265625 45.796875 
Q 18.21875 45.796875 15.625 43.796875 
Q 13.03125 41.796875 13.03125 39.109375 
Q 13.03125 37.40625 14.109375 36.03125 
Q 15.1875 34.625 17.484375 33.6875 
Q 18.796875 33.203125 25.25 31.453125 
Q 34.578125 28.953125 38.25 27.359375 
Q 41.9375 25.78125 44.03125 22.75 
Q 46.140625 19.734375 46.140625 15.234375 
Q 46.140625 10.84375 43.578125 6.953125 
Q 41.015625 3.078125 36.171875 0.953125 
Q 31.34375 -1.171875 25.25 -1.171875 
Q 15.140625 -1.171875 9.84375 3.03125 
Q 4.546875 7.234375 3.078125 15.484375 
z
" id="ArialMT-115"/>
     </defs>
     <g style="fill:#262626;" transform="translate(260.627656 208.531094)scale(0.11 -0.11)">
      <use xlink:href="#ArialMT-77"/>
      <use x="83.300781" xlink:href="#ArialMT-76"/>
      <use x="138.916016" xlink:href="#ArialMT-80"/>
      <use x="205.599609" xlink:href="#ArialMT-32"/>
      <use x="233.382812" xlink:href="#ArialMT-43"/>
      <use x="291.78125" xlink:href="#ArialMT-32"/>
      <use x="319.548828" xlink:href="#ArialMT-84"/>
      <use x="380.523438" xlink:href="#ArialMT-65"/>
      <use x="447.222656" xlink:href="#ArialMT-83"/>
      <use x="513.921875" xlink:href="#ArialMT-32"/>
      <use x="541.705078" xlink:href="#ArialMT-87"/>
      <use x="636.042969" xlink:href="#ArialMT-97"/>
      <use x="691.658203" xlink:href="#ArialMT-108"/>
      <use x="713.875" xlink:href="#ArialMT-107"/>
      <use x="763.875" xlink:href="#ArialMT-115"/>
     </g>
    </g>
    <g id="line2d_22">
     <path d="M 229.827656 220.375 
L 251.827656 220.375 
" style="fill:none;stroke:#0000b2;stroke-linecap:round;stroke-width:1.5;"/>
    </g>
    <g id="line2d_23"/>
    <g id="text_15">
     <!-- Deep Sets + SAT Walks -->
     <defs>
      <path d="M 7.71875 0 
L 7.71875 71.578125 
L 32.375 71.578125 
Q 40.71875 71.578125 45.125 70.5625 
Q 51.265625 69.140625 55.609375 65.4375 
Q 61.28125 60.640625 64.078125 53.1875 
Q 66.890625 45.75 66.890625 36.1875 
Q 66.890625 28.03125 64.984375 21.734375 
Q 63.09375 15.4375 60.109375 11.296875 
Q 57.125 7.171875 53.578125 4.796875 
Q 50.046875 2.4375 45.046875 1.21875 
Q 40.046875 0 33.546875 0 
z
M 17.1875 8.453125 
L 32.46875 8.453125 
Q 39.546875 8.453125 43.578125 9.765625 
Q 47.609375 11.078125 50 13.484375 
Q 53.375 16.84375 55.25 22.53125 
Q 57.125 28.21875 57.125 36.328125 
Q 57.125 47.5625 53.4375 53.59375 
Q 49.75 59.625 44.484375 61.671875 
Q 40.671875 63.140625 32.234375 63.140625 
L 17.1875 63.140625 
z
" id="ArialMT-68"/>
      <path d="M 42.09375 16.703125 
L 51.171875 15.578125 
Q 49.03125 7.625 43.21875 3.21875 
Q 37.40625 -1.171875 28.375 -1.171875 
Q 17 -1.171875 10.328125 5.828125 
Q 3.65625 12.84375 3.65625 25.484375 
Q 3.65625 38.578125 10.390625 45.796875 
Q 17.140625 53.03125 27.875 53.03125 
Q 38.28125 53.03125 44.875 45.953125 
Q 51.46875 38.875 51.46875 26.03125 
Q 51.46875 25.25 51.421875 23.6875 
L 12.75 23.6875 
Q 13.234375 15.140625 17.578125 10.59375 
Q 21.921875 6.0625 28.421875 6.0625 
Q 33.25 6.0625 36.671875 8.59375 
Q 40.09375 11.140625 42.09375 16.703125 
z
M 13.234375 30.90625 
L 42.1875 30.90625 
Q 41.609375 37.453125 38.875 40.71875 
Q 34.671875 45.796875 27.984375 45.796875 
Q 21.921875 45.796875 17.796875 41.75 
Q 13.671875 37.703125 13.234375 30.90625 
z
" id="ArialMT-101"/>
      <path d="M 6.59375 -19.875 
L 6.59375 51.859375 
L 14.59375 51.859375 
L 14.59375 45.125 
Q 17.4375 49.078125 21 51.046875 
Q 24.5625 53.03125 29.640625 53.03125 
Q 36.28125 53.03125 41.359375 49.609375 
Q 46.4375 46.1875 49.015625 39.953125 
Q 51.609375 33.734375 51.609375 26.3125 
Q 51.609375 18.359375 48.75 11.984375 
Q 45.90625 5.609375 40.453125 2.21875 
Q 35.015625 -1.171875 29 -1.171875 
Q 24.609375 -1.171875 21.109375 0.6875 
Q 17.625 2.546875 15.375 5.375 
L 15.375 -19.875 
z
M 14.546875 25.640625 
Q 14.546875 15.625 18.59375 10.84375 
Q 22.65625 6.0625 28.421875 6.0625 
Q 34.28125 6.0625 38.453125 11.015625 
Q 42.625 15.96875 42.625 26.375 
Q 42.625 36.28125 38.546875 41.203125 
Q 34.46875 46.140625 28.8125 46.140625 
Q 23.1875 46.140625 18.859375 40.890625 
Q 14.546875 35.640625 14.546875 25.640625 
z
" id="ArialMT-112"/>
      <path d="M 25.78125 7.859375 
L 27.046875 0.09375 
Q 23.34375 -0.6875 20.40625 -0.6875 
Q 15.625 -0.6875 12.984375 0.828125 
Q 10.359375 2.34375 9.28125 4.8125 
Q 8.203125 7.28125 8.203125 15.1875 
L 8.203125 45.015625 
L 1.765625 45.015625 
L 1.765625 51.859375 
L 8.203125 51.859375 
L 8.203125 64.703125 
L 16.9375 69.96875 
L 16.9375 51.859375 
L 25.78125 51.859375 
L 25.78125 45.015625 
L 16.9375 45.015625 
L 16.9375 14.703125 
Q 16.9375 10.9375 17.40625 9.859375 
Q 17.875 8.796875 18.921875 8.15625 
Q 19.96875 7.515625 21.921875 7.515625 
Q 23.390625 7.515625 25.78125 7.859375 
z
" id="ArialMT-116"/>
     </defs>
     <g style="fill:#262626;" transform="translate(260.627656 224.225)scale(0.11 -0.11)">
      <use xlink:href="#ArialMT-68"/>
      <use x="72.216797" xlink:href="#ArialMT-101"/>
      <use x="127.832031" xlink:href="#ArialMT-101"/>
      <use x="183.447266" xlink:href="#ArialMT-112"/>
      <use x="239.0625" xlink:href="#ArialMT-32"/>
      <use x="266.845703" xlink:href="#ArialMT-83"/>
      <use x="333.544922" xlink:href="#ArialMT-101"/>
      <use x="389.160156" xlink:href="#ArialMT-116"/>
      <use x="416.943359" xlink:href="#ArialMT-115"/>
      <use x="466.943359" xlink:href="#ArialMT-32"/>
      <use x="494.726562" xlink:href="#ArialMT-43"/>
      <use x="553.125" xlink:href="#ArialMT-32"/>
      <use x="580.908203" xlink:href="#ArialMT-83"/>
      <use x="647.607422" xlink:href="#ArialMT-65"/>
      <use x="714.197266" xlink:href="#ArialMT-84"/>
      <use x="775.265625" xlink:href="#ArialMT-32"/>
      <use x="803.048828" xlink:href="#ArialMT-87"/>
      <use x="897.386719" xlink:href="#ArialMT-97"/>
      <use x="953.001953" xlink:href="#ArialMT-108"/>
      <use x="975.21875" xlink:href="#ArialMT-107"/>
      <use x="1025.21875" xlink:href="#ArialMT-115"/>
     </g>
    </g>
    <g id="line2d_24">
     <path d="M 229.827656 235.934844 
L 251.827656 235.934844 
" style="fill:none;stroke:#00b200;stroke-linecap:round;stroke-width:1.5;"/>
    </g>
    <g id="line2d_25"/>
    <g id="text_16">
     <!-- Deep Hyperedges -->
     <defs>
      <path d="M 8.015625 0 
L 8.015625 71.578125 
L 17.484375 71.578125 
L 17.484375 42.1875 
L 54.6875 42.1875 
L 54.6875 71.578125 
L 64.15625 71.578125 
L 64.15625 0 
L 54.6875 0 
L 54.6875 33.734375 
L 17.484375 33.734375 
L 17.484375 0 
z
" id="ArialMT-72"/>
      <path d="M 6.203125 -19.96875 
L 5.21875 -11.71875 
Q 8.109375 -12.5 10.25 -12.5 
Q 13.1875 -12.5 14.9375 -11.515625 
Q 16.703125 -10.546875 17.828125 -8.796875 
Q 18.65625 -7.46875 20.515625 -2.25 
Q 20.75 -1.515625 21.296875 -0.09375 
L 1.609375 51.859375 
L 11.078125 51.859375 
L 21.875 21.828125 
Q 23.96875 16.109375 25.640625 9.8125 
Q 27.15625 15.875 29.25 21.625 
L 40.328125 51.859375 
L 49.125 51.859375 
L 29.390625 -0.875 
Q 26.21875 -9.421875 24.46875 -12.640625 
Q 22.125 -17 19.09375 -19.015625 
Q 16.0625 -21.046875 11.859375 -21.046875 
Q 9.328125 -21.046875 6.203125 -19.96875 
z
" id="ArialMT-121"/>
      <path d="M 6.5 0 
L 6.5 51.859375 
L 14.40625 51.859375 
L 14.40625 44 
Q 17.4375 49.515625 20 51.265625 
Q 22.5625 53.03125 25.640625 53.03125 
Q 30.078125 53.03125 34.671875 50.203125 
L 31.640625 42.046875 
Q 28.421875 43.953125 25.203125 43.953125 
Q 22.3125 43.953125 20.015625 42.21875 
Q 17.71875 40.484375 16.75 37.40625 
Q 15.28125 32.71875 15.28125 27.15625 
L 15.28125 0 
z
" id="ArialMT-114"/>
      <path d="M 40.234375 0 
L 40.234375 6.546875 
Q 35.296875 -1.171875 25.734375 -1.171875 
Q 19.53125 -1.171875 14.328125 2.25 
Q 9.125 5.671875 6.265625 11.796875 
Q 3.421875 17.921875 3.421875 25.875 
Q 3.421875 33.640625 6 39.96875 
Q 8.59375 46.296875 13.765625 49.65625 
Q 18.953125 53.03125 25.34375 53.03125 
Q 30.03125 53.03125 33.6875 51.046875 
Q 37.359375 49.078125 39.65625 45.90625 
L 39.65625 71.578125 
L 48.390625 71.578125 
L 48.390625 0 
z
M 12.453125 25.875 
Q 12.453125 15.921875 16.640625 10.984375 
Q 20.84375 6.0625 26.5625 6.0625 
Q 32.328125 6.0625 36.34375 10.765625 
Q 40.375 15.484375 40.375 25.140625 
Q 40.375 35.796875 36.265625 40.765625 
Q 32.171875 45.75 26.171875 45.75 
Q 20.3125 45.75 16.375 40.96875 
Q 12.453125 36.1875 12.453125 25.875 
z
" id="ArialMT-100"/>
      <path d="M 4.984375 -4.296875 
L 13.53125 -5.5625 
Q 14.0625 -9.515625 16.5 -11.328125 
Q 19.78125 -13.765625 25.4375 -13.765625 
Q 31.546875 -13.765625 34.859375 -11.328125 
Q 38.1875 -8.890625 39.359375 -4.5 
Q 40.046875 -1.8125 39.984375 6.78125 
Q 34.234375 0 25.640625 0 
Q 14.9375 0 9.078125 7.71875 
Q 3.21875 15.4375 3.21875 26.21875 
Q 3.21875 33.640625 5.90625 39.90625 
Q 8.59375 46.1875 13.6875 49.609375 
Q 18.796875 53.03125 25.6875 53.03125 
Q 34.859375 53.03125 40.828125 45.609375 
L 40.828125 51.859375 
L 48.921875 51.859375 
L 48.921875 7.03125 
Q 48.921875 -5.078125 46.453125 -10.125 
Q 44 -15.1875 38.640625 -18.109375 
Q 33.296875 -21.046875 25.484375 -21.046875 
Q 16.21875 -21.046875 10.5 -16.875 
Q 4.78125 -12.703125 4.984375 -4.296875 
z
M 12.25 26.859375 
Q 12.25 16.65625 16.296875 11.96875 
Q 20.359375 7.28125 26.46875 7.28125 
Q 32.515625 7.28125 36.609375 11.9375 
Q 40.71875 16.609375 40.71875 26.5625 
Q 40.71875 36.078125 36.5 40.90625 
Q 32.28125 45.75 26.3125 45.75 
Q 20.453125 45.75 16.34375 40.984375 
Q 12.25 36.234375 12.25 26.859375 
z
" id="ArialMT-103"/>
     </defs>
     <g style="fill:#262626;" transform="translate(260.627656 239.784844)scale(0.11 -0.11)">
      <use xlink:href="#ArialMT-68"/>
      <use x="72.216797" xlink:href="#ArialMT-101"/>
      <use x="127.832031" xlink:href="#ArialMT-101"/>
      <use x="183.447266" xlink:href="#ArialMT-112"/>
      <use x="239.0625" xlink:href="#ArialMT-32"/>
      <use x="266.845703" xlink:href="#ArialMT-72"/>
      <use x="339.0625" xlink:href="#ArialMT-121"/>
      <use x="389.0625" xlink:href="#ArialMT-112"/>
      <use x="444.677734" xlink:href="#ArialMT-101"/>
      <use x="500.292969" xlink:href="#ArialMT-114"/>
      <use x="533.59375" xlink:href="#ArialMT-101"/>
      <use x="589.208984" xlink:href="#ArialMT-100"/>
      <use x="644.824219" xlink:href="#ArialMT-103"/>
      <use x="700.439453" xlink:href="#ArialMT-101"/>
      <use x="756.054688" xlink:href="#ArialMT-115"/>
     </g>
    </g>
   </g>
  </g>
 </g>
 <defs>
  <clipPath id="p58ec711af8">
   <rect height="217.44" width="334.8" x="54" y="34.56"/>
  </clipPath>
 </defs>
</svg>
