<?xml version="1.0" encoding="utf-8" standalone="no"?>
<!DOCTYPE svg PUBLIC "-//W3C//DTD SVG 1.1//EN"
  "http://www.w3.org/Graphics/SVG/1.1/DTD/svg11.dtd">
<!-- Created with matplotlib (https://matplotlib.org/) -->
<svg height="288pt" version="1.1" viewBox="0 0 432 288" width="432pt" xmlns="http://www.w3.org/2000/svg" xmlns:xlink="http://www.w3.org/1999/xlink">
 <defs>
  <style type="text/css">
*{stroke-linecap:butt;stroke-linejoin:round;}
  </style>
 </defs>
 <g id="figure_1">
  <g id="patch_1">
   <path d="M 0 288 
L 432 288 
L 432 0 
L 0 0 
z
" style="fill:#ffffff;"/>
  </g>
  <g id="axes_1">
   <g id="patch_2">
    <path d="M 54 252 
L 388.8 252 
L 388.8 34.56 
L 54 34.56 
z
" style="fill:#eaeaf2;"/>
   </g>
   <g id="matplotlib.axis_1">
    <g id="xtick_1">
     <g id="line2d_1">
      <path clip-path="url(#pede23bf5a7)" d="M 68.411954 252 
L 68.411954 34.56 
" style="fill:none;stroke:#ffffff;stroke-linecap:round;"/>
     </g>
     <g id="text_1">
      <!-- 0 -->
      <defs>
       <path d="M 4.15625 35.296875 
Q 4.15625 48 6.765625 55.734375 
Q 9.375 63.484375 14.515625 67.671875 
Q 19.671875 71.875 27.484375 71.875 
Q 33.25 71.875 37.59375 69.546875 
Q 41.9375 67.234375 44.765625 62.859375 
Q 47.609375 58.5 49.21875 52.21875 
Q 50.828125 45.953125 50.828125 35.296875 
Q 50.828125 22.703125 48.234375 14.96875 
Q 45.65625 7.234375 40.5 3 
Q 35.359375 -1.21875 27.484375 -1.21875 
Q 17.140625 -1.21875 11.234375 6.203125 
Q 4.15625 15.140625 4.15625 35.296875 
z
M 13.1875 35.296875 
Q 13.1875 17.671875 17.3125 11.828125 
Q 21.4375 6 27.484375 6 
Q 33.546875 6 37.671875 11.859375 
Q 41.796875 17.71875 41.796875 35.296875 
Q 41.796875 52.984375 37.671875 58.78125 
Q 33.546875 64.59375 27.390625 64.59375 
Q 21.34375 64.59375 17.71875 59.46875 
Q 13.1875 52.9375 13.1875 35.296875 
z
" id="ArialMT-48"/>
      </defs>
      <g style="fill:#262626;" transform="translate(65.353438 269.373594)scale(0.11 -0.11)">
       <use xlink:href="#ArialMT-48"/>
      </g>
     </g>
    </g>
    <g id="xtick_2">
     <g id="line2d_2">
      <path clip-path="url(#pede23bf5a7)" d="M 131.39851 252 
L 131.39851 34.56 
" style="fill:none;stroke:#ffffff;stroke-linecap:round;"/>
     </g>
     <g id="text_2">
      <!-- 10000 -->
      <defs>
       <path d="M 37.25 0 
L 28.46875 0 
L 28.46875 56 
Q 25.296875 52.984375 20.140625 49.953125 
Q 14.984375 46.921875 10.890625 45.40625 
L 10.890625 53.90625 
Q 18.265625 57.375 23.78125 62.296875 
Q 29.296875 67.234375 31.59375 71.875 
L 37.25 71.875 
z
" id="ArialMT-49"/>
      </defs>
      <g style="fill:#262626;" transform="translate(116.105932 269.373594)scale(0.11 -0.11)">
       <use xlink:href="#ArialMT-49"/>
       <use x="55.615234" xlink:href="#ArialMT-48"/>
       <use x="111.230469" xlink:href="#ArialMT-48"/>
       <use x="166.845703" xlink:href="#ArialMT-48"/>
       <use x="222.460938" xlink:href="#ArialMT-48"/>
      </g>
     </g>
    </g>
    <g id="xtick_3">
     <g id="line2d_3">
      <path clip-path="url(#pede23bf5a7)" d="M 194.385066 252 
L 194.385066 34.56 
" style="fill:none;stroke:#ffffff;stroke-linecap:round;"/>
     </g>
     <g id="text_3">
      <!-- 20000 -->
      <defs>
       <path d="M 50.34375 8.453125 
L 50.34375 0 
L 3.03125 0 
Q 2.9375 3.171875 4.046875 6.109375 
Q 5.859375 10.9375 9.828125 15.625 
Q 13.8125 20.3125 21.34375 26.46875 
Q 33.015625 36.03125 37.109375 41.625 
Q 41.21875 47.21875 41.21875 52.203125 
Q 41.21875 57.421875 37.46875 61 
Q 33.734375 64.59375 27.734375 64.59375 
Q 21.390625 64.59375 17.578125 60.78125 
Q 13.765625 56.984375 13.71875 50.25 
L 4.6875 51.171875 
Q 5.609375 61.28125 11.65625 66.578125 
Q 17.71875 71.875 27.9375 71.875 
Q 38.234375 71.875 44.234375 66.15625 
Q 50.25 60.453125 50.25 52 
Q 50.25 47.703125 48.484375 43.546875 
Q 46.734375 39.40625 42.65625 34.8125 
Q 38.578125 30.21875 29.109375 22.21875 
Q 21.1875 15.578125 18.9375 13.203125 
Q 16.703125 10.84375 15.234375 8.453125 
z
" id="ArialMT-50"/>
      </defs>
      <g style="fill:#262626;" transform="translate(179.092488 269.373594)scale(0.11 -0.11)">
       <use xlink:href="#ArialMT-50"/>
       <use x="55.615234" xlink:href="#ArialMT-48"/>
       <use x="111.230469" xlink:href="#ArialMT-48"/>
       <use x="166.845703" xlink:href="#ArialMT-48"/>
       <use x="222.460938" xlink:href="#ArialMT-48"/>
      </g>
     </g>
    </g>
    <g id="xtick_4">
     <g id="line2d_4">
      <path clip-path="url(#pede23bf5a7)" d="M 257.371622 252 
L 257.371622 34.56 
" style="fill:none;stroke:#ffffff;stroke-linecap:round;"/>
     </g>
     <g id="text_4">
      <!-- 30000 -->
      <defs>
       <path d="M 4.203125 18.890625 
L 12.984375 20.0625 
Q 14.5 12.59375 18.140625 9.296875 
Q 21.78125 6 27 6 
Q 33.203125 6 37.46875 10.296875 
Q 41.75 14.59375 41.75 20.953125 
Q 41.75 27 37.796875 30.921875 
Q 33.84375 34.859375 27.734375 34.859375 
Q 25.25 34.859375 21.53125 33.890625 
L 22.515625 41.609375 
Q 23.390625 41.5 23.921875 41.5 
Q 29.546875 41.5 34.03125 44.421875 
Q 38.53125 47.359375 38.53125 53.46875 
Q 38.53125 58.296875 35.25 61.46875 
Q 31.984375 64.65625 26.8125 64.65625 
Q 21.6875 64.65625 18.265625 61.421875 
Q 14.84375 58.203125 13.875 51.765625 
L 5.078125 53.328125 
Q 6.6875 62.15625 12.390625 67.015625 
Q 18.109375 71.875 26.609375 71.875 
Q 32.46875 71.875 37.390625 69.359375 
Q 42.328125 66.84375 44.9375 62.5 
Q 47.5625 58.15625 47.5625 53.265625 
Q 47.5625 48.640625 45.0625 44.828125 
Q 42.578125 41.015625 37.703125 38.765625 
Q 44.046875 37.3125 47.5625 32.6875 
Q 51.078125 28.078125 51.078125 21.140625 
Q 51.078125 11.765625 44.234375 5.25 
Q 37.40625 -1.265625 26.953125 -1.265625 
Q 17.53125 -1.265625 11.296875 4.34375 
Q 5.078125 9.96875 4.203125 18.890625 
z
" id="ArialMT-51"/>
      </defs>
      <g style="fill:#262626;" transform="translate(242.079044 269.373594)scale(0.11 -0.11)">
       <use xlink:href="#ArialMT-51"/>
       <use x="55.615234" xlink:href="#ArialMT-48"/>
       <use x="111.230469" xlink:href="#ArialMT-48"/>
       <use x="166.845703" xlink:href="#ArialMT-48"/>
       <use x="222.460938" xlink:href="#ArialMT-48"/>
      </g>
     </g>
    </g>
    <g id="xtick_5">
     <g id="line2d_5">
      <path clip-path="url(#pede23bf5a7)" d="M 320.358178 252 
L 320.358178 34.56 
" style="fill:none;stroke:#ffffff;stroke-linecap:round;"/>
     </g>
     <g id="text_5">
      <!-- 40000 -->
      <defs>
       <path d="M 32.328125 0 
L 32.328125 17.140625 
L 1.265625 17.140625 
L 1.265625 25.203125 
L 33.9375 71.578125 
L 41.109375 71.578125 
L 41.109375 25.203125 
L 50.78125 25.203125 
L 50.78125 17.140625 
L 41.109375 17.140625 
L 41.109375 0 
z
M 32.328125 25.203125 
L 32.328125 57.46875 
L 9.90625 25.203125 
z
" id="ArialMT-52"/>
      </defs>
      <g style="fill:#262626;" transform="translate(305.0656 269.373594)scale(0.11 -0.11)">
       <use xlink:href="#ArialMT-52"/>
       <use x="55.615234" xlink:href="#ArialMT-48"/>
       <use x="111.230469" xlink:href="#ArialMT-48"/>
       <use x="166.845703" xlink:href="#ArialMT-48"/>
       <use x="222.460938" xlink:href="#ArialMT-48"/>
      </g>
     </g>
    </g>
    <g id="xtick_6">
     <g id="line2d_6">
      <path clip-path="url(#pede23bf5a7)" d="M 383.344734 252 
L 383.344734 34.56 
" style="fill:none;stroke:#ffffff;stroke-linecap:round;"/>
     </g>
     <g id="text_6">
      <!-- 50000 -->
      <defs>
       <path d="M 4.15625 18.75 
L 13.375 19.53125 
Q 14.40625 12.796875 18.140625 9.390625 
Q 21.875 6 27.15625 6 
Q 33.5 6 37.890625 10.78125 
Q 42.28125 15.578125 42.28125 23.484375 
Q 42.28125 31 38.0625 35.34375 
Q 33.84375 39.703125 27 39.703125 
Q 22.75 39.703125 19.328125 37.765625 
Q 15.921875 35.84375 13.96875 32.765625 
L 5.71875 33.84375 
L 12.640625 70.609375 
L 48.25 70.609375 
L 48.25 62.203125 
L 19.671875 62.203125 
L 15.828125 42.96875 
Q 22.265625 47.46875 29.34375 47.46875 
Q 38.71875 47.46875 45.15625 40.96875 
Q 51.609375 34.46875 51.609375 24.265625 
Q 51.609375 14.546875 45.953125 7.46875 
Q 39.0625 -1.21875 27.15625 -1.21875 
Q 17.390625 -1.21875 11.203125 4.25 
Q 5.03125 9.71875 4.15625 18.75 
z
" id="ArialMT-53"/>
      </defs>
      <g style="fill:#262626;" transform="translate(368.052156 269.373594)scale(0.11 -0.11)">
       <use xlink:href="#ArialMT-53"/>
       <use x="55.615234" xlink:href="#ArialMT-48"/>
       <use x="111.230469" xlink:href="#ArialMT-48"/>
       <use x="166.845703" xlink:href="#ArialMT-48"/>
       <use x="222.460938" xlink:href="#ArialMT-48"/>
      </g>
     </g>
    </g>
   </g>
   <g id="matplotlib.axis_2">
    <g id="ytick_1">
     <g id="line2d_7">
      <path clip-path="url(#pede23bf5a7)" d="M 54 218.448629 
L 388.8 218.448629 
" style="fill:none;stroke:#ffffff;stroke-linecap:round;"/>
     </g>
     <g id="text_7">
      <!-- 0.2 -->
      <defs>
       <path d="M 9.078125 0 
L 9.078125 10.015625 
L 19.09375 10.015625 
L 19.09375 0 
z
" id="ArialMT-46"/>
      </defs>
      <g style="fill:#262626;" transform="translate(29.21 222.385426)scale(0.11 -0.11)">
       <use xlink:href="#ArialMT-48"/>
       <use x="55.615234" xlink:href="#ArialMT-46"/>
       <use x="83.398438" xlink:href="#ArialMT-50"/>
      </g>
     </g>
    </g>
    <g id="ytick_2">
     <g id="line2d_8">
      <path clip-path="url(#pede23bf5a7)" d="M 54 171.047008 
L 388.8 171.047008 
" style="fill:none;stroke:#ffffff;stroke-linecap:round;"/>
     </g>
     <g id="text_8">
      <!-- 0.4 -->
      <g style="fill:#262626;" transform="translate(29.21 174.983805)scale(0.11 -0.11)">
       <use xlink:href="#ArialMT-48"/>
       <use x="55.615234" xlink:href="#ArialMT-46"/>
       <use x="83.398438" xlink:href="#ArialMT-52"/>
      </g>
     </g>
    </g>
    <g id="ytick_3">
     <g id="line2d_9">
      <path clip-path="url(#pede23bf5a7)" d="M 54 123.645386 
L 388.8 123.645386 
" style="fill:none;stroke:#ffffff;stroke-linecap:round;"/>
     </g>
     <g id="text_9">
      <!-- 0.6 -->
      <defs>
       <path d="M 49.75 54.046875 
L 41.015625 53.375 
Q 39.84375 58.546875 37.703125 60.890625 
Q 34.125 64.65625 28.90625 64.65625 
Q 24.703125 64.65625 21.53125 62.3125 
Q 17.390625 59.28125 14.984375 53.46875 
Q 12.59375 47.65625 12.5 36.921875 
Q 15.671875 41.75 20.265625 44.09375 
Q 24.859375 46.4375 29.890625 46.4375 
Q 38.671875 46.4375 44.84375 39.96875 
Q 51.03125 33.5 51.03125 23.25 
Q 51.03125 16.5 48.125 10.71875 
Q 45.21875 4.9375 40.140625 1.859375 
Q 35.0625 -1.21875 28.609375 -1.21875 
Q 17.625 -1.21875 10.6875 6.859375 
Q 3.765625 14.9375 3.765625 33.5 
Q 3.765625 54.25 11.421875 63.671875 
Q 18.109375 71.875 29.4375 71.875 
Q 37.890625 71.875 43.28125 67.140625 
Q 48.6875 62.40625 49.75 54.046875 
z
M 13.875 23.1875 
Q 13.875 18.65625 15.796875 14.5 
Q 17.71875 10.359375 21.1875 8.171875 
Q 24.65625 6 28.46875 6 
Q 34.03125 6 38.03125 10.484375 
Q 42.046875 14.984375 42.046875 22.703125 
Q 42.046875 30.125 38.078125 34.390625 
Q 34.125 38.671875 28.125 38.671875 
Q 22.171875 38.671875 18.015625 34.390625 
Q 13.875 30.125 13.875 23.1875 
z
" id="ArialMT-54"/>
      </defs>
      <g style="fill:#262626;" transform="translate(29.21 127.582183)scale(0.11 -0.11)">
       <use xlink:href="#ArialMT-48"/>
       <use x="55.615234" xlink:href="#ArialMT-46"/>
       <use x="83.398438" xlink:href="#ArialMT-54"/>
      </g>
     </g>
    </g>
    <g id="ytick_4">
     <g id="line2d_10">
      <path clip-path="url(#pede23bf5a7)" d="M 54 76.243765 
L 388.8 76.243765 
" style="fill:none;stroke:#ffffff;stroke-linecap:round;"/>
     </g>
     <g id="text_10">
      <!-- 0.8 -->
      <defs>
       <path d="M 17.671875 38.8125 
Q 12.203125 40.828125 9.5625 44.53125 
Q 6.9375 48.25 6.9375 53.421875 
Q 6.9375 61.234375 12.546875 66.546875 
Q 18.171875 71.875 27.484375 71.875 
Q 36.859375 71.875 42.578125 66.421875 
Q 48.296875 60.984375 48.296875 53.171875 
Q 48.296875 48.1875 45.671875 44.5 
Q 43.0625 40.828125 37.75 38.8125 
Q 44.34375 36.671875 47.78125 31.875 
Q 51.21875 27.09375 51.21875 20.453125 
Q 51.21875 11.28125 44.71875 5.03125 
Q 38.234375 -1.21875 27.640625 -1.21875 
Q 17.046875 -1.21875 10.546875 5.046875 
Q 4.046875 11.328125 4.046875 20.703125 
Q 4.046875 27.6875 7.59375 32.390625 
Q 11.140625 37.109375 17.671875 38.8125 
z
M 15.921875 53.71875 
Q 15.921875 48.640625 19.1875 45.40625 
Q 22.46875 42.1875 27.6875 42.1875 
Q 32.765625 42.1875 36.015625 45.375 
Q 39.265625 48.578125 39.265625 53.21875 
Q 39.265625 58.0625 35.90625 61.359375 
Q 32.5625 64.65625 27.59375 64.65625 
Q 22.5625 64.65625 19.234375 61.421875 
Q 15.921875 58.203125 15.921875 53.71875 
z
M 13.09375 20.65625 
Q 13.09375 16.890625 14.875 13.375 
Q 16.65625 9.859375 20.171875 7.921875 
Q 23.6875 6 27.734375 6 
Q 34.03125 6 38.125 10.046875 
Q 42.234375 14.109375 42.234375 20.359375 
Q 42.234375 26.703125 38.015625 30.859375 
Q 33.796875 35.015625 27.4375 35.015625 
Q 21.234375 35.015625 17.15625 30.90625 
Q 13.09375 26.8125 13.09375 20.65625 
z
" id="ArialMT-56"/>
      </defs>
      <g style="fill:#262626;" transform="translate(29.21 80.180562)scale(0.11 -0.11)">
       <use xlink:href="#ArialMT-48"/>
       <use x="55.615234" xlink:href="#ArialMT-46"/>
       <use x="83.398438" xlink:href="#ArialMT-56"/>
      </g>
     </g>
    </g>
   </g>
   <g id="line2d_11">
    <path clip-path="url(#pede23bf5a7)" d="M 69.218182 93.732622 
L 70.02441 105.279911 
L 70.830638 101.952164 
L 72.443093 96.757392 
L 73.249321 113.738578 
L 74.055549 107.25735 
L 74.861777 118.821621 
L 75.668005 120.242959 
L 76.474233 123.212917 
L 77.280461 120.529605 
L 78.086689 122.91528 
L 78.892917 115.452792 
L 79.699145 124.637731 
L 81.311601 133.929439 
L 82.117829 150.314192 
L 82.924056 134.642022 
L 83.730284 130.172915 
L 84.536512 135.666596 
L 85.34274 144.864502 
L 86.148968 142.305986 
L 86.955196 149.067306 
L 87.761424 147.616923 
L 88.567652 144.413378 
L 89.37388 144.768991 
L 90.180108 150.719715 
L 90.986336 140.532637 
L 91.792564 149.366327 
L 92.598791 155.68896 
L 93.405019 143.163016 
L 94.211247 146.035062 
L 95.017475 151.294767 
L 95.823703 151.198119 
L 96.629931 156.983461 
L 97.436159 159.500896 
L 98.242387 164.0687 
L 98.92894 157.422677 
L 98.92894 133.505381 
L 99.735168 173.898604 
L 100.541396 171.909884 
L 101.347624 163.417943 
L 102.153852 158.7044 
L 102.96008 171.912943 
L 103.766308 174.832582 
L 104.572536 178.495332 
L 105.378764 167.465669 
L 106.184992 174.08779 
L 106.99122 183.247872 
L 107.797447 161.957904 
L 108.603675 166.119605 
L 109.409903 160.249764 
L 110.216131 170.294289 
L 111.022359 198.065802 
L 111.828587 186.728584 
L 112.634815 168.188699 
L 113.441043 181.311676 
L 115.053499 183.249701 
L 115.859727 184.611212 
L 116.665955 190.267096 
L 117.472182 187.834867 
L 118.27841 193.248152 
L 119.084638 195.344573 
L 119.890866 202.483056 
L 120.697094 184.589938 
L 121.503322 197.567564 
L 122.30955 184.561606 
L 123.115778 185.09182 
L 123.922006 196.852424 
L 124.728234 178.980248 
L 125.534462 176.276 
L 126.34069 183.627769 
L 127.146917 174.9364 
L 127.953145 197.634794 
L 128.759373 184.958738 
L 129.445927 187.318999 
L 129.445927 180.568996 
L 130.252155 194.229243 
L 131.058383 198.736132 
L 131.864611 174.770198 
L 132.670838 203.897169 
L 133.477066 191.621502 
L 134.283294 191.012087 
L 135.089522 192.512634 
L 135.89575 214.535089 
L 136.701978 192.393686 
L 137.508206 194.47786 
L 138.314434 200.391551 
L 139.120662 196.968066 
L 139.92689 189.009897 
L 140.733118 210.680264 
L 141.539346 184.90714 
L 142.345573 198.899543 
L 143.151801 199.605706 
L 143.958029 207.175197 
L 144.764257 194.633587 
L 145.570485 178.34758 
L 146.376713 206.823249 
L 147.182941 200.068351 
L 147.989169 196.674794 
L 148.795397 203.580051 
L 149.601625 187.321104 
L 150.407853 190.039902 
L 151.214081 162.673963 
L 152.020308 215.665112 
L 152.826536 200.489619 
L 153.632764 192.204225 
L 154.438992 208.006544 
L 155.24522 190.297229 
L 156.051448 191.807891 
L 156.857676 189.155566 
L 157.663904 177.115484 
L 158.470132 210.842818 
L 159.27636 216.144374 
L 159.962913 202.929576 
L 159.962913 196.042677 
L 160.769141 199.981401 
L 161.575369 197.499925 
L 162.381597 213.22341 
L 163.187825 194.935024 
L 163.994053 188.313934 
L 164.800281 207.642688 
L 165.606509 178.935805 
L 166.412737 209.399339 
L 168.025192 187.016241 
L 168.83142 201.829721 
L 169.637648 187.504265 
L 170.443876 209.247897 
L 172.056332 205.246093 
L 172.86256 208.835564 
L 173.668788 210.893932 
L 174.475016 188.735598 
L 175.281244 202.54549 
L 176.087472 205.23429 
L 176.893699 197.561786 
L 177.699927 205.810755 
L 178.506155 212.245194 
L 179.312383 191.140471 
L 180.118611 202.26881 
L 180.924839 198.260737 
L 181.731067 204.095438 
L 182.537295 205.04812 
L 183.343523 203.604335 
L 184.149751 213.376841 
L 184.955979 211.90542 
L 185.762207 214.032999 
L 186.568434 199.92685 
L 187.374662 210.933458 
L 188.987118 190.409699 
L 189.793346 198.857869 
L 190.4799 212.07516 
L 190.4799 201.902092 
L 191.286128 203.692542 
L 192.092355 187.575224 
L 192.898583 196.193191 
L 193.704811 219.128756 
L 194.511039 198.364124 
L 195.317267 194.73039 
L 196.123495 219.431849 
L 196.929723 211.249609 
L 197.735951 226.210417 
L 198.542179 194.812177 
L 199.348407 207.99336 
L 200.154635 202.130092 
L 200.960863 186.31842 
L 201.76709 211.249831 
L 202.573318 210.871961 
L 203.379546 204.621378 
L 204.185774 209.809606 
L 204.992002 165.613782 
L 205.79823 212.705084 
L 206.604458 192.399153 
L 207.410686 190.306976 
L 208.216914 211.957954 
L 209.023142 201.233465 
L 209.82937 213.087892 
L 210.635598 208.422218 
L 211.441825 218.741113 
L 212.248053 204.613828 
L 213.054281 210.868051 
L 213.860509 208.722108 
L 214.666737 197.695249 
L 215.472965 208.243493 
L 216.279193 214.1256 
L 217.085421 204.462346 
L 217.891649 212.330011 
L 218.697877 191.765864 
L 219.504105 199.826154 
L 220.310333 235.253727 
L 220.996886 196.854642 
L 220.996886 204.863165 
L 221.803114 204.704945 
L 222.609342 190.310762 
L 223.41557 213.878572 
L 224.221798 213.246062 
L 225.028026 197.791311 
L 225.834254 196.940815 
L 226.640481 216.562841 
L 227.446709 177.62087 
L 228.252937 204.161799 
L 229.059165 202.512814 
L 229.865393 215.285522 
L 230.671621 208.811866 
L 231.477849 184.002171 
L 232.284077 222.153703 
L 233.090305 211.314366 
L 233.896533 219.937698 
L 234.702761 215.063321 
L 235.508989 200.217043 
L 236.315216 203.855269 
L 237.121444 210.657124 
L 237.927672 206.91607 
L 238.7339 213.873493 
L 239.540128 194.25751 
L 240.346356 213.5338 
L 241.152584 185.052639 
L 241.958812 214.446617 
L 242.76504 204.617592 
L 243.571268 199.414648 
L 244.377496 208.056175 
L 245.183724 230.48004 
L 245.989951 199.336718 
L 246.796179 190.643434 
L 247.602407 215.137653 
L 248.408635 221.095416 
L 249.214863 206.723179 
L 250.021091 211.7332 
L 250.827319 220.958626 
L 251.513872 206.656974 
L 252.3201 196.470626 
L 253.126328 201.663371 
L 253.932556 210.140981 
L 254.738784 193.132828 
L 255.545012 218.980608 
L 256.35124 209.304386 
L 257.157468 197.374296 
L 257.963696 204.652796 
L 258.769924 209.1457 
L 259.576152 223.108055 
L 260.38238 204.659994 
L 261.188607 196.583026 
L 261.994835 205.895642 
L 262.801063 208.162945 
L 263.607291 222.592103 
L 264.413519 225.686137 
L 265.219747 204.777183 
L 266.025975 203.015686 
L 266.832203 205.840477 
L 267.638431 219.394127 
L 268.444659 212.695189 
L 269.250887 212.748044 
L 270.057115 226.037512 
L 270.863343 230.337116 
L 271.66957 211.845247 
L 272.475798 185.611544 
L 273.282026 203.287273 
L 274.088254 214.016152 
L 274.894482 213.218692 
L 275.70071 205.274636 
L 276.506938 192.591157 
L 277.313166 208.011065 
L 278.119394 173.638897 
L 278.925622 218.613103 
L 279.73185 204.580255 
L 280.538078 218.080188 
L 281.344305 216.452645 
L 282.030859 196.567586 
L 282.030859 208.049779 
L 282.837087 213.168023 
L 283.643315 185.176467 
L 284.449543 224.357121 
L 285.255771 206.195907 
L 286.061998 213.630728 
L 286.868226 212.62264 
L 287.674454 193.381261 
L 288.480682 208.355984 
L 289.28691 193.174445 
L 290.093138 229.894068 
L 291.705594 197.87776 
L 292.511822 192.298111 
L 293.31805 207.372026 
L 294.124278 213.200726 
L 294.930506 212.912331 
L 295.736734 213.310396 
L 296.542961 210.408518 
L 297.349189 197.679039 
L 298.155417 216.562297 
L 298.961645 209.737146 
L 299.767873 220.631563 
L 300.574101 196.832802 
L 301.380329 219.868197 
L 302.186557 180.971447 
L 302.992785 200.468528 
L 303.799013 214.309919 
L 304.605241 206.529582 
L 305.411469 223.0165 
L 306.217696 214.225674 
L 307.023924 182.151753 
L 307.830152 218.321883 
L 308.63638 207.437948 
L 309.442608 204.120245 
L 310.248836 224.862651 
L 311.055064 221.033777 
L 311.861292 227.180401 
L 312.547845 224.850912 
L 312.547845 209.210422 
L 313.354073 218.980163 
L 314.160301 208.236362 
L 314.966529 203.756311 
L 315.772757 195.238926 
L 316.578985 204.990518 
L 317.385213 203.449547 
L 318.191441 222.391778 
L 318.997669 207.073788 
L 319.803897 210.184771 
L 320.610125 220.926082 
L 321.416352 201.349947 
L 322.22258 209.352671 
L 323.028808 215.195202 
L 323.835036 191.672938 
L 324.641264 212.205363 
L 325.447492 218.238422 
L 326.25372 200.092854 
L 327.059948 226.52038 
L 327.866176 206.569038 
L 328.672404 211.713744 
L 329.478632 209.489998 
L 330.28486 206.111712 
L 331.091087 206.839474 
L 331.897315 227.642304 
L 332.703543 195.767 
L 333.509771 226.359137 
L 334.315999 202.262502 
L 335.122227 204.591175 
L 335.928455 210.349878 
L 336.734683 230.902699 
L 337.540911 213.477233 
L 338.347139 230.854756 
L 339.153367 226.162608 
L 339.959595 207.859661 
L 340.765822 185.48292 
L 341.57205 200.989573 
L 342.378278 213.438243 
L 343.064832 192.418401 
L 343.064832 210.046176 
L 343.87106 197.851837 
L 344.677288 204.903285 
L 346.289743 230.922692 
L 347.095971 230.544645 
L 347.902199 204.244377 
L 348.708427 196.96291 
L 349.514655 177.273789 
L 350.320883 215.65089 
L 351.127111 209.785053 
L 351.933339 233.470775 
L 352.739567 224.588768 
L 353.545795 233.942246 
L 354.352023 185.814617 
L 355.158251 228.312493 
L 355.964478 199.721433 
L 356.770706 205.977677 
L 357.576934 206.303299 
L 358.383162 218.3093 
L 359.18939 208.065894 
L 359.995618 210.172993 
L 360.801846 207.183161 
L 362.414302 210.459166 
L 363.22053 202.220913 
L 364.026758 221.720773 
L 364.832986 201.933934 
L 365.639213 222.437768 
L 366.445441 227.995499 
L 367.251669 192.528802 
L 368.057897 219.872845 
L 368.864125 211.407666 
L 369.670353 207.213399 
L 370.476581 211.187931 
L 371.282809 222.889295 
L 372.089037 214.99902 
L 372.895265 201.329322 
L 373.581818 187.463332 
L 373.581818 210.933882 
L 373.581818 210.933882 
" style="fill:none;stroke:#b2331a;stroke-linecap:round;stroke-opacity:0.2;stroke-width:1.5;"/>
   </g>
   <g id="line2d_12">
    <path clip-path="url(#pede23bf5a7)" d="M 69.218182 92.244916 
L 70.02441 102.927392 
L 70.830638 99.753273 
L 71.636866 97.769689 
L 72.443093 102.257175 
L 73.249321 100.114679 
L 74.055549 105.005018 
L 74.861777 106.785671 
L 75.668005 101.578284 
L 76.474233 101.637645 
L 77.280461 101.441325 
L 78.892917 105.863009 
L 79.699145 104.110143 
L 80.505373 106.513476 
L 81.311601 106.090662 
L 82.117829 105.458742 
L 82.924056 107.144605 
L 83.730284 101.70106 
L 84.536512 103.939195 
L 85.34274 106.824704 
L 86.148968 108.767136 
L 86.955196 105.738834 
L 87.761424 109.60299 
L 88.567652 109.697668 
L 89.37388 113.118497 
L 90.180108 104.623835 
L 90.986336 108.457393 
L 91.792564 106.930697 
L 92.598791 109.297993 
L 93.405019 107.573508 
L 94.211247 107.720257 
L 95.017475 109.095471 
L 95.823703 113.997041 
L 96.629931 113.703981 
L 97.436159 115.036857 
L 98.242387 111.695054 
L 98.92894 113.67755 
L 98.92894 106.061236 
L 99.735168 113.268085 
L 100.541396 114.898189 
L 101.347624 111.971769 
L 102.153852 116.703959 
L 102.96008 120.273317 
L 103.766308 122.478932 
L 104.572536 121.874814 
L 105.378764 121.486215 
L 106.184992 124.556516 
L 106.99122 122.338808 
L 107.797447 124.490741 
L 108.603675 125.791889 
L 109.409903 128.822932 
L 110.216131 128.965556 
L 111.022359 134.049079 
L 111.828587 130.296412 
L 112.634815 127.238133 
L 113.441043 125.076099 
L 114.247271 143.905944 
L 115.859727 125.913535 
L 116.665955 135.93355 
L 117.472182 141.346863 
L 118.27841 144.706297 
L 119.084638 139.923942 
L 119.890866 142.085241 
L 120.697094 134.480723 
L 121.503322 149.341994 
L 122.30955 151.306146 
L 123.115778 142.940307 
L 123.922006 153.487025 
L 124.728234 155.749656 
L 125.534462 157.608373 
L 126.34069 152.745023 
L 127.146917 163.98413 
L 127.953145 170.226346 
L 128.759373 163.540507 
L 129.445927 168.88594 
L 129.445927 136.389887 
L 130.252155 160.420232 
L 131.058383 161.03902 
L 131.864611 161.9799 
L 132.670838 173.734867 
L 133.477066 170.64161 
L 134.283294 175.418815 
L 135.089522 173.864685 
L 135.89575 173.897459 
L 136.701978 158.933155 
L 137.508206 157.321522 
L 138.314434 166.074845 
L 139.120662 166.066884 
L 139.92689 180.315787 
L 140.733118 170.526618 
L 142.345573 178.145405 
L 143.151801 173.354249 
L 143.958029 175.118494 
L 144.764257 171.825512 
L 145.570485 189.27801 
L 146.376713 183.789938 
L 147.182941 199.105809 
L 147.989169 182.871428 
L 148.795397 188.231533 
L 149.601625 190.438186 
L 150.407853 189.954725 
L 151.214081 196.777058 
L 152.020308 170.654148 
L 152.826536 183.878294 
L 153.632764 185.94738 
L 154.438992 185.331756 
L 155.24522 200.110258 
L 156.051448 176.593238 
L 156.857676 195.360014 
L 157.663904 179.94433 
L 158.470132 198.44512 
L 159.962913 190.968562 
L 159.962913 179.040435 
L 160.769141 180.940127 
L 161.575369 191.394407 
L 162.381597 208.823991 
L 163.187825 197.877329 
L 163.994053 203.914629 
L 164.800281 200.094436 
L 165.606509 185.369298 
L 166.412737 196.401956 
L 167.218964 192.131083 
L 168.025192 184.056976 
L 168.83142 187.039508 
L 169.637648 191.750056 
L 171.250104 203.40081 
L 172.056332 207.363557 
L 172.86256 194.333852 
L 173.668788 186.783834 
L 174.475016 196.436002 
L 175.281244 168.070267 
L 176.087472 198.126618 
L 176.893699 194.503366 
L 177.699927 213.571635 
L 178.506155 198.523813 
L 179.312383 181.001212 
L 180.118611 183.301667 
L 180.924839 219.324337 
L 181.731067 201.101556 
L 182.537295 196.848009 
L 183.343523 202.012818 
L 184.149751 200.607351 
L 184.955979 192.807015 
L 185.762207 216.516664 
L 186.568434 176.930395 
L 187.374662 200.1586 
L 188.18089 193.190119 
L 189.793346 211.542952 
L 190.4799 212.831992 
L 190.4799 196.484527 
L 191.286128 196.518728 
L 192.092355 189.938253 
L 192.898583 210.792053 
L 193.704811 210.053501 
L 194.511039 214.02608 
L 195.317267 222.718919 
L 196.123495 208.33769 
L 196.929723 197.408793 
L 198.542179 223.706692 
L 199.348407 199.702898 
L 200.154635 216.35214 
L 200.960863 221.231644 
L 201.76709 169.406745 
L 202.573318 206.611143 
L 203.379546 215.431405 
L 204.185774 225.736668 
L 204.992002 204.525634 
L 205.79823 176.484667 
L 207.410686 188.531324 
L 208.216914 191.249268 
L 209.023142 229.241594 
L 209.82937 196.611675 
L 210.635598 223.471043 
L 211.441825 190.937271 
L 212.248053 197.273494 
L 213.054281 199.862962 
L 213.860509 207.232333 
L 214.666737 204.273944 
L 215.472965 208.973674 
L 216.279193 217.213047 
L 217.085421 201.914072 
L 217.891649 203.573934 
L 218.697877 197.110386 
L 219.504105 197.428811 
L 220.310333 188.579504 
L 220.996886 205.367287 
L 220.996886 203.970939 
L 221.803114 194.271107 
L 222.609342 231.299549 
L 223.41557 216.73518 
L 224.221798 219.410165 
L 225.028026 192.446612 
L 225.834254 204.555533 
L 226.640481 208.262253 
L 227.446709 209.571209 
L 228.252937 214.369262 
L 229.059165 192.126181 
L 229.865393 208.191753 
L 230.671621 197.27223 
L 231.477849 206.252174 
L 232.284077 190.251472 
L 233.090305 199.954468 
L 233.896533 214.992094 
L 234.702761 221.693371 
L 235.508989 208.835772 
L 236.315216 202.76259 
L 237.121444 204.64165 
L 237.927672 181.49815 
L 238.7339 209.130941 
L 239.540128 193.907074 
L 240.346356 201.753457 
L 241.152584 196.40445 
L 241.958812 217.161873 
L 242.76504 210.168423 
L 243.571268 207.599862 
L 244.377496 208.889913 
L 245.183724 223.911912 
L 245.989951 220.916299 
L 246.796179 194.637295 
L 247.602407 215.254888 
L 248.408635 224.438819 
L 249.214863 190.15885 
L 250.021091 224.979024 
L 250.827319 202.051829 
L 251.513872 207.046047 
L 252.3201 176.299182 
L 253.126328 184.362129 
L 253.932556 216.551144 
L 254.738784 216.626563 
L 256.35124 206.939382 
L 257.157468 217.524627 
L 257.963696 204.018624 
L 258.769924 212.219677 
L 259.576152 207.823888 
L 260.38238 217.235332 
L 261.994835 220.130701 
L 262.801063 229.047612 
L 263.607291 213.654825 
L 264.413519 203.207499 
L 265.219747 216.673591 
L 266.025975 185.992035 
L 266.832203 204.980877 
L 267.638431 209.386187 
L 268.444659 196.076948 
L 270.057115 205.077956 
L 270.863343 225.525498 
L 271.66957 208.954141 
L 272.475798 207.36083 
L 273.282026 220.495949 
L 274.088254 227.814012 
L 274.894482 208.596359 
L 275.70071 206.105234 
L 276.506938 207.720911 
L 277.313166 208.236422 
L 278.119394 192.347075 
L 278.925622 207.311768 
L 279.73185 203.296632 
L 280.538078 207.498573 
L 281.344305 200.584381 
L 282.030859 220.524503 
L 282.030859 208.569613 
L 282.837087 199.421486 
L 283.643315 203.873323 
L 284.449543 211.692222 
L 285.255771 195.297757 
L 286.061998 219.345238 
L 286.868226 215.403823 
L 287.674454 226.812197 
L 288.480682 202.181605 
L 289.28691 233.195522 
L 290.093138 226.112946 
L 290.899366 201.383597 
L 291.705594 222.897644 
L 292.511822 234.981843 
L 293.31805 216.978045 
L 294.930506 199.457212 
L 295.736734 206.131729 
L 296.542961 229.623512 
L 297.349189 195.079407 
L 298.155417 203.694301 
L 298.961645 204.37796 
L 299.767873 193.824122 
L 300.574101 209.118576 
L 301.380329 215.087489 
L 302.186557 199.178653 
L 302.992785 212.517569 
L 303.799013 224.009535 
L 304.605241 184.524001 
L 305.411469 208.640399 
L 306.217696 212.506094 
L 307.023924 198.220123 
L 307.830152 209.429306 
L 308.63638 205.571687 
L 309.442608 216.887064 
L 310.248836 230.782166 
L 311.055064 195.248257 
L 311.861292 185.558173 
L 312.547845 203.276402 
L 312.547845 209.501426 
L 313.354073 214.887581 
L 314.160301 199.629178 
L 314.966529 204.106718 
L 315.772757 197.916581 
L 316.578985 220.719848 
L 317.385213 208.838315 
L 318.191441 172.613193 
L 318.997669 189.351554 
L 319.803897 202.807598 
L 320.610125 182.94185 
L 321.416352 203.614923 
L 322.22258 181.875193 
L 323.028808 214.662605 
L 323.835036 207.478054 
L 324.641264 204.638825 
L 325.447492 198.53082 
L 326.25372 211.101101 
L 327.059948 202.722767 
L 327.866176 218.073644 
L 328.672404 206.001028 
L 329.478632 210.343863 
L 330.28486 201.962873 
L 331.091087 226.473719 
L 331.897315 205.306972 
L 332.703543 214.229407 
L 333.509771 209.196231 
L 334.315999 208.308458 
L 335.122227 221.949306 
L 335.928455 228.638331 
L 336.734683 209.898774 
L 337.540911 196.043044 
L 338.347139 220.738605 
L 339.153367 219.588261 
L 339.959595 220.475667 
L 340.765822 210.37253 
L 341.57205 206.210218 
L 342.378278 223.611103 
L 343.064832 191.472803 
L 343.064832 207.096069 
L 343.87106 233.283825 
L 344.677288 213.953408 
L 345.483516 206.306181 
L 346.289743 222.35276 
L 347.095971 225.907581 
L 347.902199 220.704422 
L 348.708427 203.769526 
L 349.514655 208.952474 
L 350.320883 240.591851 
L 351.127111 212.977173 
L 351.933339 223.627285 
L 352.739567 221.80962 
L 353.545795 207.322995 
L 354.352023 224.705328 
L 355.158251 199.132529 
L 355.964478 192.818697 
L 356.770706 208.938506 
L 357.576934 220.425174 
L 358.383162 219.185849 
L 359.18939 205.21904 
L 359.995618 201.246758 
L 360.801846 234.181921 
L 361.608074 207.787042 
L 362.414302 215.320143 
L 363.22053 227.936449 
L 364.026758 211.852621 
L 364.832986 205.848805 
L 365.639213 223.961956 
L 366.445441 221.472202 
L 367.251669 206.695183 
L 368.057897 217.669081 
L 368.864125 211.5272 
L 369.670353 176.30691 
L 370.476581 215.522099 
L 371.282809 212.952582 
L 372.089037 214.188637 
L 372.895265 214.812257 
L 373.581818 180.249653 
L 373.581818 213.59118 
L 373.581818 213.59118 
" style="fill:none;stroke:#0000b2;stroke-linecap:round;stroke-opacity:0.2;stroke-width:1.5;"/>
   </g>
   <g id="line2d_13">
    <path clip-path="url(#pede23bf5a7)" d="M 69.218182 44.443636 
L 70.02441 70.786712 
L 70.830638 85.351144 
L 71.636866 82.773289 
L 72.443093 93.263047 
L 73.249321 97.957406 
L 74.055549 91.03596 
L 74.861777 97.788506 
L 75.668005 82.841069 
L 76.474233 114.266934 
L 77.280461 113.462964 
L 78.086689 111.446507 
L 78.892917 118.827356 
L 79.699145 129.803698 
L 80.505373 125.325168 
L 81.311601 123.041037 
L 82.117829 129.826979 
L 82.924056 139.513503 
L 83.730284 142.140223 
L 84.536512 136.02858 
L 85.34274 143.17929 
L 86.148968 142.406004 
L 86.955196 144.688779 
L 87.761424 146.636524 
L 88.567652 153.382854 
L 89.37388 148.789898 
L 90.180108 156.845569 
L 90.986336 155.675575 
L 91.792564 164.215131 
L 92.598791 158.290421 
L 94.211247 171.066862 
L 95.017475 157.501928 
L 95.823703 161.804141 
L 96.629931 157.944725 
L 97.436159 180.095416 
L 98.242387 167.836165 
L 98.92894 177.786563 
L 98.92894 130.943715 
L 99.735168 176.213419 
L 100.541396 185.06072 
L 101.347624 185.769199 
L 102.153852 181.323182 
L 102.96008 183.203365 
L 103.766308 189.34009 
L 104.572536 183.97288 
L 105.378764 198.007967 
L 106.184992 187.053705 
L 106.99122 185.265092 
L 107.797447 184.6549 
L 108.603675 190.134262 
L 109.409903 185.537096 
L 110.216131 184.573282 
L 111.022359 189.950268 
L 111.828587 175.550328 
L 112.634815 179.609589 
L 114.247271 197.286413 
L 115.053499 195.70903 
L 115.859727 184.243068 
L 116.665955 200.328475 
L 117.472182 181.859188 
L 118.27841 196.629659 
L 119.084638 182.262267 
L 119.890866 193.471411 
L 120.697094 197.440183 
L 121.503322 198.825102 
L 123.115778 197.218329 
L 123.922006 192.598404 
L 124.728234 189.591554 
L 125.534462 202.25185 
L 126.34069 221.849701 
L 127.146917 199.44851 
L 127.953145 203.332182 
L 128.759373 194.856521 
L 129.445927 202.341238 
L 129.445927 191.093655 
L 130.252155 184.009129 
L 131.058383 197.163397 
L 131.864611 201.835675 
L 132.670838 217.105362 
L 133.477066 196.305477 
L 134.283294 188.245201 
L 135.089522 196.412968 
L 135.89575 200.756883 
L 136.701978 200.109665 
L 137.508206 179.287647 
L 138.314434 205.149762 
L 139.120662 190.859736 
L 139.92689 199.161186 
L 140.733118 196.497037 
L 141.539346 218.077748 
L 142.345573 210.283107 
L 143.151801 209.80672 
L 143.958029 211.204022 
L 144.764257 207.870595 
L 145.570485 185.69877 
L 146.376713 187.651522 
L 147.182941 201.267129 
L 147.989169 200.588669 
L 148.795397 227.644858 
L 149.601625 194.316921 
L 150.407853 224.213038 
L 151.214081 205.370875 
L 152.020308 205.019372 
L 152.826536 217.243921 
L 153.632764 213.014171 
L 154.438992 220.016041 
L 155.24522 193.694297 
L 156.857676 219.293725 
L 157.663904 210.924386 
L 158.470132 212.983721 
L 159.27636 193.164189 
L 159.962913 220.757302 
L 159.962913 203.8772 
L 160.769141 205.812146 
L 161.575369 218.460216 
L 162.381597 194.46771 
L 163.994053 227.945832 
L 164.800281 201.077971 
L 165.606509 215.426984 
L 166.412737 199.168016 
L 167.218964 202.483035 
L 168.025192 215.163812 
L 168.83142 210.308903 
L 169.637648 214.10821 
L 170.443876 206.68326 
L 171.250104 208.280177 
L 172.056332 201.754107 
L 172.86256 198.357986 
L 173.668788 163.75214 
L 175.281244 226.33266 
L 176.087472 198.189235 
L 176.893699 224.280229 
L 177.699927 219.163239 
L 178.506155 203.436904 
L 179.312383 184.18404 
L 180.118611 216.973068 
L 180.924839 214.013917 
L 181.731067 183.302853 
L 182.537295 207.532873 
L 183.343523 211.015655 
L 184.955979 224.689644 
L 185.762207 208.7771 
L 186.568434 204.311684 
L 187.374662 218.164973 
L 188.18089 210.685382 
L 188.987118 199.833204 
L 189.793346 207.695465 
L 190.4799 208.339138 
L 190.4799 207.339294 
L 192.092355 221.046406 
L 192.898583 205.540742 
L 193.704811 209.411601 
L 194.511039 201.931879 
L 195.317267 221.397655 
L 196.123495 197.643934 
L 196.929723 207.757002 
L 197.735951 208.63003 
L 198.542179 194.112096 
L 199.348407 224.82049 
L 200.154635 227.178886 
L 200.960863 200.023915 
L 201.76709 221.432089 
L 202.573318 210.129157 
L 203.379546 204.738616 
L 204.185774 193.187696 
L 204.992002 219.26432 
L 205.79823 218.187008 
L 206.604458 212.918791 
L 207.410686 212.566056 
L 208.216914 198.120056 
L 209.023142 235.752445 
L 209.82937 211.850167 
L 210.635598 205.209166 
L 211.441825 229.857741 
L 212.248053 222.325106 
L 213.054281 216.894439 
L 214.666737 176.342608 
L 215.472965 214.784088 
L 216.279193 196.983556 
L 217.085421 208.623694 
L 217.891649 206.846771 
L 218.697877 183.702684 
L 219.504105 196.99105 
L 220.310333 218.626206 
L 220.996886 221.48315 
L 220.996886 209.621024 
L 221.803114 215.192924 
L 222.609342 227.680931 
L 223.41557 209.98191 
L 224.221798 204.50301 
L 225.028026 216.432938 
L 225.834254 214.848428 
L 226.640481 225.130915 
L 227.446709 214.024773 
L 228.252937 214.315976 
L 229.059165 211.211452 
L 229.865393 217.918348 
L 231.477849 199.225597 
L 232.284077 219.926619 
L 233.090305 205.198486 
L 233.896533 204.74467 
L 234.702761 182.536073 
L 235.508989 173.998494 
L 236.315216 211.444174 
L 237.121444 224.213999 
L 237.927672 199.173525 
L 238.7339 228.747757 
L 239.540128 211.525491 
L 240.346356 231.554636 
L 241.152584 175.584649 
L 241.958812 218.924327 
L 242.76504 195.386417 
L 243.571268 229.115156 
L 244.377496 194.907385 
L 245.183724 208.173593 
L 245.989951 200.348457 
L 246.796179 222.92048 
L 247.602407 234.54457 
L 248.408635 208.388727 
L 249.214863 226.976099 
L 250.021091 213.317862 
L 250.827319 202.148139 
L 251.513872 208.793261 
L 251.513872 210.826342 
L 252.3201 212.351646 
L 253.126328 186.102309 
L 253.932556 227.954227 
L 254.738784 212.122333 
L 256.35124 220.703415 
L 257.157468 195.01609 
L 257.963696 203.319341 
L 258.769924 202.626337 
L 259.576152 220.260223 
L 260.38238 214.336887 
L 261.188607 190.324027 
L 261.994835 213.419794 
L 263.607291 208.543786 
L 264.413519 213.708665 
L 265.219747 209.468917 
L 266.025975 202.791748 
L 266.832203 213.475743 
L 267.638431 222.336542 
L 268.444659 205.873456 
L 269.250887 221.617521 
L 270.057115 205.330253 
L 270.863343 201.902537 
L 271.66957 219.549342 
L 272.475798 205.976886 
L 273.282026 196.788938 
L 274.088254 219.596342 
L 274.894482 219.415812 
L 275.70071 219.924584 
L 276.506938 222.636991 
L 277.313166 229.442661 
L 278.119394 224.828542 
L 278.925622 213.808803 
L 279.73185 207.907614 
L 280.538078 207.141635 
L 281.344305 210.430241 
L 282.030859 214.978179 
L 282.030859 211.656559 
L 282.837087 211.134119 
L 283.643315 224.723354 
L 284.449543 210.804396 
L 285.255771 225.17717 
L 286.061998 225.256647 
L 286.868226 220.945612 
L 287.674454 213.562283 
L 288.480682 225.889365 
L 289.28691 222.915889 
L 290.093138 213.598829 
L 290.899366 209.527639 
L 291.705594 216.136844 
L 292.511822 208.956143 
L 293.31805 218.165376 
L 294.124278 238.63764 
L 294.930506 219.114403 
L 295.736734 217.128053 
L 296.542961 219.650143 
L 297.349189 209.729927 
L 298.155417 190.430042 
L 298.961645 223.859236 
L 299.767873 214.487256 
L 300.574101 206.733802 
L 301.380329 206.89115 
L 302.186557 201.524879 
L 302.992785 210.32297 
L 303.799013 209.042769 
L 304.605241 218.923395 
L 306.217696 207.980975 
L 307.023924 220.239915 
L 307.830152 206.643094 
L 308.63638 205.686827 
L 309.442608 197.962436 
L 310.248836 185.209277 
L 311.055064 198.979635 
L 311.861292 200.173214 
L 312.547845 224.850449 
L 312.547845 212.957099 
L 314.160301 229.999503 
L 314.966529 212.283474 
L 315.772757 224.201553 
L 316.578985 223.202913 
L 317.385213 194.930221 
L 318.191441 217.376671 
L 318.997669 214.736 
L 319.803897 187.321224 
L 320.610125 219.7375 
L 321.416352 198.168616 
L 322.22258 216.782233 
L 323.028808 221.414685 
L 323.835036 220.773671 
L 324.641264 210.861048 
L 325.447492 214.010487 
L 326.25372 216.074322 
L 327.059948 198.850474 
L 327.866176 221.659601 
L 328.672404 198.187094 
L 329.478632 224.040713 
L 330.28486 224.727352 
L 331.091087 190.069039 
L 331.897315 209.700988 
L 332.703543 217.343995 
L 333.509771 196.113925 
L 334.315999 207.07845 
L 335.122227 216.322738 
L 335.928455 174.816845 
L 336.734683 229.51303 
L 337.540911 216.180874 
L 338.347139 221.618961 
L 339.153367 220.440113 
L 339.959595 227.199864 
L 340.765822 227.204201 
L 341.57205 231.909091 
L 342.378278 206.960353 
L 343.064832 223.951806 
L 343.064832 213.851038 
L 343.87106 203.352433 
L 344.677288 227.19701 
L 346.289743 209.624223 
L 347.095971 214.377978 
L 347.902199 215.976706 
L 348.708427 224.154493 
L 349.514655 209.995218 
L 351.127111 222.354257 
L 351.933339 196.766971 
L 353.545795 242.116364 
L 354.352023 236.049616 
L 355.158251 212.543576 
L 355.964478 213.707189 
L 356.770706 205.259852 
L 357.576934 215.111292 
L 359.18939 203.871571 
L 359.995618 223.687056 
L 360.801846 231.050536 
L 361.608074 211.442941 
L 362.414302 200.283071 
L 363.22053 207.203069 
L 364.026758 199.556312 
L 364.832986 230.849293 
L 365.639213 209.486784 
L 366.445441 197.096627 
L 367.251669 204.129003 
L 368.057897 200.484872 
L 368.864125 222.470213 
L 369.670353 216.892341 
L 370.476581 223.634864 
L 371.282809 220.745693 
L 372.089037 199.561108 
L 372.895265 221.870937 
L 373.581818 213.95973 
L 373.581818 214.446482 
" style="fill:none;stroke:#00b200;stroke-linecap:round;stroke-opacity:0.2;stroke-width:1.5;"/>
   </g>
   <g id="line2d_14">
    <path clip-path="url(#pede23bf5a7)" d="M 69.218182 93.732622 
L 70.02441 96.04208 
L 70.830638 97.224096 
L 71.636866 97.649514 
L 72.443093 97.471089 
L 73.249321 100.724587 
L 74.055549 102.03114 
L 75.668005 108.359981 
L 76.474233 111.330568 
L 78.086689 115.119356 
L 78.892917 115.186044 
L 79.699145 117.076381 
L 80.505373 119.488281 
L 81.311601 122.376513 
L 82.117829 127.964049 
L 82.924056 129.299643 
L 83.730284 129.474298 
L 84.536512 130.712757 
L 85.34274 133.543106 
L 86.148968 135.295682 
L 86.955196 138.050007 
L 87.761424 139.96339 
L 89.37388 141.636508 
L 90.180108 143.45315 
L 90.986336 142.869047 
L 91.792564 144.168503 
L 92.598791 146.472595 
L 93.405019 145.810679 
L 94.211247 145.855556 
L 95.017475 146.943398 
L 95.823703 147.794342 
L 97.436159 151.605912 
L 98.242387 154.09847 
L 98.92894 154.763311 
L 98.92894 150.511725 
L 99.735168 155.189101 
L 100.541396 158.533258 
L 101.347624 159.510195 
L 102.153852 159.349036 
L 103.766308 164.45597 
L 104.572536 167.263842 
L 105.378764 167.304208 
L 106.184992 168.660924 
L 106.99122 171.578314 
L 107.797447 169.654232 
L 108.603675 168.947306 
L 109.409903 167.207798 
L 110.216131 167.825096 
L 111.022359 173.873237 
L 111.828587 176.444307 
L 112.634815 174.793185 
L 115.053499 178.519885 
L 115.859727 179.73815 
L 116.665955 181.843939 
L 117.472182 183.042125 
L 119.084638 187.135579 
L 119.890866 190.205074 
L 120.697094 189.082047 
L 121.503322 190.77915 
L 122.30955 189.535642 
L 123.115778 188.646877 
L 123.922006 190.287987 
L 125.534462 185.676351 
L 126.34069 185.266635 
L 127.146917 183.200588 
L 127.953145 186.087429 
L 128.759373 185.861691 
L 129.445927 186.153152 
L 129.445927 185.036321 
L 130.252155 186.874905 
L 131.058383 189.247151 
L 131.864611 186.35176 
L 132.670838 189.860842 
L 133.477066 190.212974 
L 134.283294 190.372796 
L 135.089522 190.800764 
L 135.89575 195.547629 
L 136.701978 194.91684 
L 137.508206 194.829044 
L 138.314434 195.941546 
L 139.120662 196.14685 
L 139.92689 194.719459 
L 140.733118 197.91162 
L 141.539346 195.310724 
L 143.151801 196.743932 
L 143.958029 198.830185 
L 144.764257 197.990865 
L 145.570485 194.062208 
L 146.376713 196.614416 
L 147.182941 197.305203 
L 147.989169 197.179121 
L 148.795397 198.459307 
L 149.601625 196.231667 
L 150.407853 194.993314 
L 151.214081 188.529444 
L 152.020308 193.956577 
L 152.826536 195.263186 
L 153.632764 194.651393 
L 154.438992 197.322424 
L 155.24522 195.917385 
L 156.051448 195.095486 
L 156.857676 193.907502 
L 157.663904 190.549098 
L 159.27636 198.915148 
L 159.962913 199.718034 
L 159.962913 198.982962 
L 160.769141 199.18265 
L 161.575369 198.846105 
L 162.381597 201.721566 
L 163.187825 200.364258 
L 163.994053 197.954193 
L 164.800281 199.891892 
L 165.606509 195.700675 
L 166.412737 198.440408 
L 167.218964 198.369238 
L 168.025192 196.098639 
L 168.83142 197.244855 
L 169.637648 195.296737 
L 170.443876 198.086969 
L 171.250104 199.906188 
L 172.056332 200.974169 
L 173.668788 204.215945 
L 174.475016 201.119876 
L 175.281244 201.404998 
L 176.087472 202.170857 
L 176.893699 201.249043 
L 177.699927 202.161385 
L 178.506155 204.178147 
L 179.312383 201.570612 
L 180.118611 201.710251 
L 180.924839 201.020348 
L 182.537295 202.317917 
L 183.343523 202.575201 
L 184.149751 204.735529 
L 185.762207 207.742205 
L 186.568434 206.179134 
L 187.374662 207.129999 
L 188.18089 205.69349 
L 188.987118 202.636732 
L 189.793346 201.880959 
L 190.4799 203.9198 
L 190.4799 203.516258 
L 191.286128 203.551515 
L 192.092355 200.356257 
L 192.898583 199.523644 
L 193.704811 203.444666 
L 194.511039 202.428558 
L 195.317267 200.888924 
L 196.123495 204.597509 
L 196.929723 205.927929 
L 197.735951 209.984427 
L 198.542179 206.949977 
L 199.348407 207.158654 
L 200.154635 206.152941 
L 200.960863 202.186037 
L 201.76709 203.998796 
L 202.573318 205.373429 
L 203.379546 205.223019 
L 204.185774 206.140336 
L 204.992002 198.035025 
L 205.79823 200.969037 
L 207.410686 197.465444 
L 208.216914 200.363946 
L 209.023142 200.537849 
L 209.82937 203.047858 
L 210.635598 204.12273 
L 211.441825 207.046407 
L 212.248053 206.559891 
L 213.054281 207.421523 
L 213.860509 207.68164 
L 214.666737 205.684362 
L 215.472965 206.196188 
L 216.279193 207.78207 
L 217.085421 207.118125 
L 217.891649 208.160503 
L 218.697877 204.881575 
L 219.504105 203.870491 
L 220.310333 210.147138 
L 220.996886 207.488639 
L 220.996886 206.963544 
L 221.803114 206.511824 
L 222.609342 203.271612 
L 223.41557 205.393004 
L 224.221798 206.963616 
L 225.834254 203.491487 
L 226.640481 206.105758 
L 227.446709 200.40878 
L 228.252937 201.159384 
L 229.059165 201.43007 
L 229.865393 204.20116 
L 230.671621 205.123301 
L 231.477849 200.899075 
L 232.284077 205.150001 
L 233.090305 206.382874 
L 233.896533 209.093839 
L 234.702761 210.287735 
L 235.508989 208.273597 
L 236.315216 207.389931 
L 237.121444 208.04337 
L 237.927672 207.81791 
L 238.7339 209.029026 
L 239.540128 206.074723 
L 240.346356 207.566539 
L 241.152584 203.063759 
L 241.958812 205.34033 
L 242.76504 205.195783 
L 243.571268 204.039556 
L 244.377496 204.84288 
L 245.183724 209.970312 
L 245.989951 207.843593 
L 246.796179 204.403561 
L 247.602407 206.55038 
L 248.408635 209.459387 
L 249.214863 208.912145 
L 250.021091 209.476356 
L 250.827319 211.77281 
L 251.513872 210.985062 
L 251.513872 210.119445 
L 252.3201 207.389681 
L 253.126328 206.244419 
L 253.932556 207.023731 
L 254.738784 204.245551 
L 255.545012 207.192562 
L 256.35124 207.614927 
L 257.157468 205.566801 
L 257.963696 205.384 
L 258.769924 206.13634 
L 259.576152 209.530683 
L 260.38238 208.556545 
L 261.188607 206.161841 
L 261.994835 206.108602 
L 262.801063 206.51947 
L 264.413519 212.924425 
L 266.025975 209.639118 
L 266.832203 208.87939 
L 267.638431 210.982337 
L 269.250887 211.609535 
L 270.863343 217.663527 
L 271.66957 216.499871 
L 272.475798 210.322206 
L 273.282026 208.915219 
L 274.088254 209.935406 
L 274.894482 210.592063 
L 275.70071 209.528578 
L 276.506938 206.141094 
L 277.313166 206.515088 
L 278.119394 199.93985 
L 278.925622 203.6745 
L 279.73185 203.855651 
L 280.538078 206.700559 
L 281.344305 208.650976 
L 282.030859 206.234298 
L 282.030859 206.597394 
L 282.837087 207.91152 
L 283.643315 203.364509 
L 284.449543 207.563032 
L 285.255771 207.289607 
L 286.061998 208.557831 
L 286.868226 209.370793 
L 287.674454 206.172887 
L 288.480682 206.609506 
L 289.28691 203.922494 
L 290.093138 209.116809 
L 290.899366 210.131227 
L 291.705594 207.680533 
L 292.511822 204.604049 
L 293.31805 205.157644 
L 294.124278 206.766261 
L 295.736734 209.058459 
L 296.542961 209.328471 
L 297.349189 206.998584 
L 298.155417 208.911327 
L 298.961645 209.076491 
L 299.767873 211.387505 
L 300.574101 208.476564 
L 301.380329 210.754891 
L 302.186557 204.798202 
L 302.992785 203.932267 
L 303.799013 206.007798 
L 304.605241 206.112154 
L 305.411469 209.493023 
L 306.217696 210.439553 
L 307.023924 204.781993 
L 307.830152 207.489971 
L 308.63638 207.479567 
L 309.442608 206.807702 
L 310.248836 210.418692 
L 311.055064 212.541709 
L 311.861292 215.469447 
L 312.547845 217.34574 
L 312.547845 215.718677 
L 313.354073 216.370974 
L 314.160301 214.744052 
L 314.966529 212.546503 
L 315.772757 209.084988 
L 317.385213 207.302785 
L 318.191441 210.320583 
L 318.997669 209.671224 
L 319.803897 209.773934 
L 320.610125 212.004363 
L 321.416352 209.87348 
L 322.22258 209.769318 
L 323.028808 210.854495 
L 323.835036 207.018183 
L 324.641264 208.055619 
L 325.447492 210.09218 
L 326.25372 208.092315 
L 327.059948 211.777928 
L 327.866176 210.73615 
L 328.672404 210.931669 
L 329.478632 210.643335 
L 330.28486 209.73701 
L 331.091087 209.157503 
L 331.897315 212.854463 
L 332.703543 209.43697 
L 333.509771 212.821404 
L 334.315999 210.709623 
L 335.122227 209.485934 
L 335.928455 209.658722 
L 336.734683 213.907518 
L 337.540911 213.821461 
L 338.347139 217.22812 
L 339.153367 219.015018 
L 339.959595 216.783946 
L 340.765822 210.523741 
L 341.57205 208.616907 
L 342.378278 209.581175 
L 343.064832 206.14862 
L 343.064832 206.928131 
L 343.87106 205.112872 
L 344.677288 205.070955 
L 345.483516 207.561932 
L 346.289743 212.234084 
L 347.095971 215.896197 
L 347.902199 213.565833 
L 348.708427 210.245248 
L 349.514655 203.650956 
L 350.320883 206.050943 
L 351.127111 206.797765 
L 351.933339 212.132367 
L 352.739567 214.623647 
L 353.545795 218.487367 
L 354.352023 211.952817 
L 355.158251 215.224752 
L 355.964478 212.124088 
L 356.770706 210.894806 
L 357.576934 209.976505 
L 358.383162 211.643064 
L 359.18939 210.92763 
L 359.995618 210.776702 
L 360.801846 210.057994 
L 361.608074 209.8096 
L 362.414302 209.939513 
L 363.22053 208.395793 
L 364.026758 211.060789 
L 364.832986 209.235418 
L 365.639213 211.875888 
L 366.445441 215.09981 
L 367.251669 210.585608 
L 368.057897 212.443056 
L 368.864125 212.235978 
L 369.670353 211.231462 
L 370.476581 211.222756 
L 371.282809 213.556064 
L 372.089037 213.844655 
L 372.895265 211.341588 
L 373.581818 206.565937 
L 373.581818 207.439526 
L 373.581818 207.439526 
" style="fill:none;stroke:#b2331a;stroke-linecap:round;stroke-width:1.5;"/>
   </g>
   <g id="line2d_15">
    <path clip-path="url(#pede23bf5a7)" d="M 69.218182 92.244916 
L 70.02441 94.381411 
L 70.830638 95.455784 
L 71.636866 95.918565 
L 72.443093 97.186287 
L 73.249321 97.771965 
L 74.861777 100.731995 
L 77.280461 101.12709 
L 78.086689 101.614034 
L 78.892917 102.463829 
L 79.699145 102.793092 
L 80.505373 103.537169 
L 81.311601 104.047867 
L 82.117829 104.330042 
L 82.924056 104.892955 
L 83.730284 104.254576 
L 84.536512 104.1915 
L 85.34274 104.718141 
L 86.148968 105.52794 
L 86.955196 105.570119 
L 88.567652 107.040888 
L 89.37388 108.25641 
L 90.180108 107.529895 
L 90.986336 107.715394 
L 91.792564 107.558455 
L 92.598791 107.906362 
L 94.211247 107.815885 
L 95.017475 108.071802 
L 95.823703 109.25685 
L 97.436159 111.124392 
L 98.242387 111.238525 
L 98.92894 111.72633 
L 98.92894 110.593311 
L 99.735168 111.128266 
L 100.541396 111.88225 
L 101.347624 111.900154 
L 102.153852 112.860915 
L 104.572536 117.151365 
L 105.378764 118.018335 
L 106.184992 119.325971 
L 106.99122 119.928539 
L 108.603675 121.831161 
L 109.409903 123.229515 
L 110.216131 124.376723 
L 111.022359 126.311194 
L 111.828587 127.108238 
L 112.634815 127.134217 
L 113.441043 126.722593 
L 114.247271 130.159263 
L 115.053499 131.116659 
L 115.859727 130.076034 
L 116.665955 131.247537 
L 118.27841 135.555181 
L 119.084638 136.428933 
L 119.890866 137.560195 
L 120.697094 136.944301 
L 122.30955 141.800301 
L 123.115778 142.028302 
L 125.534462 148.806449 
L 126.34069 149.594164 
L 127.146917 152.472157 
L 127.953145 156.022995 
L 128.759373 157.526497 
L 129.445927 159.798386 
L 129.445927 155.116686 
L 131.864611 158.115756 
L 132.670838 161.239578 
L 133.477066 163.119985 
L 134.283294 165.579751 
L 135.089522 167.236738 
L 135.89575 168.568882 
L 137.508206 164.777694 
L 139.120662 165.243076 
L 139.92689 168.257618 
L 140.733118 168.711418 
L 141.539346 169.856151 
L 142.345573 171.514002 
L 143.151801 171.882051 
L 143.958029 172.52934 
L 144.764257 172.388574 
L 145.570485 175.766461 
L 146.376713 177.371157 
L 147.182941 181.718087 
L 147.989169 181.948755 
L 150.407853 185.712454 
L 151.214081 187.925374 
L 152.020308 184.471129 
L 152.826536 184.352562 
L 153.632764 184.671526 
L 154.438992 184.803572 
L 155.24522 187.864909 
L 156.051448 185.610575 
L 156.857676 187.560463 
L 157.663904 186.037236 
L 158.470132 188.518813 
L 159.27636 189.717672 
L 159.962913 189.96785 
L 159.962913 187.782367 
L 160.769141 186.413919 
L 161.575369 187.410017 
L 162.381597 191.692811 
L 163.187825 192.929715 
L 163.994053 195.126698 
L 164.800281 196.120245 
L 165.606509 193.970056 
L 166.412737 194.456436 
L 167.218964 193.991365 
L 168.025192 192.004488 
L 168.83142 191.011492 
L 169.637648 191.159204 
L 170.443876 192.393086 
L 171.250104 194.59463 
L 172.056332 197.148416 
L 172.86256 196.585503 
L 173.668788 194.625169 
L 174.475016 194.987336 
L 175.281244 189.603922 
L 176.087472 191.308461 
L 176.893699 191.947442 
L 177.699927 196.272281 
L 178.506155 196.722587 
L 179.312383 193.578312 
L 180.118611 191.522983 
L 180.924839 197.083254 
L 181.731067 197.886914 
L 182.537295 197.679133 
L 183.343523 198.54587 
L 184.149751 198.958167 
L 184.955979 197.727936 
L 185.762207 201.485682 
L 186.568434 196.574624 
L 187.374662 197.291419 
L 188.18089 196.471159 
L 188.987118 197.662463 
L 190.4799 202.917247 
L 190.4799 201.630703 
L 191.286128 200.608308 
L 192.092355 198.474297 
L 192.898583 200.937848 
L 193.704811 202.760979 
L 194.511039 205.013999 
L 195.317267 208.554983 
L 196.123495 208.511524 
L 196.929723 206.290978 
L 197.735951 207.098113 
L 198.542179 210.419828 
L 199.348407 208.276442 
L 200.154635 209.891582 
L 200.960863 212.159594 
L 201.76709 203.609024 
L 202.573318 204.209448 
L 203.379546 206.45384 
L 204.185774 210.310405 
L 204.992002 209.153451 
L 205.79823 202.619694 
L 206.604458 198.685169 
L 207.410686 196.6544 
L 208.216914 195.573374 
L 209.023142 202.307018 
L 209.82937 201.167949 
L 210.635598 205.628568 
L 211.441825 202.690309 
L 212.248053 201.606946 
L 213.054281 201.258149 
L 213.860509 202.452986 
L 214.666737 202.817177 
L 215.472965 204.048477 
L 216.279193 206.681391 
L 217.085421 205.727927 
L 217.891649 205.297128 
L 218.697877 203.65978 
L 219.504105 202.413586 
L 220.310333 199.64677 
L 220.996886 200.790873 
L 220.996886 201.426886 
L 221.803114 199.99573 
L 222.609342 206.256494 
L 224.221798 210.563818 
L 225.028026 206.940377 
L 225.834254 206.463408 
L 226.640481 206.823177 
L 227.446709 207.372784 
L 228.252937 208.772079 
L 229.059165 205.4429 
L 229.865393 205.99267 
L 230.671621 204.248582 
L 231.477849 204.649301 
L 232.284077 201.769735 
L 233.090305 201.406682 
L 233.896533 204.123764 
L 234.702761 207.637685 
L 235.508989 207.877303 
L 236.315216 206.85436 
L 237.121444 206.411818 
L 237.927672 201.429085 
L 238.7339 202.969456 
L 239.540128 201.156979 
L 240.346356 201.276275 
L 241.152584 200.30191 
L 241.958812 203.673903 
L 242.76504 204.972807 
L 243.571268 205.498218 
L 244.377496 206.176557 
L 245.183724 209.723628 
L 245.989951 211.962162 
L 246.796179 208.497189 
L 247.602407 209.848728 
L 248.408635 212.766747 
L 249.214863 208.245167 
L 250.021091 211.591939 
L 250.827319 209.683917 
L 251.513872 209.143675 
L 251.513872 208.724149 
L 252.3201 202.239156 
L 253.126328 198.66375 
L 253.932556 202.241229 
L 254.738784 205.118296 
L 255.545012 206.444223 
L 256.35124 206.543255 
L 257.157468 208.739529 
L 257.963696 207.795348 
L 258.769924 208.680214 
L 259.576152 208.508949 
L 261.994835 213.573398 
L 262.801063 216.668241 
L 263.607291 216.065557 
L 264.413519 213.493946 
L 265.219747 214.129875 
L 266.025975 208.502307 
L 266.832203 207.798021 
L 267.638431 208.115654 
L 268.444659 205.707913 
L 269.250887 204.729808 
L 270.057115 204.799438 
L 270.863343 208.94465 
L 271.66957 208.946548 
L 272.475798 208.629404 
L 273.282026 211.002713 
L 274.088254 214.364973 
L 274.894482 213.21125 
L 275.70071 211.790047 
L 276.506938 210.97622 
L 277.313166 210.42826 
L 278.119394 206.812023 
L 278.925622 206.911972 
L 279.73185 206.188904 
L 280.538078 206.450838 
L 281.344305 205.277547 
L 282.030859 208.375473 
L 282.837087 206.584675 
L 283.643315 206.042405 
L 284.449543 207.172368 
L 285.255771 204.797446 
L 286.061998 207.707005 
L 286.868226 209.246368 
L 287.674454 212.759534 
L 288.480682 210.643948 
L 289.28691 215.154263 
L 290.093138 217.345999 
L 290.899366 214.153519 
L 291.705594 215.902344 
L 292.511822 219.718244 
L 293.31805 219.170204 
L 294.124278 216.898004 
L 294.930506 213.409846 
L 295.736734 211.954222 
L 296.542961 215.48808 
L 297.349189 211.406345 
L 298.155417 209.863937 
L 298.961645 208.766741 
L 299.767873 205.778217 
L 300.574101 206.446289 
L 301.380329 208.174529 
L 302.186557 206.375354 
L 302.992785 207.603797 
L 303.799013 210.884944 
L 304.605241 205.612756 
L 305.411469 206.218284 
L 306.217696 207.475846 
L 307.023924 205.624702 
L 307.830152 206.385622 
L 308.63638 206.222835 
L 309.442608 208.355681 
L 310.248836 212.840978 
L 311.055064 209.322434 
L 311.861292 204.569582 
L 312.547845 204.310946 
L 312.547845 205.349042 
L 313.354073 207.25675 
L 314.160301 205.731235 
L 314.966529 205.406332 
L 315.772757 203.908382 
L 316.578985 207.270675 
L 317.385213 207.584203 
L 318.191441 200.590001 
L 318.997669 198.342312 
L 319.803897 199.235369 
L 320.610125 195.976665 
L 321.416352 197.504317 
L 322.22258 194.378492 
L 323.028808 198.435315 
L 323.835036 200.243862 
L 324.641264 201.122855 
L 325.447492 200.604448 
L 326.25372 202.703779 
L 327.059948 202.707576 
L 327.866176 205.78079 
L 328.672404 205.824837 
L 329.478632 206.728643 
L 330.28486 205.775489 
L 331.091087 209.915135 
L 331.897315 208.993502 
L 332.703543 210.040683 
L 333.509771 209.871793 
L 334.315999 209.559126 
L 335.122227 212.037162 
L 335.928455 215.357396 
L 336.734683 214.265671 
L 337.540911 210.621146 
L 338.347139 212.644638 
L 339.959595 215.321823 
L 340.765822 214.331965 
L 341.57205 212.707615 
L 342.378278 214.888313 
L 343.064832 209.583383 
L 343.87106 214.323471 
L 344.677288 214.249458 
L 345.483516 212.660803 
L 346.289743 214.599194 
L 347.095971 216.860872 
L 347.902199 217.629582 
L 348.708427 214.857571 
L 349.514655 213.676551 
L 350.320883 219.059611 
L 351.127111 217.843124 
L 351.933339 218.999956 
L 352.739567 219.561889 
L 353.545795 217.11411 
L 354.352023 218.632354 
L 355.964478 210.349651 
L 356.770706 210.067422 
L 357.576934 212.138972 
L 358.383162 213.548347 
L 359.18939 211.882486 
L 359.995618 209.75534 
L 360.801846 214.640657 
L 361.608074 213.269934 
L 362.414302 213.679976 
L 363.22053 216.53127 
L 364.026758 215.59554 
L 364.832986 213.646193 
L 365.639213 215.709346 
L 366.445441 216.861917 
L 367.251669 214.82857 
L 368.057897 215.396672 
L 368.864125 214.622778 
L 369.670353 206.959604 
L 370.476581 208.672103 
L 372.895265 211.330681 
L 373.581818 205.114475 
L 373.581818 206.809816 
L 373.581818 206.809816 
" style="fill:none;stroke:#0000b2;stroke-linecap:round;stroke-width:1.5;"/>
   </g>
   <g id="line2d_16">
    <path clip-path="url(#pede23bf5a7)" d="M 69.218182 44.443636 
L 70.02441 49.712252 
L 70.830638 56.84003 
L 71.636866 62.026682 
L 73.249321 74.210645 
L 74.055549 77.575708 
L 74.861777 81.618268 
L 75.668005 81.862828 
L 76.474233 88.343649 
L 77.280461 93.367512 
L 78.086689 96.983311 
L 78.892917 101.35212 
L 79.699145 107.042436 
L 80.505373 110.698982 
L 81.311601 113.167393 
L 82.117829 116.49931 
L 83.730284 125.309764 
L 84.536512 127.453527 
L 85.34274 130.59868 
L 87.761424 137.572002 
L 88.567652 140.734172 
L 89.37388 142.345318 
L 90.180108 145.245368 
L 90.986336 147.331409 
L 91.792564 150.708154 
L 92.598791 152.224607 
L 93.405019 154.728646 
L 94.211247 157.996289 
L 95.017475 157.897417 
L 95.823703 158.678762 
L 96.629931 158.531954 
L 97.436159 162.844647 
L 98.242387 163.84295 
L 98.92894 166.631673 
L 98.92894 159.494081 
L 99.735168 162.837949 
L 100.541396 167.282503 
L 101.347624 170.979842 
L 102.96008 175.079481 
L 103.766308 177.931603 
L 104.572536 179.139858 
L 105.378764 182.91348 
L 106.184992 183.741525 
L 106.99122 184.046238 
L 107.797447 184.167971 
L 108.603675 185.361229 
L 109.409903 185.396402 
L 110.216131 185.231778 
L 111.022359 186.175476 
L 111.828587 184.050447 
L 112.634815 183.162275 
L 113.441043 184.22343 
L 114.247271 186.836027 
L 115.053499 188.610628 
L 115.859727 187.737116 
L 116.665955 190.255387 
L 117.472182 188.576148 
L 118.27841 190.18685 
L 119.084638 188.601933 
L 119.890866 189.575829 
L 121.503322 192.68398 
L 122.30955 193.746763 
L 123.115778 194.441076 
L 123.922006 194.072542 
L 124.728234 193.176344 
L 125.534462 194.991445 
L 126.34069 200.363097 
L 127.146917 200.180179 
L 127.953145 200.81058 
L 128.759373 199.619768 
L 129.445927 200.164062 
L 129.445927 198.349981 
L 130.252155 195.48181 
L 131.058383 195.818128 
L 131.864611 197.021637 
L 132.670838 201.038382 
L 133.477066 200.091801 
L 134.283294 197.722481 
L 135.089522 197.460578 
L 135.89575 198.119839 
L 136.701978 198.517805 
L 137.508206 194.671773 
L 138.314434 196.767371 
L 139.120662 195.585844 
L 139.92689 196.300912 
L 140.733118 196.340137 
L 141.539346 200.687659 
L 142.345573 202.606749 
L 143.958029 205.478199 
L 144.764257 205.956678 
L 145.570485 201.905096 
L 146.376713 199.054382 
L 147.182941 199.496931 
L 147.989169 199.715279 
L 148.795397 205.301194 
L 149.601625 203.10434 
L 150.407853 207.326079 
L 152.020308 206.551905 
L 152.826536 208.690308 
L 153.632764 209.555081 
L 154.438992 211.647273 
L 155.24522 208.056678 
L 156.051448 207.81236 
L 156.857676 210.108633 
L 157.663904 210.271784 
L 158.470132 210.814171 
L 159.27636 207.284175 
L 159.962913 209.9788 
L 159.962913 208.75848 
L 160.769141 208.169213 
L 161.575369 210.227414 
L 162.381597 207.075473 
L 163.187825 207.707137 
L 163.994053 211.754876 
L 164.800281 209.619495 
L 165.606509 210.780993 
L 166.412737 208.458397 
L 167.218964 207.263325 
L 168.025192 208.843422 
L 168.83142 209.136518 
L 169.637648 210.130857 
L 170.443876 209.441337 
L 171.250104 209.209105 
L 172.056332 207.718106 
L 172.86256 205.846082 
L 173.668788 197.427293 
L 174.475016 197.25892 
L 175.281244 203.073668 
L 176.087472 202.096781 
L 176.893699 206.533471 
L 177.699927 209.059424 
L 178.506155 207.93492 
L 179.312383 203.184744 
L 180.118611 205.942409 
L 180.924839 207.556711 
L 181.731067 202.705939 
L 182.537295 203.671326 
L 183.343523 205.140192 
L 184.149751 207.722266 
L 184.955979 211.115741 
L 185.762207 210.648013 
L 186.568434 209.380747 
L 187.374662 211.137592 
L 188.18089 211.04715 
L 188.987118 208.804361 
L 189.793346 208.582582 
L 190.4799 208.533893 
L 190.4799 208.294973 
L 191.286128 209.43197 
L 192.092355 211.754857 
L 192.898583 210.512034 
L 193.704811 210.291948 
L 194.511039 208.619934 
L 195.317267 211.175478 
L 196.123495 208.469169 
L 196.929723 208.326736 
L 197.735951 208.387394 
L 198.542179 205.532335 
L 200.154635 212.94775 
L 200.960863 210.362983 
L 201.76709 212.576804 
L 202.573318 212.087275 
L 203.379546 210.617543 
L 204.185774 207.131574 
L 204.992002 209.558123 
L 205.79823 211.2839 
L 206.604458 211.610878 
L 207.410686 211.801914 
L 208.216914 209.065542 
L 209.023142 214.402923 
L 209.82937 213.892371 
L 210.635598 212.15573 
L 211.441825 215.696132 
L 212.248053 217.021927 
L 213.054281 216.996429 
L 213.860509 213.010825 
L 214.666737 205.677182 
L 215.472965 207.498563 
L 216.279193 205.395562 
L 217.085421 206.041188 
L 217.891649 206.202305 
L 218.697877 201.70238 
L 219.504105 200.760114 
L 220.996886 207.763296 
L 220.996886 208.134842 
L 221.803114 209.546458 
L 222.609342 213.173353 
L 223.41557 212.535064 
L 224.221798 210.928653 
L 225.028026 212.02951 
L 225.834254 212.593294 
L 226.640481 215.100818 
L 228.252937 214.771682 
L 229.059165 214.059636 
L 229.865393 214.831379 
L 230.671621 213.47289 
L 231.477849 210.623432 
L 232.284077 212.484069 
L 233.896533 209.770496 
L 235.508989 198.258588 
L 236.315216 200.895705 
L 237.121444 205.559364 
L 237.927672 204.282196 
L 238.7339 209.175308 
L 239.540128 209.645345 
L 240.346356 214.027203 
L 241.152584 206.338692 
L 241.958812 208.855819 
L 242.76504 206.161939 
L 243.571268 210.752582 
L 244.377496 207.583543 
L 245.183724 207.701553 
L 245.989951 206.230934 
L 246.796179 209.568843 
L 247.602407 214.563988 
L 248.408635 213.328936 
L 249.214863 216.058369 
L 250.021091 215.510267 
L 250.827319 212.837842 
L 251.513872 212.028926 
L 251.513872 211.788409 
L 252.3201 211.901056 
L 253.126328 206.741307 
L 253.932556 210.983891 
L 254.738784 211.211579 
L 255.545012 212.284196 
L 256.35124 213.96804 
L 257.157468 210.17765 
L 258.769924 207.570058 
L 259.576152 210.108091 
L 260.38238 210.95385 
L 261.188607 206.827886 
L 261.994835 208.146267 
L 262.801063 208.688068 
L 263.607291 208.659211 
L 264.413519 209.669102 
L 265.219747 209.629065 
L 266.025975 208.261602 
L 266.832203 209.30443 
L 267.638431 211.910852 
L 268.444659 210.703373 
L 269.250887 212.886203 
L 270.057115 211.375013 
L 270.863343 209.480518 
L 271.66957 211.494283 
L 272.475798 210.390803 
L 273.282026 207.67043 
L 274.088254 210.055612 
L 275.70071 213.527039 
L 276.506938 215.349029 
L 277.313166 218.167755 
L 278.119394 219.499913 
L 278.925622 218.361691 
L 280.538078 214.445027 
L 281.344305 213.64207 
L 282.030859 213.909292 
L 282.030859 213.458745 
L 282.837087 212.99382 
L 283.643315 215.339727 
L 284.449543 214.432661 
L 285.255771 216.581563 
L 286.061998 218.31658 
L 286.868226 218.842386 
L 287.674454 217.786366 
L 288.480682 219.406965 
L 289.28691 220.10875 
L 290.093138 218.806766 
L 290.899366 216.95094 
L 291.705594 216.788121 
L 292.511822 215.221726 
L 293.31805 215.810456 
L 294.124278 220.375892 
L 294.930506 220.123594 
L 295.736734 219.524486 
L 296.542961 219.549618 
L 297.349189 217.58568 
L 298.155417 212.154552 
L 298.961645 214.495489 
L 299.767873 214.493842 
L 300.574101 212.941834 
L 301.380329 211.731697 
L 302.186557 209.690334 
L 302.992785 209.816861 
L 303.799013 209.662042 
L 304.605241 211.514313 
L 305.411469 211.839453 
L 306.217696 211.067757 
L 307.023924 212.902189 
L 308.63638 210.457661 
L 309.442608 207.958616 
L 310.248836 203.408748 
L 311.055064 202.522926 
L 311.861292 202.052983 
L 312.547845 206.612477 
L 312.547845 207.881401 
L 313.354073 210.720159 
L 314.160301 214.576028 
L 314.966529 214.117517 
L 315.772757 216.134324 
L 316.578985 217.548042 
L 317.385213 213.024478 
L 318.191441 213.894916 
L 318.997669 214.063133 
L 319.803897 208.714751 
L 320.610125 210.919301 
L 321.416352 208.369164 
L 322.22258 210.051778 
L 323.028808 212.324359 
L 323.835036 214.014222 
L 324.641264 213.383587 
L 325.447492 213.508967 
L 326.25372 214.022038 
L 327.059948 210.987725 
L 327.866176 213.1221 
L 328.672404 210.135099 
L 329.478632 212.916222 
L 330.28486 215.278448 
L 331.091087 210.236566 
L 331.897315 210.129451 
L 332.703543 211.57236 
L 333.509771 208.480673 
L 334.315999 208.200228 
L 335.122227 209.82473 
L 335.928455 202.823153 
L 336.734683 208.161128 
L 337.540911 209.765077 
L 338.347139 212.135854 
L 339.153367 213.796706 
L 339.959595 216.477338 
L 340.765822 218.62271 
L 341.57205 221.279986 
L 342.378278 218.41606 
L 343.064832 219.523209 
L 343.064832 218.388775 
L 343.87106 215.381506 
L 344.677288 217.744607 
L 345.483516 217.950025 
L 346.289743 216.284865 
L 347.095971 215.903488 
L 347.902199 215.918131 
L 348.708427 217.565404 
L 349.514655 216.051366 
L 350.320883 216.000308 
L 351.127111 217.271098 
L 351.933339 213.170272 
L 352.739567 214.177993 
L 353.545795 219.765667 
L 354.352023 223.022457 
L 355.158251 220.926681 
L 355.964478 219.482783 
L 356.770706 216.638197 
L 357.576934 216.332816 
L 358.383162 214.917088 
L 359.18939 212.707985 
L 359.995618 214.903799 
L 360.801846 218.133146 
L 361.608074 216.795105 
L 362.414302 213.492698 
L 363.22053 212.234773 
L 364.026758 209.69908 
L 364.832986 213.929123 
L 365.639213 213.040655 
L 366.445441 209.851849 
L 367.251669 208.70728 
L 368.057897 207.062799 
L 368.864125 210.144282 
L 369.670353 211.493893 
L 370.476581 213.922088 
L 371.282809 215.286809 
L 372.089037 212.141668 
L 372.895265 214.087522 
L 373.581818 214.061964 
L 373.581818 214.138868 
" style="fill:none;stroke:#00b200;stroke-linecap:round;stroke-width:1.5;"/>
   </g>
   <g id="patch_3">
    <path d="M 54 252 
L 54 34.56 
" style="fill:none;stroke:#ffffff;stroke-linecap:square;stroke-linejoin:miter;stroke-width:1.25;"/>
   </g>
   <g id="patch_4">
    <path d="M 388.8 252 
L 388.8 34.56 
" style="fill:none;stroke:#ffffff;stroke-linecap:square;stroke-linejoin:miter;stroke-width:1.25;"/>
   </g>
   <g id="patch_5">
    <path d="M 54 252 
L 388.8 252 
" style="fill:none;stroke:#ffffff;stroke-linecap:square;stroke-linejoin:miter;stroke-width:1.25;"/>
   </g>
   <g id="patch_6">
    <path d="M 54 34.56 
L 388.8 34.56 
" style="fill:none;stroke:#ffffff;stroke-linecap:square;stroke-linejoin:miter;stroke-width:1.25;"/>
   </g>
   <g id="legend_1">
    <g id="patch_7">
     <path d="M 227.627656 90.3025 
L 381.1 90.3025 
Q 383.3 90.3025 383.3 88.1025 
L 383.3 42.26 
Q 383.3 40.06 381.1 40.06 
L 227.627656 40.06 
Q 225.427656 40.06 225.427656 42.26 
L 225.427656 88.1025 
Q 225.427656 90.3025 227.627656 90.3025 
z
" style="fill:#eaeaf2;opacity:0.8;stroke:#cccccc;stroke-linejoin:miter;"/>
    </g>
    <g id="line2d_17">
     <path d="M 229.827656 48.483594 
L 251.827656 48.483594 
" style="fill:none;stroke:#b2331a;stroke-linecap:round;stroke-width:1.5;"/>
    </g>
    <g id="line2d_18"/>
    <g id="text_11">
     <!-- MLP + TAS Walks -->
     <defs>
      <path d="M 7.421875 0 
L 7.421875 71.578125 
L 21.6875 71.578125 
L 38.625 20.90625 
Q 40.96875 13.8125 42.046875 10.296875 
Q 43.265625 14.203125 45.84375 21.78125 
L 62.984375 71.578125 
L 75.734375 71.578125 
L 75.734375 0 
L 66.609375 0 
L 66.609375 59.90625 
L 45.796875 0 
L 37.25 0 
L 16.546875 60.9375 
L 16.546875 0 
z
" id="ArialMT-77"/>
      <path d="M 7.328125 0 
L 7.328125 71.578125 
L 16.796875 71.578125 
L 16.796875 8.453125 
L 52.046875 8.453125 
L 52.046875 0 
z
" id="ArialMT-76"/>
      <path d="M 7.71875 0 
L 7.71875 71.578125 
L 34.71875 71.578125 
Q 41.84375 71.578125 45.609375 70.90625 
Q 50.875 70.015625 54.4375 67.546875 
Q 58.015625 65.09375 60.1875 60.640625 
Q 62.359375 56.203125 62.359375 50.875 
Q 62.359375 41.75 56.546875 35.421875 
Q 50.734375 29.109375 35.546875 29.109375 
L 17.1875 29.109375 
L 17.1875 0 
z
M 17.1875 37.546875 
L 35.6875 37.546875 
Q 44.875 37.546875 48.734375 40.96875 
Q 52.59375 44.390625 52.59375 50.59375 
Q 52.59375 55.078125 50.3125 58.265625 
Q 48.046875 61.46875 44.34375 62.5 
Q 41.9375 63.140625 35.5 63.140625 
L 17.1875 63.140625 
z
" id="ArialMT-80"/>
      <path id="ArialMT-32"/>
      <path d="M 25.046875 11.578125 
L 25.046875 31.203125 
L 5.5625 31.203125 
L 5.5625 39.40625 
L 25.046875 39.40625 
L 25.046875 58.890625 
L 33.34375 58.890625 
L 33.34375 39.40625 
L 52.828125 39.40625 
L 52.828125 31.203125 
L 33.34375 31.203125 
L 33.34375 11.578125 
z
" id="ArialMT-43"/>
      <path d="M 25.921875 0 
L 25.921875 63.140625 
L 2.34375 63.140625 
L 2.34375 71.578125 
L 59.078125 71.578125 
L 59.078125 63.140625 
L 35.40625 63.140625 
L 35.40625 0 
z
" id="ArialMT-84"/>
      <path d="M -0.140625 0 
L 27.34375 71.578125 
L 37.546875 71.578125 
L 66.84375 0 
L 56.0625 0 
L 47.703125 21.6875 
L 17.78125 21.6875 
L 9.90625 0 
z
M 20.515625 29.390625 
L 44.78125 29.390625 
L 37.3125 49.21875 
Q 33.890625 58.25 32.234375 64.0625 
Q 30.859375 57.171875 28.375 50.390625 
z
" id="ArialMT-65"/>
      <path d="M 4.5 23 
L 13.421875 23.78125 
Q 14.0625 18.40625 16.375 14.96875 
Q 18.703125 11.53125 23.578125 9.40625 
Q 28.46875 7.28125 34.578125 7.28125 
Q 39.984375 7.28125 44.140625 8.890625 
Q 48.296875 10.5 50.3125 13.296875 
Q 52.34375 16.109375 52.34375 19.4375 
Q 52.34375 22.796875 50.390625 25.3125 
Q 48.4375 27.828125 43.953125 29.546875 
Q 41.0625 30.671875 31.203125 33.03125 
Q 21.34375 35.40625 17.390625 37.5 
Q 12.25 40.1875 9.734375 44.15625 
Q 7.234375 48.140625 7.234375 53.078125 
Q 7.234375 58.5 10.296875 63.203125 
Q 13.375 67.921875 19.28125 70.359375 
Q 25.203125 72.796875 32.421875 72.796875 
Q 40.375 72.796875 46.453125 70.234375 
Q 52.546875 67.671875 55.8125 62.6875 
Q 59.078125 57.71875 59.328125 51.421875 
L 50.25 50.734375 
Q 49.515625 57.515625 45.28125 60.984375 
Q 41.0625 64.453125 32.8125 64.453125 
Q 24.21875 64.453125 20.28125 61.296875 
Q 16.359375 58.15625 16.359375 53.71875 
Q 16.359375 49.859375 19.140625 47.359375 
Q 21.875 44.875 33.421875 42.265625 
Q 44.96875 39.65625 49.265625 37.703125 
Q 55.515625 34.8125 58.484375 30.390625 
Q 61.46875 25.984375 61.46875 20.21875 
Q 61.46875 14.5 58.203125 9.4375 
Q 54.9375 4.390625 48.796875 1.578125 
Q 42.671875 -1.21875 35.015625 -1.21875 
Q 25.296875 -1.21875 18.71875 1.609375 
Q 12.15625 4.4375 8.421875 10.125 
Q 4.6875 15.828125 4.5 23 
z
" id="ArialMT-83"/>
      <path d="M 20.21875 0 
L 1.21875 71.578125 
L 10.9375 71.578125 
L 21.828125 24.65625 
Q 23.578125 17.28125 24.859375 10.015625 
Q 27.59375 21.484375 28.078125 23.25 
L 41.703125 71.578125 
L 53.125 71.578125 
L 63.375 35.359375 
Q 67.234375 21.875 68.953125 10.015625 
Q 70.3125 16.796875 72.515625 25.59375 
L 83.734375 71.578125 
L 93.265625 71.578125 
L 73.640625 0 
L 64.5 0 
L 49.421875 54.546875 
Q 47.515625 61.375 47.171875 62.9375 
Q 46.046875 58.015625 45.0625 54.546875 
L 29.890625 0 
z
" id="ArialMT-87"/>
      <path d="M 40.4375 6.390625 
Q 35.546875 2.25 31.03125 0.53125 
Q 26.515625 -1.171875 21.34375 -1.171875 
Q 12.796875 -1.171875 8.203125 3 
Q 3.609375 7.171875 3.609375 13.671875 
Q 3.609375 17.484375 5.34375 20.625 
Q 7.078125 23.78125 9.890625 25.6875 
Q 12.703125 27.59375 16.21875 28.5625 
Q 18.796875 29.25 24.03125 29.890625 
Q 34.671875 31.15625 39.703125 32.90625 
Q 39.75 34.71875 39.75 35.203125 
Q 39.75 40.578125 37.25 42.78125 
Q 33.890625 45.75 27.25 45.75 
Q 21.046875 45.75 18.09375 43.578125 
Q 15.140625 41.40625 13.71875 35.890625 
L 5.125 37.0625 
Q 6.296875 42.578125 8.984375 45.96875 
Q 11.671875 49.359375 16.75 51.1875 
Q 21.828125 53.03125 28.515625 53.03125 
Q 35.15625 53.03125 39.296875 51.46875 
Q 43.453125 49.90625 45.40625 47.53125 
Q 47.359375 45.171875 48.140625 41.546875 
Q 48.578125 39.3125 48.578125 33.453125 
L 48.578125 21.734375 
Q 48.578125 9.46875 49.140625 6.21875 
Q 49.703125 2.984375 51.375 0 
L 42.1875 0 
Q 40.828125 2.734375 40.4375 6.390625 
z
M 39.703125 26.03125 
Q 34.90625 24.078125 25.34375 22.703125 
Q 19.921875 21.921875 17.671875 20.9375 
Q 15.4375 19.96875 14.203125 18.09375 
Q 12.984375 16.21875 12.984375 13.921875 
Q 12.984375 10.40625 15.640625 8.0625 
Q 18.3125 5.71875 23.4375 5.71875 
Q 28.515625 5.71875 32.46875 7.9375 
Q 36.421875 10.15625 38.28125 14.015625 
Q 39.703125 17 39.703125 22.796875 
z
" id="ArialMT-97"/>
      <path d="M 6.390625 0 
L 6.390625 71.578125 
L 15.1875 71.578125 
L 15.1875 0 
z
" id="ArialMT-108"/>
      <path d="M 6.640625 0 
L 6.640625 71.578125 
L 15.4375 71.578125 
L 15.4375 30.765625 
L 36.234375 51.859375 
L 47.609375 51.859375 
L 27.78125 32.625 
L 49.609375 0 
L 38.765625 0 
L 21.625 26.515625 
L 15.4375 20.5625 
L 15.4375 0 
z
" id="ArialMT-107"/>
      <path d="M 3.078125 15.484375 
L 11.765625 16.84375 
Q 12.5 11.625 15.84375 8.84375 
Q 19.1875 6.0625 25.203125 6.0625 
Q 31.25 6.0625 34.171875 8.515625 
Q 37.109375 10.984375 37.109375 14.3125 
Q 37.109375 17.28125 34.515625 19 
Q 32.71875 20.171875 25.53125 21.96875 
Q 15.875 24.421875 12.140625 26.203125 
Q 8.40625 27.984375 6.46875 31.125 
Q 4.546875 34.28125 4.546875 38.09375 
Q 4.546875 41.546875 6.125 44.5 
Q 7.71875 47.46875 10.453125 49.421875 
Q 12.5 50.921875 16.03125 51.96875 
Q 19.578125 53.03125 23.640625 53.03125 
Q 29.734375 53.03125 34.34375 51.265625 
Q 38.96875 49.515625 41.15625 46.5 
Q 43.359375 43.5 44.1875 38.484375 
L 35.59375 37.3125 
Q 35.015625 41.3125 32.203125 43.546875 
Q 29.390625 45.796875 24.265625 45.796875 
Q 18.21875 45.796875 15.625 43.796875 
Q 13.03125 41.796875 13.03125 39.109375 
Q 13.03125 37.40625 14.109375 36.03125 
Q 15.1875 34.625 17.484375 33.6875 
Q 18.796875 33.203125 25.25 31.453125 
Q 34.578125 28.953125 38.25 27.359375 
Q 41.9375 25.78125 44.03125 22.75 
Q 46.140625 19.734375 46.140625 15.234375 
Q 46.140625 10.84375 43.578125 6.953125 
Q 41.015625 3.078125 36.171875 0.953125 
Q 31.34375 -1.171875 25.25 -1.171875 
Q 15.140625 -1.171875 9.84375 3.03125 
Q 4.546875 7.234375 3.078125 15.484375 
z
" id="ArialMT-115"/>
     </defs>
     <g style="fill:#262626;" transform="translate(260.627656 52.333594)scale(0.11 -0.11)">
      <use xlink:href="#ArialMT-77"/>
      <use x="83.300781" xlink:href="#ArialMT-76"/>
      <use x="138.916016" xlink:href="#ArialMT-80"/>
      <use x="205.599609" xlink:href="#ArialMT-32"/>
      <use x="233.382812" xlink:href="#ArialMT-43"/>
      <use x="291.78125" xlink:href="#ArialMT-32"/>
      <use x="319.548828" xlink:href="#ArialMT-84"/>
      <use x="380.523438" xlink:href="#ArialMT-65"/>
      <use x="447.222656" xlink:href="#ArialMT-83"/>
      <use x="513.921875" xlink:href="#ArialMT-32"/>
      <use x="541.705078" xlink:href="#ArialMT-87"/>
      <use x="636.042969" xlink:href="#ArialMT-97"/>
      <use x="691.658203" xlink:href="#ArialMT-108"/>
      <use x="713.875" xlink:href="#ArialMT-107"/>
      <use x="763.875" xlink:href="#ArialMT-115"/>
     </g>
    </g>
    <g id="line2d_19">
     <path d="M 229.827656 64.1775 
L 251.827656 64.1775 
" style="fill:none;stroke:#0000b2;stroke-linecap:round;stroke-width:1.5;"/>
    </g>
    <g id="line2d_20"/>
    <g id="text_12">
     <!-- Deep Sets + SAT Walks -->
     <defs>
      <path d="M 7.71875 0 
L 7.71875 71.578125 
L 32.375 71.578125 
Q 40.71875 71.578125 45.125 70.5625 
Q 51.265625 69.140625 55.609375 65.4375 
Q 61.28125 60.640625 64.078125 53.1875 
Q 66.890625 45.75 66.890625 36.1875 
Q 66.890625 28.03125 64.984375 21.734375 
Q 63.09375 15.4375 60.109375 11.296875 
Q 57.125 7.171875 53.578125 4.796875 
Q 50.046875 2.4375 45.046875 1.21875 
Q 40.046875 0 33.546875 0 
z
M 17.1875 8.453125 
L 32.46875 8.453125 
Q 39.546875 8.453125 43.578125 9.765625 
Q 47.609375 11.078125 50 13.484375 
Q 53.375 16.84375 55.25 22.53125 
Q 57.125 28.21875 57.125 36.328125 
Q 57.125 47.5625 53.4375 53.59375 
Q 49.75 59.625 44.484375 61.671875 
Q 40.671875 63.140625 32.234375 63.140625 
L 17.1875 63.140625 
z
" id="ArialMT-68"/>
      <path d="M 42.09375 16.703125 
L 51.171875 15.578125 
Q 49.03125 7.625 43.21875 3.21875 
Q 37.40625 -1.171875 28.375 -1.171875 
Q 17 -1.171875 10.328125 5.828125 
Q 3.65625 12.84375 3.65625 25.484375 
Q 3.65625 38.578125 10.390625 45.796875 
Q 17.140625 53.03125 27.875 53.03125 
Q 38.28125 53.03125 44.875 45.953125 
Q 51.46875 38.875 51.46875 26.03125 
Q 51.46875 25.25 51.421875 23.6875 
L 12.75 23.6875 
Q 13.234375 15.140625 17.578125 10.59375 
Q 21.921875 6.0625 28.421875 6.0625 
Q 33.25 6.0625 36.671875 8.59375 
Q 40.09375 11.140625 42.09375 16.703125 
z
M 13.234375 30.90625 
L 42.1875 30.90625 
Q 41.609375 37.453125 38.875 40.71875 
Q 34.671875 45.796875 27.984375 45.796875 
Q 21.921875 45.796875 17.796875 41.75 
Q 13.671875 37.703125 13.234375 30.90625 
z
" id="ArialMT-101"/>
      <path d="M 6.59375 -19.875 
L 6.59375 51.859375 
L 14.59375 51.859375 
L 14.59375 45.125 
Q 17.4375 49.078125 21 51.046875 
Q 24.5625 53.03125 29.640625 53.03125 
Q 36.28125 53.03125 41.359375 49.609375 
Q 46.4375 46.1875 49.015625 39.953125 
Q 51.609375 33.734375 51.609375 26.3125 
Q 51.609375 18.359375 48.75 11.984375 
Q 45.90625 5.609375 40.453125 2.21875 
Q 35.015625 -1.171875 29 -1.171875 
Q 24.609375 -1.171875 21.109375 0.6875 
Q 17.625 2.546875 15.375 5.375 
L 15.375 -19.875 
z
M 14.546875 25.640625 
Q 14.546875 15.625 18.59375 10.84375 
Q 22.65625 6.0625 28.421875 6.0625 
Q 34.28125 6.0625 38.453125 11.015625 
Q 42.625 15.96875 42.625 26.375 
Q 42.625 36.28125 38.546875 41.203125 
Q 34.46875 46.140625 28.8125 46.140625 
Q 23.1875 46.140625 18.859375 40.890625 
Q 14.546875 35.640625 14.546875 25.640625 
z
" id="ArialMT-112"/>
      <path d="M 25.78125 7.859375 
L 27.046875 0.09375 
Q 23.34375 -0.6875 20.40625 -0.6875 
Q 15.625 -0.6875 12.984375 0.828125 
Q 10.359375 2.34375 9.28125 4.8125 
Q 8.203125 7.28125 8.203125 15.1875 
L 8.203125 45.015625 
L 1.765625 45.015625 
L 1.765625 51.859375 
L 8.203125 51.859375 
L 8.203125 64.703125 
L 16.9375 69.96875 
L 16.9375 51.859375 
L 25.78125 51.859375 
L 25.78125 45.015625 
L 16.9375 45.015625 
L 16.9375 14.703125 
Q 16.9375 10.9375 17.40625 9.859375 
Q 17.875 8.796875 18.921875 8.15625 
Q 19.96875 7.515625 21.921875 7.515625 
Q 23.390625 7.515625 25.78125 7.859375 
z
" id="ArialMT-116"/>
     </defs>
     <g style="fill:#262626;" transform="translate(260.627656 68.0275)scale(0.11 -0.11)">
      <use xlink:href="#ArialMT-68"/>
      <use x="72.216797" xlink:href="#ArialMT-101"/>
      <use x="127.832031" xlink:href="#ArialMT-101"/>
      <use x="183.447266" xlink:href="#ArialMT-112"/>
      <use x="239.0625" xlink:href="#ArialMT-32"/>
      <use x="266.845703" xlink:href="#ArialMT-83"/>
      <use x="333.544922" xlink:href="#ArialMT-101"/>
      <use x="389.160156" xlink:href="#ArialMT-116"/>
      <use x="416.943359" xlink:href="#ArialMT-115"/>
      <use x="466.943359" xlink:href="#ArialMT-32"/>
      <use x="494.726562" xlink:href="#ArialMT-43"/>
      <use x="553.125" xlink:href="#ArialMT-32"/>
      <use x="580.908203" xlink:href="#ArialMT-83"/>
      <use x="647.607422" xlink:href="#ArialMT-65"/>
      <use x="714.197266" xlink:href="#ArialMT-84"/>
      <use x="775.265625" xlink:href="#ArialMT-32"/>
      <use x="803.048828" xlink:href="#ArialMT-87"/>
      <use x="897.386719" xlink:href="#ArialMT-97"/>
      <use x="953.001953" xlink:href="#ArialMT-108"/>
      <use x="975.21875" xlink:href="#ArialMT-107"/>
      <use x="1025.21875" xlink:href="#ArialMT-115"/>
     </g>
    </g>
    <g id="line2d_21">
     <path d="M 229.827656 79.737344 
L 251.827656 79.737344 
" style="fill:none;stroke:#00b200;stroke-linecap:round;stroke-width:1.5;"/>
    </g>
    <g id="line2d_22"/>
    <g id="text_13">
     <!-- Deep Hyperedges -->
     <defs>
      <path d="M 8.015625 0 
L 8.015625 71.578125 
L 17.484375 71.578125 
L 17.484375 42.1875 
L 54.6875 42.1875 
L 54.6875 71.578125 
L 64.15625 71.578125 
L 64.15625 0 
L 54.6875 0 
L 54.6875 33.734375 
L 17.484375 33.734375 
L 17.484375 0 
z
" id="ArialMT-72"/>
      <path d="M 6.203125 -19.96875 
L 5.21875 -11.71875 
Q 8.109375 -12.5 10.25 -12.5 
Q 13.1875 -12.5 14.9375 -11.515625 
Q 16.703125 -10.546875 17.828125 -8.796875 
Q 18.65625 -7.46875 20.515625 -2.25 
Q 20.75 -1.515625 21.296875 -0.09375 
L 1.609375 51.859375 
L 11.078125 51.859375 
L 21.875 21.828125 
Q 23.96875 16.109375 25.640625 9.8125 
Q 27.15625 15.875 29.25 21.625 
L 40.328125 51.859375 
L 49.125 51.859375 
L 29.390625 -0.875 
Q 26.21875 -9.421875 24.46875 -12.640625 
Q 22.125 -17 19.09375 -19.015625 
Q 16.0625 -21.046875 11.859375 -21.046875 
Q 9.328125 -21.046875 6.203125 -19.96875 
z
" id="ArialMT-121"/>
      <path d="M 6.5 0 
L 6.5 51.859375 
L 14.40625 51.859375 
L 14.40625 44 
Q 17.4375 49.515625 20 51.265625 
Q 22.5625 53.03125 25.640625 53.03125 
Q 30.078125 53.03125 34.671875 50.203125 
L 31.640625 42.046875 
Q 28.421875 43.953125 25.203125 43.953125 
Q 22.3125 43.953125 20.015625 42.21875 
Q 17.71875 40.484375 16.75 37.40625 
Q 15.28125 32.71875 15.28125 27.15625 
L 15.28125 0 
z
" id="ArialMT-114"/>
      <path d="M 40.234375 0 
L 40.234375 6.546875 
Q 35.296875 -1.171875 25.734375 -1.171875 
Q 19.53125 -1.171875 14.328125 2.25 
Q 9.125 5.671875 6.265625 11.796875 
Q 3.421875 17.921875 3.421875 25.875 
Q 3.421875 33.640625 6 39.96875 
Q 8.59375 46.296875 13.765625 49.65625 
Q 18.953125 53.03125 25.34375 53.03125 
Q 30.03125 53.03125 33.6875 51.046875 
Q 37.359375 49.078125 39.65625 45.90625 
L 39.65625 71.578125 
L 48.390625 71.578125 
L 48.390625 0 
z
M 12.453125 25.875 
Q 12.453125 15.921875 16.640625 10.984375 
Q 20.84375 6.0625 26.5625 6.0625 
Q 32.328125 6.0625 36.34375 10.765625 
Q 40.375 15.484375 40.375 25.140625 
Q 40.375 35.796875 36.265625 40.765625 
Q 32.171875 45.75 26.171875 45.75 
Q 20.3125 45.75 16.375 40.96875 
Q 12.453125 36.1875 12.453125 25.875 
z
" id="ArialMT-100"/>
      <path d="M 4.984375 -4.296875 
L 13.53125 -5.5625 
Q 14.0625 -9.515625 16.5 -11.328125 
Q 19.78125 -13.765625 25.4375 -13.765625 
Q 31.546875 -13.765625 34.859375 -11.328125 
Q 38.1875 -8.890625 39.359375 -4.5 
Q 40.046875 -1.8125 39.984375 6.78125 
Q 34.234375 0 25.640625 0 
Q 14.9375 0 9.078125 7.71875 
Q 3.21875 15.4375 3.21875 26.21875 
Q 3.21875 33.640625 5.90625 39.90625 
Q 8.59375 46.1875 13.6875 49.609375 
Q 18.796875 53.03125 25.6875 53.03125 
Q 34.859375 53.03125 40.828125 45.609375 
L 40.828125 51.859375 
L 48.921875 51.859375 
L 48.921875 7.03125 
Q 48.921875 -5.078125 46.453125 -10.125 
Q 44 -15.1875 38.640625 -18.109375 
Q 33.296875 -21.046875 25.484375 -21.046875 
Q 16.21875 -21.046875 10.5 -16.875 
Q 4.78125 -12.703125 4.984375 -4.296875 
z
M 12.25 26.859375 
Q 12.25 16.65625 16.296875 11.96875 
Q 20.359375 7.28125 26.46875 7.28125 
Q 32.515625 7.28125 36.609375 11.9375 
Q 40.71875 16.609375 40.71875 26.5625 
Q 40.71875 36.078125 36.5 40.90625 
Q 32.28125 45.75 26.3125 45.75 
Q 20.453125 45.75 16.34375 40.984375 
Q 12.25 36.234375 12.25 26.859375 
z
" id="ArialMT-103"/>
     </defs>
     <g style="fill:#262626;" transform="translate(260.627656 83.587344)scale(0.11 -0.11)">
      <use xlink:href="#ArialMT-68"/>
      <use x="72.216797" xlink:href="#ArialMT-101"/>
      <use x="127.832031" xlink:href="#ArialMT-101"/>
      <use x="183.447266" xlink:href="#ArialMT-112"/>
      <use x="239.0625" xlink:href="#ArialMT-32"/>
      <use x="266.845703" xlink:href="#ArialMT-72"/>
      <use x="339.0625" xlink:href="#ArialMT-121"/>
      <use x="389.0625" xlink:href="#ArialMT-112"/>
      <use x="444.677734" xlink:href="#ArialMT-101"/>
      <use x="500.292969" xlink:href="#ArialMT-114"/>
      <use x="533.59375" xlink:href="#ArialMT-101"/>
      <use x="589.208984" xlink:href="#ArialMT-100"/>
      <use x="644.824219" xlink:href="#ArialMT-103"/>
      <use x="700.439453" xlink:href="#ArialMT-101"/>
      <use x="756.054688" xlink:href="#ArialMT-115"/>
     </g>
    </g>
   </g>
  </g>
 </g>
 <defs>
  <clipPath id="pede23bf5a7">
   <rect height="217.44" width="334.8" x="54" y="34.56"/>
  </clipPath>
 </defs>
</svg>
